<svg width="939" height="790" viewBox="0 0 939 790" fill="none" xmlns="http://www.w3.org/2000/svg">
<rect x="-4.22125" y="70.003" width="1027" height="708" rx="67" transform="rotate(-4.14083 -4.22125 70.003)" fill="#212125"/>
<g clip-path="url(#clip0_15_98)">
<path d="M942.252 455.805L814.11 669.07C763.251 631.254 748.831 560.329 782.212 504.773C815.593 449.218 884.986 428.652 942.252 455.805ZM963.899 468.811L906.299 564.674L1001.95 622.146C1027.31 568.591 1011.32 504.129 963.899 468.811ZM893.356 586.214L835.756 682.076C889.311 707.434 953.624 691.218 989.005 643.685L893.356 586.214Z" fill="white"/>
</g>
<path d="M188.793 578.171L221.95 561.041L277.909 669.353L244.752 686.483L188.793 578.171ZM226.704 499.776L257.65 483.788L337.59 638.518L306.644 654.507L226.704 499.776ZM334.276 556.217L365.223 540.229L399.483 606.542L368.537 622.53L334.276 556.217Z" fill="white"/>
<g clip-path="url(#clip1_15_98)">
<path d="M321.137 211.265L356.316 223.724L289.866 411.346L254.687 398.886L321.137 211.265ZM107.864 254.504L143.043 266.964L113.971 349.048L78.7917 336.589L107.864 254.504ZM274.232 194.652L309.411 207.111L296.952 242.29L261.773 229.831L274.232 194.652ZM223.174 189.766L258.353 202.225L241.74 249.131L206.561 236.671L223.174 189.766ZM167.229 235.938L202.408 248.397L185.795 295.303L150.616 282.843L167.229 235.938Z" fill="white"/>
</g>
<g clip-path="url(#clip2_15_98)">
<path d="M690.341 504.322C693.999 505.516 696.016 509.487 694.822 513.146L687.587 535.32C686.393 538.979 682.423 540.996 678.764 539.802L408.229 451.53C404.57 450.337 402.553 446.366 403.747 442.707L468.866 243.132C470.06 239.474 474.03 237.457 477.689 238.651L499.864 245.886C503.523 247.08 505.54 251.05 504.346 254.709L448.633 425.456L690.341 504.322ZM660.377 356.839L603.202 372.84L576.48 294.378C574.883 289.686 569.027 288.082 565.267 291.333L490.974 355.85L472.162 413.505L685.041 482.965L669.173 362.592C668.575 358.409 664.427 355.706 660.377 356.839V356.839Z" fill="white"/>
</g>
<path d="M773.019 309.926L858.883 209.624L912.312 255.423L992.651 149.806L1011.49 165.95L915.173 292.633L861.744 246.834L793.055 327.101L773.019 309.926ZM787.333 252.68L856.022 172.413L909.45 218.213L1005.76 91.529L986.929 75.3848L906.589 181.002L853.161 135.203L767.297 235.506L787.333 252.68Z" fill="white"/>
<defs>
<clipPath id="clip0_15_98">
<rect width="298.562" height="298.562" fill="white" transform="translate(837.771 364) rotate(31)"/>
</clipPath>
<clipPath id="clip1_15_98">
<rect width="298.562" height="298.562" fill="white" transform="translate(126.676 89.6023) rotate(19.5028)"/>
</clipPath>
<clipPath id="clip2_15_98">
<rect width="298.567" height="298.567" fill="white" transform="translate(482.613 201) rotate(18.0708)"/>
</clipPath>
</defs>
</svg>
