<svg width="571" height="250" viewBox="0 0 571 250" fill="none" xmlns="http://www.w3.org/2000/svg">
<rect x="2" y="2" width="567" height="246" rx="28" fill="#121212"/>
<rect x="2" y="2" width="567" height="246" rx="28" stroke="white" stroke-width="4"/>
<path d="M178.653 113.032L193.437 75.72H212.125V78.28C210.717 78.28 209.565 78.4293 208.669 78.728C207.815 78.984 207.154 79.4747 206.685 80.2C206.215 80.9253 205.895 81.928 205.725 83.208C205.597 84.4453 205.533 86.024 205.533 87.944V112.776C205.533 114.909 205.618 116.595 205.789 117.832C205.959 119.069 206.301 120.029 206.813 120.712C207.325 121.395 208.05 121.843 208.989 122.056C209.97 122.269 211.25 122.397 212.829 122.44V125H188.765V122.44C190.343 122.397 191.602 122.269 192.541 122.056C193.522 121.8 194.269 121.352 194.781 120.712C195.335 120.072 195.698 119.176 195.869 118.024C196.039 116.829 196.125 115.229 196.125 113.224V83.272H195.805L178.589 125.64H173.853L156.061 83.272H155.805V112.776C155.805 114.909 155.89 116.595 156.061 117.832C156.231 119.069 156.573 120.029 157.085 120.712C157.597 121.395 158.322 121.843 159.261 122.056C160.242 122.269 161.522 122.397 163.101 122.44V125H143.389V122.44C144.967 122.397 146.247 122.269 147.229 122.056C148.21 121.8 148.957 121.352 149.469 120.712C150.023 120.072 150.386 119.176 150.557 118.024C150.727 116.829 150.813 115.229 150.813 113.224V87.496C150.813 85.704 150.727 84.2107 150.557 83.016C150.386 81.8213 150.066 80.8827 149.597 80.2C149.127 79.4747 148.445 78.984 147.549 78.728C146.695 78.4293 145.543 78.28 144.093 78.28V75.72H163.485L178.397 113.032H178.653ZM231.167 114.504C231.167 116.211 231.231 117.576 231.359 118.6C231.487 119.624 231.743 120.413 232.127 120.968C232.511 121.523 233.065 121.907 233.791 122.12C234.516 122.291 235.497 122.397 236.735 122.44V125H216.575V122.44C217.769 122.397 218.729 122.269 219.455 122.056C220.223 121.8 220.799 121.416 221.183 120.904C221.609 120.349 221.887 119.603 222.015 118.664C222.185 117.683 222.271 116.445 222.271 114.952V107.08C222.271 104.605 222.228 102.579 222.143 101C222.057 99.3787 221.951 98.2693 221.823 97.672C221.609 96.6053 221.119 95.9013 220.351 95.56C219.625 95.2187 218.281 95.048 216.319 95.048V92.872L231.167 90.44V114.504ZM221.759 76.872C221.759 75.464 222.228 74.2907 223.167 73.352C224.148 72.3707 225.321 71.88 226.687 71.88C228.095 71.88 229.268 72.3707 230.207 73.352C231.188 74.2907 231.679 75.464 231.679 76.872C231.679 78.2373 231.188 79.4107 230.207 80.392C229.268 81.3307 228.095 81.8 226.687 81.8C225.321 81.8 224.148 81.3307 223.167 80.392C222.228 79.4107 221.759 78.2373 221.759 76.872ZM254.292 114.568C254.292 116.317 254.334 117.704 254.42 118.728C254.548 119.709 254.782 120.477 255.124 121.032C255.508 121.544 256.062 121.885 256.788 122.056C257.556 122.227 258.58 122.355 259.86 122.44V125H239.7V122.44C240.937 122.355 241.918 122.227 242.644 122.056C243.412 121.885 243.988 121.544 244.372 121.032C244.798 120.52 245.076 119.795 245.204 118.856C245.332 117.917 245.396 116.637 245.396 115.016V107.016C245.396 104.499 245.353 102.472 245.268 100.936C245.182 99.3573 245.076 98.2907 244.948 97.736C244.82 97.1813 244.649 96.7333 244.436 96.392C244.222 96.008 243.902 95.7307 243.476 95.56C243.049 95.3467 242.516 95.2187 241.876 95.176C241.236 95.0907 240.425 95.048 239.444 95.048V92.872L251.796 90.44L252.628 96.072H252.884C254.292 94.28 255.956 92.8933 257.876 91.912C259.796 90.9307 261.908 90.44 264.212 90.44C266.942 90.44 269.14 90.824 270.804 91.592C272.51 92.3173 274.025 93.5547 275.348 95.304C276.073 96.2853 276.713 97.5653 277.268 99.144C277.822 100.68 278.1 102.813 278.1 105.544V114.568C278.1 116.317 278.142 117.704 278.228 118.728C278.356 119.709 278.59 120.477 278.932 121.032C279.316 121.544 279.87 121.885 280.596 122.056C281.321 122.227 282.302 122.355 283.54 122.44V125H263.508V122.44C264.788 122.397 265.79 122.291 266.516 122.12C267.284 121.907 267.86 121.544 268.244 121.032C268.628 120.52 268.884 119.795 269.012 118.856C269.14 117.875 269.204 116.595 269.204 115.016V106.312C269.204 104.136 269.076 102.301 268.82 100.808C268.564 99.3147 268.137 98.12 267.54 97.224C266.985 96.2853 266.238 95.624 265.3 95.24C264.361 94.8133 263.188 94.6 261.78 94.6C260.414 94.6 259.241 94.984 258.26 95.752C257.278 96.52 256.425 97.5867 255.7 98.952C255.316 99.72 254.974 100.723 254.676 101.96C254.42 103.155 254.292 104.413 254.292 105.736V114.568ZM318.904 119.048C315.021 123.443 310.178 125.64 304.376 125.64C301.73 125.64 299.32 125.235 297.144 124.424C295.01 123.571 293.176 122.397 291.64 120.904C290.104 119.368 288.909 117.555 288.056 115.464C287.202 113.373 286.776 111.048 286.776 108.488C286.776 105.843 287.224 103.432 288.12 101.256C289.016 99.0373 290.274 97.1387 291.896 95.56C293.56 93.9387 295.501 92.68 297.72 91.784C299.981 90.888 302.456 90.44 305.144 90.44C309.666 90.44 313.186 91.656 315.704 94.088C318.221 96.52 319.48 99.9333 319.48 104.328C319.48 105.011 319.373 105.437 319.16 105.608C318.946 105.736 318.349 105.8 317.368 105.8H296.76C296.589 106.184 296.504 106.888 296.504 107.912C296.504 112.093 297.4 115.4 299.192 117.832C301.026 120.264 303.501 121.48 306.616 121.48C308.408 121.48 310.178 121.075 311.928 120.264C313.72 119.453 315.448 118.301 317.112 116.808L318.904 119.048ZM306.488 102.216C308.194 102.216 309.282 102.131 309.752 101.96C310.264 101.747 310.52 101.277 310.52 100.552C310.52 98.6747 309.986 97.1387 308.92 95.944C307.853 94.7493 306.509 94.152 304.888 94.152C303.053 94.152 301.41 94.92 299.96 96.456C298.552 97.9493 297.634 99.8693 297.208 102.216H306.488ZM338.293 115.08C338.293 116.744 338.357 118.067 338.485 119.048C338.656 119.987 338.976 120.712 339.445 121.224C339.915 121.736 340.597 122.077 341.493 122.248C342.389 122.376 343.584 122.44 345.077 122.44V125H323.701V122.44C324.981 122.355 326.005 122.227 326.773 122.056C327.541 121.885 328.117 121.544 328.501 121.032C328.885 120.52 329.12 119.795 329.205 118.856C329.333 117.875 329.397 116.573 329.397 114.952V107.144C329.397 104.499 329.333 102.387 329.205 100.808C329.077 99.2293 328.8 98.0133 328.373 97.16C327.947 96.3067 327.328 95.752 326.517 95.496C325.749 95.1973 324.725 95.048 323.445 95.048V92.808L336.245 90.44L337.269 97.8H337.525C338.677 95.5387 340.192 93.7467 342.069 92.424C343.947 91.1013 345.931 90.44 348.021 90.44C349.643 90.44 350.965 90.8453 351.989 91.656C353.013 92.4667 353.525 93.4907 353.525 94.728C353.525 96.0933 353.12 97.2453 352.309 98.184C351.541 99.1227 350.475 99.592 349.109 99.592C348.469 99.592 347.893 99.464 347.381 99.208C346.869 98.952 346.4 98.6747 345.973 98.376C345.589 98.0347 345.184 97.736 344.757 97.48C344.373 97.1813 343.968 97.032 343.541 97.032C342.731 97.032 341.963 97.5653 341.237 98.632C340.512 99.6987 339.915 101.128 339.445 102.92C339.104 104.2 338.827 105.651 338.613 107.272C338.4 108.851 338.293 110.429 338.293 112.008V115.08ZM360.12 99.336C359.651 98.0987 359.203 97.1173 358.776 96.392C358.35 95.624 357.902 95.048 357.432 94.664C357.006 94.2373 356.515 93.96 355.96 93.832C355.448 93.704 354.83 93.64 354.104 93.64V91.08H373.24V93.64C372.174 93.64 371.32 93.6827 370.68 93.768C370.083 93.8533 369.614 93.9813 369.272 94.152C368.974 94.3227 368.782 94.5573 368.696 94.856C368.611 95.112 368.568 95.4107 368.568 95.752C368.568 96.3067 368.675 96.9467 368.888 97.672C369.102 98.3973 369.358 99.1227 369.656 99.848L375.736 116.616H375.992L382.84 99.912C383.139 99.1867 383.374 98.5467 383.544 97.992C383.715 97.3947 383.8 96.8613 383.8 96.392C383.8 95.4533 383.48 94.7707 382.84 94.344C382.2 93.9173 381.07 93.6827 379.448 93.64V91.08H393.592V93.64C392.44 93.64 391.438 93.9387 390.584 94.536C389.774 95.1333 388.92 96.456 388.024 98.504L376.056 125.64H370.232L360.12 99.336ZM414.797 106.76C411.213 108.381 408.504 109.896 406.669 111.304C404.877 112.669 403.981 114.099 403.981 115.592C403.981 116.829 404.323 117.811 405.005 118.536C405.688 119.261 406.541 119.624 407.565 119.624C408.589 119.624 409.549 119.453 410.445 119.112C411.341 118.728 412.109 118.237 412.749 117.64C413.389 117.043 413.88 116.339 414.221 115.528C414.605 114.675 414.797 113.779 414.797 112.84V106.76ZM414.797 103.368V100.68C414.797 98.2053 414.349 96.4133 413.453 95.304C412.6 94.152 411.256 93.576 409.421 93.576C408.184 93.576 407.245 93.9173 406.605 94.6C405.965 95.24 405.368 96.328 404.813 97.864C404.429 98.9307 403.875 99.7627 403.149 100.36C402.467 100.957 401.507 101.256 400.269 101.256C399.075 101.256 398.157 100.893 397.517 100.168C396.877 99.4427 396.557 98.4187 396.557 97.096C396.557 95.048 397.667 93.4267 399.885 92.232C402.147 91.0373 405.539 90.44 410.061 90.44C414.84 90.44 418.253 91.3147 420.301 93.064C422.349 94.7707 423.373 97.6507 423.373 101.704V115.72C423.373 119.347 424.099 121.16 425.549 121.16C426.36 121.16 427.107 120.883 427.789 120.328L428.749 122.184C428.152 123.251 427.213 124.104 425.933 124.744C424.696 125.341 423.288 125.64 421.709 125.64C419.747 125.64 418.253 125.043 417.229 123.848C416.205 122.653 415.693 120.968 415.693 118.792H415.373C414.136 121.011 412.536 122.696 410.573 123.848C408.611 125 406.371 125.576 403.853 125.576C401.165 125.576 399.011 124.829 397.389 123.336C395.768 121.8 394.957 119.816 394.957 117.384C394.957 115.507 395.789 113.757 397.453 112.136C399.117 110.472 401.891 108.851 405.773 107.272L414.797 103.368Z" fill="white"/>
<path d="M152.857 138.3H152.255C152.227 137.843 152.157 137.465 152.045 137.166C151.943 136.858 151.793 136.615 151.597 136.438C151.401 136.251 151.163 136.125 150.883 136.06C150.603 135.985 150.277 135.948 149.903 135.948C149.539 135.948 149.245 135.957 149.021 135.976C148.807 135.985 148.639 136.009 148.517 136.046C148.405 136.074 148.331 136.116 148.293 136.172C148.256 136.228 148.237 136.298 148.237 136.382V143.718C148.237 144.017 148.256 144.273 148.293 144.488C148.34 144.703 148.429 144.88 148.559 145.02C148.69 145.151 148.881 145.253 149.133 145.328C149.385 145.393 149.717 145.431 150.127 145.44V146H144.261V145.44C144.681 145.431 145.017 145.393 145.269 145.328C145.521 145.253 145.713 145.151 145.843 145.02C145.983 144.88 146.072 144.703 146.109 144.488C146.156 144.273 146.179 144.017 146.179 143.718V136.382C146.179 136.298 146.161 136.228 146.123 136.172C146.095 136.116 146.03 136.074 145.927 136.046C145.825 136.009 145.675 135.985 145.479 135.976C145.293 135.957 145.045 135.948 144.737 135.948C144.401 135.948 144.079 135.967 143.771 136.004C143.463 136.032 143.193 136.125 142.959 136.284C142.726 136.433 142.535 136.667 142.385 136.984C142.245 137.292 142.171 137.731 142.161 138.3H141.615L141.755 135.22H152.717L152.857 138.3ZM156.443 143.704C156.443 144.087 156.453 144.39 156.471 144.614C156.499 144.829 156.551 144.997 156.625 145.118C156.709 145.239 156.831 145.319 156.989 145.356C157.157 145.393 157.381 145.421 157.661 145.44V146H153.251V145.44C153.531 145.421 153.755 145.393 153.923 145.356C154.091 145.319 154.217 145.244 154.301 145.132C154.385 145.02 154.437 144.861 154.455 144.656C154.483 144.441 154.497 144.157 154.497 143.802V138.048C154.497 137.488 154.488 137.049 154.469 136.732C154.46 136.405 154.437 136.158 154.399 135.99C154.371 135.869 154.339 135.775 154.301 135.71C154.264 135.635 154.203 135.579 154.119 135.542C154.045 135.495 153.937 135.467 153.797 135.458C153.667 135.439 153.499 135.43 153.293 135.43V134.912L156.415 134.38V139.546H156.471C156.761 139.163 157.083 138.883 157.437 138.706C157.801 138.529 158.235 138.44 158.739 138.44C159.654 138.44 160.363 138.72 160.867 139.28C161.11 139.56 161.301 139.901 161.441 140.302C161.581 140.694 161.651 141.105 161.651 141.534V143.704C161.651 144.096 161.661 144.404 161.679 144.628C161.698 144.843 161.745 145.011 161.819 145.132C161.903 145.244 162.025 145.319 162.183 145.356C162.342 145.393 162.561 145.421 162.841 145.44V146H158.459V145.44C158.739 145.431 158.959 145.407 159.117 145.37C159.285 145.323 159.411 145.244 159.495 145.132C159.589 145.02 159.645 144.861 159.663 144.656C159.691 144.441 159.705 144.157 159.705 143.802V142.08C159.705 141.091 159.598 140.391 159.383 139.98C159.169 139.569 158.8 139.364 158.277 139.364C157.717 139.364 157.274 139.569 156.947 139.98C156.789 140.195 156.663 140.461 156.569 140.778C156.485 141.095 156.443 141.45 156.443 141.842V143.704ZM170.581 144.698C169.732 145.659 168.673 146.14 167.403 146.14C166.825 146.14 166.297 146.051 165.821 145.874C165.355 145.687 164.953 145.431 164.617 145.104C164.281 144.768 164.02 144.371 163.833 143.914C163.647 143.457 163.553 142.948 163.553 142.388C163.553 141.809 163.651 141.282 163.847 140.806C164.043 140.321 164.319 139.905 164.673 139.56C165.037 139.205 165.462 138.93 165.947 138.734C166.442 138.538 166.983 138.44 167.571 138.44C168.561 138.44 169.331 138.706 169.881 139.238C170.432 139.77 170.707 140.517 170.707 141.478C170.707 141.627 170.684 141.721 170.637 141.758C170.591 141.786 170.46 141.8 170.245 141.8H165.737C165.7 141.884 165.681 142.038 165.681 142.262C165.681 143.177 165.877 143.9 166.269 144.432C166.671 144.964 167.212 145.23 167.893 145.23C168.285 145.23 168.673 145.141 169.055 144.964C169.447 144.787 169.825 144.535 170.189 144.208L170.581 144.698ZM167.865 141.016C168.239 141.016 168.477 140.997 168.579 140.96C168.691 140.913 168.747 140.811 168.747 140.652C168.747 140.241 168.631 139.905 168.397 139.644C168.164 139.383 167.87 139.252 167.515 139.252C167.114 139.252 166.755 139.42 166.437 139.756C166.129 140.083 165.929 140.503 165.835 141.016H167.865ZM178.948 143.746C178.948 144.101 178.971 144.39 179.018 144.614C179.064 144.829 179.158 144.997 179.298 145.118C179.447 145.23 179.652 145.309 179.914 145.356C180.184 145.403 180.544 145.431 180.992 145.44V146H175.42V145.44C175.728 145.431 175.98 145.403 176.176 145.356C176.372 145.309 176.521 145.23 176.624 145.118C176.726 145.006 176.796 144.847 176.834 144.642C176.871 144.437 176.89 144.171 176.89 143.844V137.376C176.89 137.049 176.871 136.788 176.834 136.592C176.806 136.387 176.745 136.228 176.652 136.116C176.558 135.995 176.423 135.915 176.246 135.878C176.078 135.831 175.854 135.799 175.574 135.78V135.22H184.142L184.31 138.174H183.722C183.666 137.773 183.582 137.437 183.47 137.166C183.367 136.886 183.218 136.662 183.022 136.494C182.826 136.317 182.574 136.191 182.266 136.116C181.958 136.041 181.58 136.004 181.132 136.004H179.2C179.032 136.004 178.948 136.083 178.948 136.242V140.288C179.517 140.288 179.979 140.265 180.334 140.218C180.698 140.171 180.987 140.083 181.202 139.952C181.416 139.812 181.57 139.625 181.664 139.392C181.757 139.159 181.822 138.851 181.86 138.468H182.378V142.85H181.86C181.804 142.458 181.724 142.145 181.622 141.912C181.519 141.669 181.36 141.487 181.146 141.366C180.94 141.235 180.66 141.147 180.306 141.1C179.951 141.053 179.498 141.03 178.948 141.03V143.746ZM188.194 143.83C188.194 144.194 188.208 144.483 188.236 144.698C188.273 144.903 188.343 145.062 188.446 145.174C188.549 145.286 188.698 145.361 188.894 145.398C189.09 145.426 189.351 145.44 189.678 145.44V146H185.002V145.44C185.282 145.421 185.506 145.393 185.674 145.356C185.842 145.319 185.968 145.244 186.052 145.132C186.136 145.02 186.187 144.861 186.206 144.656C186.234 144.441 186.248 144.157 186.248 143.802V142.094C186.248 141.515 186.234 141.053 186.206 140.708C186.178 140.363 186.117 140.097 186.024 139.91C185.931 139.723 185.795 139.602 185.618 139.546C185.45 139.481 185.226 139.448 184.946 139.448V138.958L187.746 138.44L187.97 140.05H188.026C188.278 139.555 188.609 139.163 189.02 138.874C189.431 138.585 189.865 138.44 190.322 138.44C190.677 138.44 190.966 138.529 191.19 138.706C191.414 138.883 191.526 139.107 191.526 139.378C191.526 139.677 191.437 139.929 191.26 140.134C191.092 140.339 190.859 140.442 190.56 140.442C190.42 140.442 190.294 140.414 190.182 140.358C190.07 140.302 189.967 140.241 189.874 140.176C189.79 140.101 189.701 140.036 189.608 139.98C189.524 139.915 189.435 139.882 189.342 139.882C189.165 139.882 188.997 139.999 188.838 140.232C188.679 140.465 188.549 140.778 188.446 141.17C188.371 141.45 188.311 141.767 188.264 142.122C188.217 142.467 188.194 142.813 188.194 143.158V143.83ZM196.371 142.01C195.587 142.365 194.994 142.696 194.593 143.004C194.201 143.303 194.005 143.615 194.005 143.942C194.005 144.213 194.079 144.427 194.229 144.586C194.378 144.745 194.565 144.824 194.789 144.824C195.013 144.824 195.223 144.787 195.419 144.712C195.615 144.628 195.783 144.521 195.923 144.39C196.063 144.259 196.17 144.105 196.245 143.928C196.329 143.741 196.371 143.545 196.371 143.34V142.01ZM196.371 141.268V140.68C196.371 140.139 196.273 139.747 196.077 139.504C195.89 139.252 195.596 139.126 195.195 139.126C194.924 139.126 194.719 139.201 194.579 139.35C194.439 139.49 194.308 139.728 194.187 140.064C194.103 140.297 193.981 140.479 193.823 140.61C193.673 140.741 193.463 140.806 193.193 140.806C192.931 140.806 192.731 140.727 192.591 140.568C192.451 140.409 192.381 140.185 192.381 139.896C192.381 139.448 192.623 139.093 193.109 138.832C193.603 138.571 194.345 138.44 195.335 138.44C196.38 138.44 197.127 138.631 197.575 139.014C198.023 139.387 198.247 140.017 198.247 140.904V143.97C198.247 144.763 198.405 145.16 198.723 145.16C198.9 145.16 199.063 145.099 199.213 144.978L199.423 145.384C199.292 145.617 199.087 145.804 198.807 145.944C198.536 146.075 198.228 146.14 197.883 146.14C197.453 146.14 197.127 146.009 196.903 145.748C196.679 145.487 196.567 145.118 196.567 144.642H196.497C196.226 145.127 195.876 145.496 195.447 145.748C195.017 146 194.527 146.126 193.977 146.126C193.389 146.126 192.917 145.963 192.563 145.636C192.208 145.3 192.031 144.866 192.031 144.334C192.031 143.923 192.213 143.541 192.577 143.186C192.941 142.822 193.547 142.467 194.397 142.122L196.371 141.268ZM203.206 143.69C203.206 144.082 203.215 144.39 203.234 144.614C203.252 144.838 203.304 145.011 203.388 145.132C203.472 145.244 203.593 145.319 203.752 145.356C203.91 145.393 204.13 145.421 204.41 145.44V146H199.986V145.44C200.266 145.421 200.49 145.393 200.658 145.356C200.826 145.319 200.952 145.244 201.036 145.132C201.12 145.02 201.176 144.861 201.204 144.656C201.232 144.441 201.246 144.157 201.246 143.802V142.066C201.246 141.534 201.236 141.091 201.218 140.736C201.208 140.381 201.185 140.139 201.148 140.008C201.12 139.887 201.082 139.793 201.036 139.728C200.998 139.653 200.933 139.597 200.84 139.56C200.756 139.513 200.644 139.485 200.504 139.476C200.364 139.457 200.182 139.448 199.958 139.448V138.972L202.66 138.44L202.828 139.658H202.912C203.304 139.219 203.696 138.907 204.088 138.72C204.489 138.533 204.951 138.44 205.474 138.44C206.09 138.44 206.598 138.547 207 138.762C207.401 138.977 207.704 139.285 207.91 139.686H207.966C208.302 139.294 208.703 138.991 209.17 138.776C209.636 138.552 210.136 138.44 210.668 138.44C211.228 138.44 211.713 138.51 212.124 138.65C212.544 138.79 212.87 138.991 213.104 139.252C213.29 139.467 213.426 139.747 213.51 140.092C213.603 140.437 213.65 140.918 213.65 141.534V143.69C213.65 144.073 213.659 144.376 213.678 144.6C213.706 144.824 213.762 144.997 213.846 145.118C213.93 145.239 214.051 145.319 214.21 145.356C214.368 145.393 214.588 145.421 214.868 145.44V146H210.444V145.44C210.724 145.431 210.943 145.407 211.102 145.37C211.27 145.323 211.396 145.244 211.48 145.132C211.573 145.011 211.629 144.847 211.648 144.642C211.676 144.437 211.69 144.157 211.69 143.802V141.968C211.69 141.483 211.662 141.072 211.606 140.736C211.55 140.4 211.461 140.129 211.34 139.924C211.218 139.719 211.055 139.574 210.85 139.49C210.654 139.397 210.411 139.35 210.122 139.35C209.795 139.35 209.524 139.429 209.31 139.588C209.104 139.747 208.932 139.952 208.792 140.204C208.549 140.643 208.428 141.189 208.428 141.842V143.69C208.428 144.073 208.437 144.376 208.456 144.6C208.474 144.824 208.526 144.997 208.61 145.118C208.694 145.239 208.815 145.319 208.974 145.356C209.142 145.393 209.37 145.421 209.66 145.44V146H205.222V145.44C205.502 145.421 205.721 145.393 205.88 145.356C206.048 145.319 206.174 145.244 206.258 145.132C206.351 145.02 206.407 144.861 206.426 144.656C206.454 144.441 206.468 144.157 206.468 143.802V141.968C206.468 141.483 206.44 141.072 206.384 140.736C206.328 140.4 206.234 140.129 206.104 139.924C205.982 139.719 205.819 139.574 205.614 139.49C205.408 139.397 205.152 139.35 204.844 139.35C204.536 139.35 204.279 139.425 204.074 139.574C203.878 139.723 203.714 139.924 203.584 140.176C203.462 140.4 203.369 140.657 203.304 140.946C203.238 141.235 203.206 141.534 203.206 141.842V143.69ZM222.644 144.698C221.795 145.659 220.735 146.14 219.466 146.14C218.887 146.14 218.36 146.051 217.884 145.874C217.417 145.687 217.016 145.431 216.68 145.104C216.344 144.768 216.083 144.371 215.896 143.914C215.709 143.457 215.616 142.948 215.616 142.388C215.616 141.809 215.714 141.282 215.91 140.806C216.106 140.321 216.381 139.905 216.736 139.56C217.1 139.205 217.525 138.93 218.01 138.734C218.505 138.538 219.046 138.44 219.634 138.44C220.623 138.44 221.393 138.706 221.944 139.238C222.495 139.77 222.77 140.517 222.77 141.478C222.77 141.627 222.747 141.721 222.7 141.758C222.653 141.786 222.523 141.8 222.308 141.8H217.8C217.763 141.884 217.744 142.038 217.744 142.262C217.744 143.177 217.94 143.9 218.332 144.432C218.733 144.964 219.275 145.23 219.956 145.23C220.348 145.23 220.735 145.141 221.118 144.964C221.51 144.787 221.888 144.535 222.252 144.208L222.644 144.698ZM219.928 141.016C220.301 141.016 220.539 140.997 220.642 140.96C220.754 140.913 220.81 140.811 220.81 140.652C220.81 140.241 220.693 139.905 220.46 139.644C220.227 139.383 219.933 139.252 219.578 139.252C219.177 139.252 218.817 139.42 218.5 139.756C218.192 140.083 217.991 140.503 217.898 141.016H219.928ZM227.478 146.14H226.428L224.51 140.386C224.36 139.938 224.188 139.625 223.992 139.448C223.796 139.261 223.534 139.159 223.208 139.14V138.58H227.212V139.14C226.876 139.149 226.642 139.201 226.512 139.294C226.381 139.378 226.316 139.527 226.316 139.742C226.316 139.845 226.33 139.957 226.358 140.078C226.386 140.199 226.423 140.339 226.47 140.498L227.352 143.774H227.408L229.368 138.58H230.516L231.986 143.774H232.056L233.176 140.876C233.269 140.643 233.334 140.442 233.372 140.274C233.409 140.097 233.428 139.943 233.428 139.812C233.428 139.569 233.348 139.397 233.19 139.294C233.031 139.191 232.816 139.14 232.546 139.14V138.58H235.556V139.14C235.388 139.14 235.248 139.159 235.136 139.196C235.024 139.233 234.912 139.322 234.8 139.462C234.688 139.602 234.566 139.817 234.436 140.106C234.305 140.395 234.142 140.792 233.946 141.296L232.014 146.14H230.908L229.424 141.17H229.368L227.478 146.14ZM239.897 138.44C240.457 138.44 240.984 138.538 241.479 138.734C241.983 138.921 242.421 139.182 242.795 139.518C243.177 139.854 243.476 140.255 243.691 140.722C243.915 141.179 244.027 141.683 244.027 142.234C244.027 142.803 243.915 143.326 243.691 143.802C243.476 144.278 243.177 144.689 242.795 145.034C242.421 145.379 241.983 145.65 241.479 145.846C240.984 146.042 240.457 146.14 239.897 146.14C239.346 146.14 238.823 146.047 238.329 145.86C237.834 145.664 237.4 145.393 237.027 145.048C236.653 144.703 236.359 144.292 236.145 143.816C235.93 143.331 235.823 142.803 235.823 142.234C235.823 141.683 235.93 141.175 236.145 140.708C236.359 140.241 236.653 139.84 237.027 139.504C237.4 139.168 237.834 138.907 238.329 138.72C238.823 138.533 239.346 138.44 239.897 138.44ZM239.897 139.252C239.617 139.252 239.36 139.327 239.127 139.476C238.893 139.616 238.693 139.817 238.525 140.078C238.366 140.339 238.24 140.657 238.147 141.03C238.063 141.394 238.021 141.8 238.021 142.248C238.021 142.715 238.063 143.135 238.147 143.508C238.24 143.881 238.366 144.199 238.525 144.46C238.693 144.721 238.889 144.927 239.113 145.076C239.346 145.216 239.607 145.286 239.897 145.286C240.186 145.286 240.447 145.216 240.681 145.076C240.923 144.927 241.129 144.721 241.297 144.46C241.465 144.189 241.595 143.867 241.689 143.494C241.782 143.121 241.829 142.705 241.829 142.248C241.829 141.8 241.782 141.394 241.689 141.03C241.595 140.666 241.465 140.353 241.297 140.092C241.129 139.821 240.923 139.616 240.681 139.476C240.447 139.327 240.186 139.252 239.897 139.252ZM248.159 143.83C248.159 144.194 248.173 144.483 248.201 144.698C248.238 144.903 248.308 145.062 248.411 145.174C248.514 145.286 248.663 145.361 248.859 145.398C249.055 145.426 249.316 145.44 249.643 145.44V146H244.967V145.44C245.247 145.421 245.471 145.393 245.639 145.356C245.807 145.319 245.933 145.244 246.017 145.132C246.101 145.02 246.152 144.861 246.171 144.656C246.199 144.441 246.213 144.157 246.213 143.802V142.094C246.213 141.515 246.199 141.053 246.171 140.708C246.143 140.363 246.082 140.097 245.989 139.91C245.896 139.723 245.76 139.602 245.583 139.546C245.415 139.481 245.191 139.448 244.911 139.448V138.958L247.711 138.44L247.935 140.05H247.991C248.243 139.555 248.574 139.163 248.985 138.874C249.396 138.585 249.83 138.44 250.287 138.44C250.642 138.44 250.931 138.529 251.155 138.706C251.379 138.883 251.491 139.107 251.491 139.378C251.491 139.677 251.402 139.929 251.225 140.134C251.057 140.339 250.824 140.442 250.525 140.442C250.385 140.442 250.259 140.414 250.147 140.358C250.035 140.302 249.932 140.241 249.839 140.176C249.755 140.101 249.666 140.036 249.573 139.98C249.489 139.915 249.4 139.882 249.307 139.882C249.13 139.882 248.962 139.999 248.803 140.232C248.644 140.465 248.514 140.778 248.411 141.17C248.336 141.45 248.276 141.767 248.229 142.122C248.182 142.467 248.159 142.813 248.159 143.158V143.83ZM256.532 145.44C256.83 145.44 257.04 145.431 257.162 145.412C257.283 145.384 257.344 145.333 257.344 145.258C257.344 145.202 257.278 145.067 257.148 144.852C257.026 144.628 256.868 144.371 256.672 144.082L255.608 142.486L254.908 143.158V143.704C254.908 144.068 254.922 144.362 254.95 144.586C254.978 144.81 255.024 144.987 255.09 145.118C255.164 145.239 255.262 145.323 255.384 145.37C255.514 145.417 255.678 145.44 255.874 145.44V146H251.744V145.44C252.005 145.431 252.215 145.403 252.374 145.356C252.532 145.309 252.658 145.23 252.752 145.118C252.845 144.997 252.906 144.833 252.934 144.628C252.971 144.413 252.99 144.138 252.99 143.802V137.866C252.99 137.297 252.98 136.849 252.962 136.522C252.943 136.195 252.892 135.953 252.808 135.794C252.733 135.626 252.612 135.523 252.444 135.486C252.285 135.449 252.066 135.43 251.786 135.43V134.912L254.908 134.38V142.164L256.252 140.89C256.737 140.433 257.082 140.092 257.288 139.868C257.493 139.635 257.596 139.467 257.596 139.364C257.596 139.28 257.507 139.224 257.33 139.196C257.162 139.159 256.844 139.14 256.378 139.14V138.58H260.2V139.14C259.845 139.14 259.532 139.201 259.262 139.322C258.991 139.443 258.697 139.653 258.38 139.952L257.022 141.226L259.444 144.656C259.658 144.955 259.868 145.16 260.074 145.272C260.279 145.384 260.55 145.44 260.886 145.44V146H256.532V145.44ZM268.348 143.746C268.348 144.101 268.371 144.39 268.418 144.614C268.465 144.829 268.558 144.997 268.698 145.118C268.847 145.23 269.053 145.309 269.314 145.356C269.585 145.403 269.944 145.431 270.392 145.44V146H264.82V145.44C265.128 145.431 265.38 145.403 265.576 145.356C265.772 145.309 265.921 145.23 266.024 145.118C266.127 145.006 266.197 144.847 266.234 144.642C266.271 144.437 266.29 144.171 266.29 143.844V137.376C266.29 137.049 266.271 136.788 266.234 136.592C266.206 136.387 266.145 136.228 266.052 136.116C265.959 135.995 265.823 135.915 265.646 135.878C265.478 135.831 265.254 135.799 264.974 135.78V135.22H273.542L273.71 138.174H273.122C273.066 137.773 272.982 137.437 272.87 137.166C272.767 136.886 272.618 136.662 272.422 136.494C272.226 136.317 271.974 136.191 271.666 136.116C271.358 136.041 270.98 136.004 270.532 136.004H268.6C268.432 136.004 268.348 136.083 268.348 136.242V140.288C268.917 140.288 269.379 140.265 269.734 140.218C270.098 140.171 270.387 140.083 270.602 139.952C270.817 139.812 270.971 139.625 271.064 139.392C271.157 139.159 271.223 138.851 271.26 138.468H271.778V142.85H271.26C271.204 142.458 271.125 142.145 271.022 141.912C270.919 141.669 270.761 141.487 270.546 141.366C270.341 141.235 270.061 141.147 269.706 141.1C269.351 141.053 268.899 141.03 268.348 141.03V143.746ZM278.041 138.44C278.601 138.44 279.129 138.538 279.623 138.734C280.127 138.921 280.566 139.182 280.939 139.518C281.322 139.854 281.621 140.255 281.835 140.722C282.059 141.179 282.171 141.683 282.171 142.234C282.171 142.803 282.059 143.326 281.835 143.802C281.621 144.278 281.322 144.689 280.939 145.034C280.566 145.379 280.127 145.65 279.623 145.846C279.129 146.042 278.601 146.14 278.041 146.14C277.491 146.14 276.968 146.047 276.473 145.86C275.979 145.664 275.545 145.393 275.171 145.048C274.798 144.703 274.504 144.292 274.289 143.816C274.075 143.331 273.967 142.803 273.967 142.234C273.967 141.683 274.075 141.175 274.289 140.708C274.504 140.241 274.798 139.84 275.171 139.504C275.545 139.168 275.979 138.907 276.473 138.72C276.968 138.533 277.491 138.44 278.041 138.44ZM278.041 139.252C277.761 139.252 277.505 139.327 277.271 139.476C277.038 139.616 276.837 139.817 276.669 140.078C276.511 140.339 276.385 140.657 276.291 141.03C276.207 141.394 276.165 141.8 276.165 142.248C276.165 142.715 276.207 143.135 276.291 143.508C276.385 143.881 276.511 144.199 276.669 144.46C276.837 144.721 277.033 144.927 277.257 145.076C277.491 145.216 277.752 145.286 278.041 145.286C278.331 145.286 278.592 145.216 278.825 145.076C279.068 144.927 279.273 144.721 279.441 144.46C279.609 144.189 279.74 143.867 279.833 143.494C279.927 143.121 279.973 142.705 279.973 142.248C279.973 141.8 279.927 141.394 279.833 141.03C279.74 140.666 279.609 140.353 279.441 140.092C279.273 139.821 279.068 139.616 278.825 139.476C278.592 139.327 278.331 139.252 278.041 139.252ZM286.303 143.83C286.303 144.194 286.317 144.483 286.345 144.698C286.383 144.903 286.453 145.062 286.555 145.174C286.658 145.286 286.807 145.361 287.003 145.398C287.199 145.426 287.461 145.44 287.787 145.44V146H283.111V145.44C283.391 145.421 283.615 145.393 283.783 145.356C283.951 145.319 284.077 145.244 284.161 145.132C284.245 145.02 284.297 144.861 284.315 144.656C284.343 144.441 284.357 144.157 284.357 143.802V142.094C284.357 141.515 284.343 141.053 284.315 140.708C284.287 140.363 284.227 140.097 284.133 139.91C284.04 139.723 283.905 139.602 283.727 139.546C283.559 139.481 283.335 139.448 283.055 139.448V138.958L285.855 138.44L286.079 140.05H286.135C286.387 139.555 286.719 139.163 287.129 138.874C287.54 138.585 287.974 138.44 288.431 138.44C288.786 138.44 289.075 138.529 289.299 138.706C289.523 138.883 289.635 139.107 289.635 139.378C289.635 139.677 289.547 139.929 289.369 140.134C289.201 140.339 288.968 140.442 288.669 140.442C288.529 140.442 288.403 140.414 288.291 140.358C288.179 140.302 288.077 140.241 287.983 140.176C287.899 140.101 287.811 140.036 287.717 139.98C287.633 139.915 287.545 139.882 287.451 139.882C287.274 139.882 287.106 139.999 286.947 140.232C286.789 140.465 286.658 140.778 286.555 141.17C286.481 141.45 286.42 141.767 286.373 142.122C286.327 142.467 286.303 142.813 286.303 143.158V143.83ZM304.137 138.3H303.535C303.507 137.843 303.437 137.465 303.325 137.166C303.222 136.858 303.073 136.615 302.877 136.438C302.681 136.251 302.443 136.125 302.163 136.06C301.883 135.985 301.556 135.948 301.183 135.948C300.819 135.948 300.525 135.957 300.301 135.976C300.086 135.985 299.918 136.009 299.797 136.046C299.685 136.074 299.61 136.116 299.573 136.172C299.535 136.228 299.517 136.298 299.517 136.382V143.718C299.517 144.017 299.535 144.273 299.573 144.488C299.619 144.703 299.708 144.88 299.839 145.02C299.969 145.151 300.161 145.253 300.413 145.328C300.665 145.393 300.996 145.431 301.407 145.44V146H295.541V145.44C295.961 145.431 296.297 145.393 296.549 145.328C296.801 145.253 296.992 145.151 297.123 145.02C297.263 144.88 297.351 144.703 297.389 144.488C297.435 144.273 297.459 144.017 297.459 143.718V136.382C297.459 136.298 297.44 136.228 297.403 136.172C297.375 136.116 297.309 136.074 297.207 136.046C297.104 136.009 296.955 135.985 296.759 135.976C296.572 135.957 296.325 135.948 296.017 135.948C295.681 135.948 295.359 135.967 295.051 136.004C294.743 136.032 294.472 136.125 294.239 136.284C294.005 136.433 293.814 136.667 293.665 136.984C293.525 137.292 293.45 137.731 293.441 138.3H292.895L293.035 135.22H303.997L304.137 138.3ZM307.481 143.83C307.481 144.194 307.495 144.483 307.523 144.698C307.56 144.903 307.63 145.062 307.733 145.174C307.836 145.286 307.985 145.361 308.181 145.398C308.377 145.426 308.638 145.44 308.965 145.44V146H304.289V145.44C304.569 145.421 304.793 145.393 304.961 145.356C305.129 145.319 305.255 145.244 305.339 145.132C305.423 145.02 305.474 144.861 305.493 144.656C305.521 144.441 305.535 144.157 305.535 143.802V142.094C305.535 141.515 305.521 141.053 305.493 140.708C305.465 140.363 305.404 140.097 305.311 139.91C305.218 139.723 305.082 139.602 304.905 139.546C304.737 139.481 304.513 139.448 304.233 139.448V138.958L307.033 138.44L307.257 140.05H307.313C307.565 139.555 307.896 139.163 308.307 138.874C308.718 138.585 309.152 138.44 309.609 138.44C309.964 138.44 310.253 138.529 310.477 138.706C310.701 138.883 310.813 139.107 310.813 139.378C310.813 139.677 310.724 139.929 310.547 140.134C310.379 140.339 310.146 140.442 309.847 140.442C309.707 140.442 309.581 140.414 309.469 140.358C309.357 140.302 309.254 140.241 309.161 140.176C309.077 140.101 308.988 140.036 308.895 139.98C308.811 139.915 308.722 139.882 308.629 139.882C308.452 139.882 308.284 139.999 308.125 140.232C307.966 140.465 307.836 140.778 307.733 141.17C307.658 141.45 307.598 141.767 307.551 142.122C307.504 142.467 307.481 142.813 307.481 143.158V143.83ZM315.658 142.01C314.874 142.365 314.281 142.696 313.88 143.004C313.488 143.303 313.292 143.615 313.292 143.942C313.292 144.213 313.366 144.427 313.516 144.586C313.665 144.745 313.852 144.824 314.076 144.824C314.3 144.824 314.51 144.787 314.706 144.712C314.902 144.628 315.07 144.521 315.21 144.39C315.35 144.259 315.457 144.105 315.532 143.928C315.616 143.741 315.658 143.545 315.658 143.34V142.01ZM315.658 141.268V140.68C315.658 140.139 315.56 139.747 315.364 139.504C315.177 139.252 314.883 139.126 314.482 139.126C314.211 139.126 314.006 139.201 313.866 139.35C313.726 139.49 313.595 139.728 313.474 140.064C313.39 140.297 313.268 140.479 313.11 140.61C312.96 140.741 312.75 140.806 312.48 140.806C312.218 140.806 312.018 140.727 311.878 140.568C311.738 140.409 311.668 140.185 311.668 139.896C311.668 139.448 311.91 139.093 312.396 138.832C312.89 138.571 313.632 138.44 314.622 138.44C315.667 138.44 316.414 138.631 316.862 139.014C317.31 139.387 317.534 140.017 317.534 140.904V143.97C317.534 144.763 317.692 145.16 318.01 145.16C318.187 145.16 318.35 145.099 318.5 144.978L318.71 145.384C318.579 145.617 318.374 145.804 318.094 145.944C317.823 146.075 317.515 146.14 317.17 146.14C316.74 146.14 316.414 146.009 316.19 145.748C315.966 145.487 315.854 145.118 315.854 144.642H315.784C315.513 145.127 315.163 145.496 314.734 145.748C314.304 146 313.814 146.126 313.264 146.126C312.676 146.126 312.204 145.963 311.85 145.636C311.495 145.3 311.318 144.866 311.318 144.334C311.318 143.923 311.5 143.541 311.864 143.186C312.228 142.822 312.834 142.467 313.684 142.122L315.658 141.268ZM322.479 143.704C322.479 144.077 322.493 144.376 322.521 144.6C322.549 144.824 322.605 144.997 322.689 145.118C322.773 145.239 322.894 145.323 323.053 145.37C323.212 145.407 323.426 145.431 323.697 145.44V146H319.287V145.44C319.548 145.431 319.758 145.403 319.917 145.356C320.085 145.3 320.211 145.216 320.295 145.104C320.388 144.983 320.449 144.819 320.477 144.614C320.514 144.399 320.533 144.129 320.533 143.802V142.08C320.533 141.539 320.524 141.095 320.505 140.75C320.486 140.395 320.463 140.153 320.435 140.022C320.388 139.789 320.281 139.635 320.113 139.56C319.954 139.485 319.66 139.448 319.231 139.448V138.972L322.479 138.44V143.704ZM320.421 135.472C320.421 135.164 320.524 134.907 320.729 134.702C320.944 134.487 321.2 134.38 321.499 134.38C321.807 134.38 322.064 134.487 322.269 134.702C322.484 134.907 322.591 135.164 322.591 135.472C322.591 135.771 322.484 136.027 322.269 136.242C322.064 136.447 321.807 136.55 321.499 136.55C321.2 136.55 320.944 136.447 320.729 136.242C320.524 136.027 320.421 135.771 320.421 135.472ZM327.537 143.718C327.537 144.101 327.547 144.404 327.565 144.628C327.593 144.843 327.645 145.011 327.719 145.132C327.803 145.244 327.925 145.319 328.083 145.356C328.251 145.393 328.475 145.421 328.755 145.44V146H324.345V145.44C324.616 145.421 324.831 145.393 324.989 145.356C325.157 145.319 325.283 145.244 325.367 145.132C325.461 145.02 325.521 144.861 325.549 144.656C325.577 144.451 325.591 144.171 325.591 143.816V142.066C325.591 141.515 325.582 141.072 325.563 140.736C325.545 140.391 325.521 140.157 325.493 140.036C325.465 139.915 325.428 139.817 325.381 139.742C325.335 139.658 325.265 139.597 325.171 139.56C325.078 139.513 324.961 139.485 324.821 139.476C324.681 139.457 324.504 139.448 324.289 139.448V138.972L326.991 138.44L327.173 139.672H327.229C327.537 139.28 327.901 138.977 328.321 138.762C328.741 138.547 329.203 138.44 329.707 138.44C330.305 138.44 330.785 138.524 331.149 138.692C331.523 138.851 331.854 139.121 332.143 139.504C332.302 139.719 332.442 139.999 332.563 140.344C332.685 140.68 332.745 141.147 332.745 141.744V143.718C332.745 144.101 332.755 144.404 332.773 144.628C332.801 144.843 332.853 145.011 332.927 145.132C333.011 145.244 333.133 145.319 333.291 145.356C333.45 145.393 333.665 145.421 333.935 145.44V146H329.553V145.44C329.833 145.431 330.053 145.407 330.211 145.37C330.379 145.323 330.505 145.244 330.589 145.132C330.673 145.02 330.729 144.861 330.757 144.656C330.785 144.441 330.799 144.161 330.799 143.816V141.912C330.799 141.436 330.771 141.035 330.715 140.708C330.659 140.381 330.566 140.12 330.435 139.924C330.314 139.719 330.151 139.574 329.945 139.49C329.74 139.397 329.483 139.35 329.175 139.35C328.877 139.35 328.62 139.434 328.405 139.602C328.191 139.77 328.004 140.003 327.845 140.302C327.761 140.47 327.687 140.689 327.621 140.96C327.565 141.221 327.537 141.497 327.537 141.786V143.718ZM337.709 143.704C337.709 144.077 337.723 144.376 337.751 144.6C337.779 144.824 337.835 144.997 337.919 145.118C338.003 145.239 338.125 145.323 338.283 145.37C338.442 145.407 338.657 145.431 338.927 145.44V146H334.517V145.44C334.779 145.431 334.989 145.403 335.147 145.356C335.315 145.3 335.441 145.216 335.525 145.104C335.619 144.983 335.679 144.819 335.707 144.614C335.745 144.399 335.763 144.129 335.763 143.802V142.08C335.763 141.539 335.754 141.095 335.735 140.75C335.717 140.395 335.693 140.153 335.665 140.022C335.619 139.789 335.511 139.635 335.343 139.56C335.185 139.485 334.891 139.448 334.461 139.448V138.972L337.709 138.44V143.704ZM335.651 135.472C335.651 135.164 335.754 134.907 335.959 134.702C336.174 134.487 336.431 134.38 336.729 134.38C337.037 134.38 337.294 134.487 337.499 134.702C337.714 134.907 337.821 135.164 337.821 135.472C337.821 135.771 337.714 136.027 337.499 136.242C337.294 136.447 337.037 136.55 336.729 136.55C336.431 136.55 336.174 136.447 335.959 136.242C335.754 136.027 335.651 135.771 335.651 135.472ZM342.768 143.718C342.768 144.101 342.777 144.404 342.796 144.628C342.824 144.843 342.875 145.011 342.95 145.132C343.034 145.244 343.155 145.319 343.314 145.356C343.482 145.393 343.706 145.421 343.986 145.44V146H339.576V145.44C339.847 145.421 340.061 145.393 340.22 145.356C340.388 145.319 340.514 145.244 340.598 145.132C340.691 145.02 340.752 144.861 340.78 144.656C340.808 144.451 340.822 144.171 340.822 143.816V142.066C340.822 141.515 340.813 141.072 340.794 140.736C340.775 140.391 340.752 140.157 340.724 140.036C340.696 139.915 340.659 139.817 340.612 139.742C340.565 139.658 340.495 139.597 340.402 139.56C340.309 139.513 340.192 139.485 340.052 139.476C339.912 139.457 339.735 139.448 339.52 139.448V138.972L342.222 138.44L342.404 139.672H342.46C342.768 139.28 343.132 138.977 343.552 138.762C343.972 138.547 344.434 138.44 344.938 138.44C345.535 138.44 346.016 138.524 346.38 138.692C346.753 138.851 347.085 139.121 347.374 139.504C347.533 139.719 347.673 139.999 347.794 140.344C347.915 140.68 347.976 141.147 347.976 141.744V143.718C347.976 144.101 347.985 144.404 348.004 144.628C348.032 144.843 348.083 145.011 348.158 145.132C348.242 145.244 348.363 145.319 348.522 145.356C348.681 145.393 348.895 145.421 349.166 145.44V146H344.784V145.44C345.064 145.431 345.283 145.407 345.442 145.37C345.61 145.323 345.736 145.244 345.82 145.132C345.904 145.02 345.96 144.861 345.988 144.656C346.016 144.441 346.03 144.161 346.03 143.816V141.912C346.03 141.436 346.002 141.035 345.946 140.708C345.89 140.381 345.797 140.12 345.666 139.924C345.545 139.719 345.381 139.574 345.176 139.49C344.971 139.397 344.714 139.35 344.406 139.35C344.107 139.35 343.851 139.434 343.636 139.602C343.421 139.77 343.235 140.003 343.076 140.302C342.992 140.47 342.917 140.689 342.852 140.96C342.796 141.221 342.768 141.497 342.768 141.786V143.718ZM352.534 144.488C352.786 144.507 353.005 144.525 353.192 144.544C353.388 144.563 353.57 144.586 353.738 144.614C353.915 144.633 354.088 144.656 354.256 144.684C354.433 144.703 354.62 144.726 354.816 144.754C355.544 144.857 356.113 145.132 356.524 145.58C356.944 146.019 357.154 146.565 357.154 147.218C357.154 148.011 356.827 148.613 356.174 149.024C355.52 149.435 354.559 149.64 353.29 149.64C352.123 149.64 351.222 149.467 350.588 149.122C349.962 148.786 349.65 148.305 349.65 147.68C349.65 147.195 349.776 146.826 350.028 146.574C350.28 146.331 350.597 146.21 350.98 146.21C351.222 146.21 351.456 146.257 351.68 146.35C351.913 146.453 352.109 146.597 352.268 146.784C352.025 146.831 351.824 146.938 351.666 147.106C351.516 147.283 351.442 147.489 351.442 147.722C351.442 148.095 351.605 148.38 351.932 148.576C352.268 148.781 352.758 148.884 353.402 148.884C354.802 148.884 355.502 148.441 355.502 147.554C355.502 147.237 355.394 146.961 355.18 146.728C354.974 146.504 354.676 146.369 354.284 146.322L351.834 145.986C350.798 145.846 350.28 145.384 350.28 144.6C350.28 144.217 350.401 143.905 350.644 143.662C350.896 143.419 351.25 143.251 351.708 143.158V143.102C351.493 143.018 351.297 142.901 351.12 142.752C350.952 142.603 350.802 142.43 350.672 142.234C350.541 142.038 350.438 141.828 350.364 141.604C350.298 141.371 350.266 141.133 350.266 140.89C350.266 140.545 350.336 140.223 350.476 139.924C350.625 139.616 350.826 139.355 351.078 139.14C351.339 138.925 351.642 138.757 351.988 138.636C352.342 138.505 352.725 138.44 353.136 138.44C353.537 138.44 353.929 138.501 354.312 138.622C354.694 138.743 355.021 138.911 355.292 139.126C355.506 138.995 355.693 138.888 355.852 138.804C356.01 138.711 356.155 138.641 356.286 138.594C356.426 138.538 356.552 138.501 356.664 138.482C356.776 138.454 356.888 138.44 357 138.44C357.354 138.44 357.639 138.519 357.854 138.678C358.078 138.837 358.19 139.047 358.19 139.308C358.19 139.504 358.129 139.667 358.008 139.798C357.886 139.919 357.728 139.98 357.532 139.98C357.392 139.98 357.28 139.952 357.196 139.896C357.112 139.831 357.028 139.761 356.944 139.686C356.869 139.602 356.79 139.532 356.706 139.476C356.622 139.411 356.51 139.378 356.37 139.378C356.174 139.378 355.987 139.504 355.81 139.756C355.903 139.915 355.968 140.087 356.006 140.274C356.043 140.451 356.062 140.661 356.062 140.904C356.062 141.259 356.006 141.585 355.894 141.884C355.782 142.183 355.604 142.449 355.362 142.682C355.128 142.906 354.825 143.097 354.452 143.256C354.078 143.415 353.626 143.522 353.094 143.578C352.646 143.625 352.333 143.685 352.156 143.76C351.988 143.835 351.904 143.947 351.904 144.096C351.904 144.32 352.114 144.451 352.534 144.488ZM353.206 142.78C353.504 142.78 353.738 142.621 353.906 142.304C354.074 141.987 354.158 141.543 354.158 140.974C354.158 140.395 354.074 139.952 353.906 139.644C353.738 139.327 353.5 139.168 353.192 139.168C352.874 139.168 352.622 139.327 352.436 139.644C352.249 139.961 352.156 140.395 352.156 140.946C352.156 141.506 352.249 141.954 352.436 142.29C352.632 142.617 352.888 142.78 353.206 142.78ZM369.589 143.382L372.823 135.22H376.911V135.78C376.603 135.78 376.351 135.813 376.155 135.878C375.968 135.934 375.824 136.041 375.721 136.2C375.618 136.359 375.548 136.578 375.511 136.858C375.483 137.129 375.469 137.474 375.469 137.894V143.326C375.469 143.793 375.488 144.161 375.525 144.432C375.562 144.703 375.637 144.913 375.749 145.062C375.861 145.211 376.02 145.309 376.225 145.356C376.44 145.403 376.72 145.431 377.065 145.44V146H371.801V145.44C372.146 145.431 372.422 145.403 372.627 145.356C372.842 145.3 373.005 145.202 373.117 145.062C373.238 144.922 373.318 144.726 373.355 144.474C373.392 144.213 373.411 143.863 373.411 143.424V136.872H373.341L369.575 146.14H368.539L364.647 136.872H364.591V143.326C364.591 143.793 364.61 144.161 364.647 144.432C364.684 144.703 364.759 144.913 364.871 145.062C364.983 145.211 365.142 145.309 365.347 145.356C365.562 145.403 365.842 145.431 366.187 145.44V146H361.875V145.44C362.22 145.431 362.5 145.403 362.715 145.356C362.93 145.3 363.093 145.202 363.205 145.062C363.326 144.922 363.406 144.726 363.443 144.474C363.48 144.213 363.499 143.863 363.499 143.424V137.796C363.499 137.404 363.48 137.077 363.443 136.816C363.406 136.555 363.336 136.349 363.233 136.2C363.13 136.041 362.981 135.934 362.785 135.878C362.598 135.813 362.346 135.78 362.029 135.78V135.22H366.271L369.533 143.382H369.589ZM382.295 142.01C381.511 142.365 380.918 142.696 380.517 143.004C380.125 143.303 379.929 143.615 379.929 143.942C379.929 144.213 380.003 144.427 380.153 144.586C380.302 144.745 380.489 144.824 380.713 144.824C380.937 144.824 381.147 144.787 381.343 144.712C381.539 144.628 381.707 144.521 381.847 144.39C381.987 144.259 382.094 144.105 382.169 143.928C382.253 143.741 382.295 143.545 382.295 143.34V142.01ZM382.295 141.268V140.68C382.295 140.139 382.197 139.747 382.001 139.504C381.814 139.252 381.52 139.126 381.119 139.126C380.848 139.126 380.643 139.201 380.503 139.35C380.363 139.49 380.232 139.728 380.111 140.064C380.027 140.297 379.905 140.479 379.747 140.61C379.597 140.741 379.387 140.806 379.117 140.806C378.855 140.806 378.655 140.727 378.515 140.568C378.375 140.409 378.305 140.185 378.305 139.896C378.305 139.448 378.547 139.093 379.033 138.832C379.527 138.571 380.269 138.44 381.259 138.44C382.304 138.44 383.051 138.631 383.499 139.014C383.947 139.387 384.171 140.017 384.171 140.904V143.97C384.171 144.763 384.329 145.16 384.647 145.16C384.824 145.16 384.987 145.099 385.137 144.978L385.347 145.384C385.216 145.617 385.011 145.804 384.731 145.944C384.46 146.075 384.152 146.14 383.807 146.14C383.377 146.14 383.051 146.009 382.827 145.748C382.603 145.487 382.491 145.118 382.491 144.642H382.421C382.15 145.127 381.8 145.496 381.371 145.748C380.941 146 380.451 146.126 379.901 146.126C379.313 146.126 378.841 145.963 378.487 145.636C378.132 145.3 377.955 144.866 377.955 144.334C377.955 143.923 378.137 143.541 378.501 143.186C378.865 142.822 379.471 142.467 380.321 142.122L382.295 141.268ZM392.91 144.838C392.555 145.23 392.112 145.533 391.58 145.748C391.057 145.963 390.488 146.07 389.872 146.07C389.302 146.07 388.784 145.981 388.318 145.804C387.851 145.617 387.45 145.361 387.114 145.034C386.778 144.707 386.516 144.315 386.33 143.858C386.152 143.391 386.064 142.878 386.064 142.318C386.064 141.739 386.162 141.212 386.358 140.736C386.554 140.26 386.829 139.854 387.184 139.518C387.538 139.173 387.963 138.907 388.458 138.72C388.952 138.533 389.498 138.44 390.096 138.44C390.516 138.44 390.903 138.482 391.258 138.566C391.622 138.65 391.93 138.767 392.182 138.916C392.443 139.065 392.648 139.243 392.798 139.448C392.947 139.644 393.022 139.859 393.022 140.092C393.022 140.363 392.942 140.577 392.784 140.736C392.634 140.895 392.429 140.974 392.168 140.974C391.953 140.974 391.762 140.918 391.594 140.806C391.435 140.694 391.276 140.512 391.118 140.26C390.978 140.036 390.856 139.859 390.754 139.728C390.66 139.597 390.572 139.499 390.488 139.434C390.404 139.359 390.32 139.313 390.236 139.294C390.152 139.266 390.049 139.252 389.928 139.252C389.386 139.252 388.966 139.504 388.668 140.008C388.369 140.512 388.22 141.217 388.22 142.122C388.22 143.093 388.397 143.839 388.752 144.362C389.116 144.885 389.634 145.146 390.306 145.146C390.688 145.146 391.071 145.076 391.454 144.936C391.836 144.787 392.2 144.577 392.546 144.306L392.91 144.838ZM396.836 143.704C396.836 144.087 396.845 144.39 396.864 144.614C396.892 144.829 396.943 144.997 397.018 145.118C397.102 145.239 397.223 145.319 397.382 145.356C397.55 145.393 397.774 145.421 398.054 145.44V146H393.644V145.44C393.924 145.421 394.148 145.393 394.316 145.356C394.484 145.319 394.61 145.244 394.694 145.132C394.778 145.02 394.829 144.861 394.848 144.656C394.876 144.441 394.89 144.157 394.89 143.802V138.048C394.89 137.488 394.881 137.049 394.862 136.732C394.853 136.405 394.829 136.158 394.792 135.99C394.764 135.869 394.731 135.775 394.694 135.71C394.657 135.635 394.596 135.579 394.512 135.542C394.437 135.495 394.33 135.467 394.19 135.458C394.059 135.439 393.891 135.43 393.686 135.43V134.912L396.808 134.38V139.546H396.864C397.153 139.163 397.475 138.883 397.83 138.706C398.194 138.529 398.628 138.44 399.132 138.44C400.047 138.44 400.756 138.72 401.26 139.28C401.503 139.56 401.694 139.901 401.834 140.302C401.974 140.694 402.044 141.105 402.044 141.534V143.704C402.044 144.096 402.053 144.404 402.072 144.628C402.091 144.843 402.137 145.011 402.212 145.132C402.296 145.244 402.417 145.319 402.576 145.356C402.735 145.393 402.954 145.421 403.234 145.44V146H398.852V145.44C399.132 145.431 399.351 145.407 399.51 145.37C399.678 145.323 399.804 145.244 399.888 145.132C399.981 145.02 400.037 144.861 400.056 144.656C400.084 144.441 400.098 144.157 400.098 143.802V142.08C400.098 141.091 399.991 140.391 399.776 139.98C399.561 139.569 399.193 139.364 398.67 139.364C398.11 139.364 397.667 139.569 397.34 139.98C397.181 140.195 397.055 140.461 396.962 140.778C396.878 141.095 396.836 141.45 396.836 141.842V143.704ZM407.012 143.704C407.012 144.077 407.026 144.376 407.054 144.6C407.082 144.824 407.138 144.997 407.222 145.118C407.306 145.239 407.427 145.323 407.586 145.37C407.745 145.407 407.959 145.431 408.23 145.44V146H403.82V145.44C404.081 145.431 404.291 145.403 404.45 145.356C404.618 145.3 404.744 145.216 404.828 145.104C404.921 144.983 404.982 144.819 405.01 144.614C405.047 144.399 405.066 144.129 405.066 143.802V142.08C405.066 141.539 405.057 141.095 405.038 140.75C405.019 140.395 404.996 140.153 404.968 140.022C404.921 139.789 404.814 139.635 404.646 139.56C404.487 139.485 404.193 139.448 403.764 139.448V138.972L407.012 138.44V143.704ZM404.954 135.472C404.954 135.164 405.057 134.907 405.262 134.702C405.477 134.487 405.733 134.38 406.032 134.38C406.34 134.38 406.597 134.487 406.802 134.702C407.017 134.907 407.124 135.164 407.124 135.472C407.124 135.771 407.017 136.027 406.802 136.242C406.597 136.447 406.34 136.55 406.032 136.55C405.733 136.55 405.477 136.447 405.262 136.242C405.057 136.027 404.954 135.771 404.954 135.472ZM412.071 143.718C412.071 144.101 412.08 144.404 412.099 144.628C412.127 144.843 412.178 145.011 412.253 145.132C412.337 145.244 412.458 145.319 412.617 145.356C412.785 145.393 413.009 145.421 413.289 145.44V146H408.879V145.44C409.149 145.421 409.364 145.393 409.523 145.356C409.691 145.319 409.817 145.244 409.901 145.132C409.994 145.02 410.055 144.861 410.083 144.656C410.111 144.451 410.125 144.171 410.125 143.816V142.066C410.125 141.515 410.115 141.072 410.097 140.736C410.078 140.391 410.055 140.157 410.027 140.036C409.999 139.915 409.961 139.817 409.915 139.742C409.868 139.658 409.798 139.597 409.705 139.56C409.611 139.513 409.495 139.485 409.355 139.476C409.215 139.457 409.037 139.448 408.823 139.448V138.972L411.525 138.44L411.707 139.672H411.763C412.071 139.28 412.435 138.977 412.855 138.762C413.275 138.547 413.737 138.44 414.241 138.44C414.838 138.44 415.319 138.524 415.683 138.692C416.056 138.851 416.387 139.121 416.677 139.504C416.835 139.719 416.975 139.999 417.097 140.344C417.218 140.68 417.279 141.147 417.279 141.744V143.718C417.279 144.101 417.288 144.404 417.307 144.628C417.335 144.843 417.386 145.011 417.461 145.132C417.545 145.244 417.666 145.319 417.825 145.356C417.983 145.393 418.198 145.421 418.469 145.44V146H414.087V145.44C414.367 145.431 414.586 145.407 414.745 145.37C414.913 145.323 415.039 145.244 415.123 145.132C415.207 145.02 415.263 144.861 415.291 144.656C415.319 144.441 415.333 144.161 415.333 143.816V141.912C415.333 141.436 415.305 141.035 415.249 140.708C415.193 140.381 415.099 140.12 414.969 139.924C414.847 139.719 414.684 139.574 414.479 139.49C414.273 139.397 414.017 139.35 413.709 139.35C413.41 139.35 413.153 139.434 412.939 139.602C412.724 139.77 412.537 140.003 412.379 140.302C412.295 140.47 412.22 140.689 412.155 140.96C412.099 141.221 412.071 141.497 412.071 141.786V143.718ZM426.205 144.698C425.355 145.659 424.296 146.14 423.027 146.14C422.448 146.14 421.921 146.051 421.445 145.874C420.978 145.687 420.577 145.431 420.241 145.104C419.905 144.768 419.643 144.371 419.457 143.914C419.27 143.457 419.177 142.948 419.177 142.388C419.177 141.809 419.275 141.282 419.471 140.806C419.667 140.321 419.942 139.905 420.297 139.56C420.661 139.205 421.085 138.93 421.571 138.734C422.065 138.538 422.607 138.44 423.195 138.44C424.184 138.44 424.954 138.706 425.505 139.238C426.055 139.77 426.331 140.517 426.331 141.478C426.331 141.627 426.307 141.721 426.261 141.758C426.214 141.786 426.083 141.8 425.869 141.8H421.361C421.323 141.884 421.305 142.038 421.305 142.262C421.305 143.177 421.501 143.9 421.893 144.432C422.294 144.964 422.835 145.23 423.517 145.23C423.909 145.23 424.296 145.141 424.679 144.964C425.071 144.787 425.449 144.535 425.813 144.208L426.205 144.698ZM423.489 141.016C423.862 141.016 424.1 140.997 424.203 140.96C424.315 140.913 424.371 140.811 424.371 140.652C424.371 140.241 424.254 139.905 424.021 139.644C423.787 139.383 423.493 139.252 423.139 139.252C422.737 139.252 422.378 139.42 422.061 139.756C421.753 140.083 421.552 140.503 421.459 141.016H423.489ZM170.867 163H161.221V162.44C161.529 162.431 161.781 162.403 161.977 162.356C162.173 162.309 162.323 162.23 162.425 162.118C162.528 162.006 162.598 161.847 162.635 161.642C162.673 161.437 162.691 161.171 162.691 160.844V154.376C162.691 154.049 162.673 153.788 162.635 153.592C162.607 153.387 162.547 153.228 162.453 153.116C162.36 152.995 162.225 152.915 162.047 152.878C161.879 152.831 161.655 152.799 161.375 152.78V152.22H166.205V152.78C165.888 152.789 165.631 152.817 165.435 152.864C165.249 152.911 165.104 152.995 165.001 153.116C164.899 153.237 164.829 153.405 164.791 153.62C164.763 153.835 164.749 154.119 164.749 154.474V160.34C164.749 160.732 164.787 161.054 164.861 161.306C164.945 161.549 165.085 161.74 165.281 161.88C165.477 162.011 165.739 162.104 166.065 162.16C166.392 162.207 166.798 162.23 167.283 162.23C167.825 162.23 168.277 162.197 168.641 162.132C169.005 162.067 169.309 161.945 169.551 161.768C169.803 161.581 170.004 161.334 170.153 161.026C170.303 160.718 170.429 160.317 170.531 159.822H171.091L170.867 163ZM178.86 161.698C178.01 162.659 176.951 163.14 175.682 163.14C175.103 163.14 174.576 163.051 174.1 162.874C173.633 162.687 173.232 162.431 172.896 162.104C172.56 161.768 172.298 161.371 172.112 160.914C171.925 160.457 171.832 159.948 171.832 159.388C171.832 158.809 171.93 158.282 172.126 157.806C172.322 157.321 172.597 156.905 172.952 156.56C173.316 156.205 173.74 155.93 174.226 155.734C174.72 155.538 175.262 155.44 175.85 155.44C176.839 155.44 177.609 155.706 178.16 156.238C178.71 156.77 178.986 157.517 178.986 158.478C178.986 158.627 178.962 158.721 178.916 158.758C178.869 158.786 178.738 158.8 178.524 158.8H174.016C173.978 158.884 173.96 159.038 173.96 159.262C173.96 160.177 174.156 160.9 174.548 161.432C174.949 161.964 175.49 162.23 176.172 162.23C176.564 162.23 176.951 162.141 177.334 161.964C177.726 161.787 178.104 161.535 178.468 161.208L178.86 161.698ZM176.144 158.016C176.517 158.016 176.755 157.997 176.858 157.96C176.97 157.913 177.026 157.811 177.026 157.652C177.026 157.241 176.909 156.905 176.676 156.644C176.442 156.383 176.148 156.252 175.794 156.252C175.392 156.252 175.033 156.42 174.716 156.756C174.408 157.083 174.207 157.503 174.114 158.016H176.144ZM184.305 159.01C183.521 159.365 182.929 159.696 182.527 160.004C182.135 160.303 181.939 160.615 181.939 160.942C181.939 161.213 182.014 161.427 182.163 161.586C182.313 161.745 182.499 161.824 182.723 161.824C182.947 161.824 183.157 161.787 183.353 161.712C183.549 161.628 183.717 161.521 183.857 161.39C183.997 161.259 184.105 161.105 184.179 160.928C184.263 160.741 184.305 160.545 184.305 160.34V159.01ZM184.305 158.268V157.68C184.305 157.139 184.207 156.747 184.011 156.504C183.825 156.252 183.531 156.126 183.129 156.126C182.859 156.126 182.653 156.201 182.513 156.35C182.373 156.49 182.243 156.728 182.121 157.064C182.037 157.297 181.916 157.479 181.757 157.61C181.608 157.741 181.398 157.806 181.127 157.806C180.866 157.806 180.665 157.727 180.525 157.568C180.385 157.409 180.315 157.185 180.315 156.896C180.315 156.448 180.558 156.093 181.043 155.832C181.538 155.571 182.28 155.44 183.269 155.44C184.315 155.44 185.061 155.631 185.509 156.014C185.957 156.387 186.181 157.017 186.181 157.904V160.97C186.181 161.763 186.34 162.16 186.657 162.16C186.835 162.16 186.998 162.099 187.147 161.978L187.357 162.384C187.227 162.617 187.021 162.804 186.741 162.944C186.471 163.075 186.163 163.14 185.817 163.14C185.388 163.14 185.061 163.009 184.837 162.748C184.613 162.487 184.501 162.118 184.501 161.642H184.431C184.161 162.127 183.811 162.496 183.381 162.748C182.952 163 182.462 163.126 181.911 163.126C181.323 163.126 180.852 162.963 180.497 162.636C180.143 162.3 179.965 161.866 179.965 161.334C179.965 160.923 180.147 160.541 180.511 160.186C180.875 159.822 181.482 159.467 182.331 159.122L184.305 158.268ZM191.14 160.83C191.14 161.194 191.154 161.483 191.182 161.698C191.22 161.903 191.29 162.062 191.392 162.174C191.495 162.286 191.644 162.361 191.84 162.398C192.036 162.426 192.298 162.44 192.624 162.44V163H187.948V162.44C188.228 162.421 188.452 162.393 188.62 162.356C188.788 162.319 188.914 162.244 188.998 162.132C189.082 162.02 189.134 161.861 189.152 161.656C189.18 161.441 189.194 161.157 189.194 160.802V159.094C189.194 158.515 189.18 158.053 189.152 157.708C189.124 157.363 189.064 157.097 188.97 156.91C188.877 156.723 188.742 156.602 188.564 156.546C188.396 156.481 188.172 156.448 187.892 156.448V155.958L190.692 155.44L190.916 157.05H190.972C191.224 156.555 191.556 156.163 191.966 155.874C192.377 155.585 192.811 155.44 193.268 155.44C193.623 155.44 193.912 155.529 194.136 155.706C194.36 155.883 194.472 156.107 194.472 156.378C194.472 156.677 194.384 156.929 194.206 157.134C194.038 157.339 193.805 157.442 193.506 157.442C193.366 157.442 193.24 157.414 193.128 157.358C193.016 157.302 192.914 157.241 192.82 157.176C192.736 157.101 192.648 157.036 192.554 156.98C192.47 156.915 192.382 156.882 192.288 156.882C192.111 156.882 191.943 156.999 191.784 157.232C191.626 157.465 191.495 157.778 191.392 158.17C191.318 158.45 191.257 158.767 191.21 159.122C191.164 159.467 191.14 159.813 191.14 160.158V160.83ZM198.099 160.718C198.099 161.101 198.108 161.404 198.127 161.628C198.155 161.843 198.206 162.011 198.281 162.132C198.365 162.244 198.486 162.319 198.645 162.356C198.813 162.393 199.037 162.421 199.317 162.44V163H194.907V162.44C195.178 162.421 195.392 162.393 195.551 162.356C195.719 162.319 195.845 162.244 195.929 162.132C196.022 162.02 196.083 161.861 196.111 161.656C196.139 161.451 196.153 161.171 196.153 160.816V159.066C196.153 158.515 196.144 158.072 196.125 157.736C196.106 157.391 196.083 157.157 196.055 157.036C196.027 156.915 195.99 156.817 195.943 156.742C195.896 156.658 195.826 156.597 195.733 156.56C195.64 156.513 195.523 156.485 195.383 156.476C195.243 156.457 195.066 156.448 194.851 156.448V155.972L197.553 155.44L197.735 156.672H197.791C198.099 156.28 198.463 155.977 198.883 155.762C199.303 155.547 199.765 155.44 200.269 155.44C200.866 155.44 201.347 155.524 201.711 155.692C202.084 155.851 202.416 156.121 202.705 156.504C202.864 156.719 203.004 156.999 203.125 157.344C203.246 157.68 203.307 158.147 203.307 158.744V160.718C203.307 161.101 203.316 161.404 203.335 161.628C203.363 161.843 203.414 162.011 203.489 162.132C203.573 162.244 203.694 162.319 203.853 162.356C204.012 162.393 204.226 162.421 204.497 162.44V163H200.115V162.44C200.395 162.431 200.614 162.407 200.773 162.37C200.941 162.323 201.067 162.244 201.151 162.132C201.235 162.02 201.291 161.861 201.319 161.656C201.347 161.441 201.361 161.161 201.361 160.816V158.912C201.361 158.436 201.333 158.035 201.277 157.708C201.221 157.381 201.128 157.12 200.997 156.924C200.876 156.719 200.712 156.574 200.507 156.49C200.302 156.397 200.045 156.35 199.737 156.35C199.438 156.35 199.182 156.434 198.967 156.602C198.752 156.77 198.566 157.003 198.407 157.302C198.323 157.47 198.248 157.689 198.183 157.96C198.127 158.221 198.099 158.497 198.099 158.786V160.718ZM208.271 160.704C208.271 161.077 208.285 161.376 208.313 161.6C208.341 161.824 208.397 161.997 208.481 162.118C208.565 162.239 208.686 162.323 208.845 162.37C209.004 162.407 209.218 162.431 209.489 162.44V163H205.079V162.44C205.34 162.431 205.55 162.403 205.709 162.356C205.877 162.3 206.003 162.216 206.087 162.104C206.18 161.983 206.241 161.819 206.269 161.614C206.306 161.399 206.325 161.129 206.325 160.802V159.08C206.325 158.539 206.316 158.095 206.297 157.75C206.278 157.395 206.255 157.153 206.227 157.022C206.18 156.789 206.073 156.635 205.905 156.56C205.746 156.485 205.452 156.448 205.023 156.448V155.972L208.271 155.44V160.704ZM206.213 152.472C206.213 152.164 206.316 151.907 206.521 151.702C206.736 151.487 206.992 151.38 207.291 151.38C207.599 151.38 207.856 151.487 208.061 151.702C208.276 151.907 208.383 152.164 208.383 152.472C208.383 152.771 208.276 153.027 208.061 153.242C207.856 153.447 207.599 153.55 207.291 153.55C206.992 153.55 206.736 153.447 206.521 153.242C206.316 153.027 206.213 152.771 206.213 152.472ZM213.329 160.718C213.329 161.101 213.339 161.404 213.357 161.628C213.385 161.843 213.437 162.011 213.511 162.132C213.595 162.244 213.717 162.319 213.875 162.356C214.043 162.393 214.267 162.421 214.547 162.44V163H210.137V162.44C210.408 162.421 210.623 162.393 210.781 162.356C210.949 162.319 211.075 162.244 211.159 162.132C211.253 162.02 211.313 161.861 211.341 161.656C211.369 161.451 211.383 161.171 211.383 160.816V159.066C211.383 158.515 211.374 158.072 211.355 157.736C211.337 157.391 211.313 157.157 211.285 157.036C211.257 156.915 211.22 156.817 211.173 156.742C211.127 156.658 211.057 156.597 210.963 156.56C210.87 156.513 210.753 156.485 210.613 156.476C210.473 156.457 210.296 156.448 210.081 156.448V155.972L212.783 155.44L212.965 156.672H213.021C213.329 156.28 213.693 155.977 214.113 155.762C214.533 155.547 214.995 155.44 215.499 155.44C216.097 155.44 216.577 155.524 216.941 155.692C217.315 155.851 217.646 156.121 217.935 156.504C218.094 156.719 218.234 156.999 218.355 157.344C218.477 157.68 218.537 158.147 218.537 158.744V160.718C218.537 161.101 218.547 161.404 218.565 161.628C218.593 161.843 218.645 162.011 218.719 162.132C218.803 162.244 218.925 162.319 219.083 162.356C219.242 162.393 219.457 162.421 219.727 162.44V163H215.345V162.44C215.625 162.431 215.845 162.407 216.003 162.37C216.171 162.323 216.297 162.244 216.381 162.132C216.465 162.02 216.521 161.861 216.549 161.656C216.577 161.441 216.591 161.161 216.591 160.816V158.912C216.591 158.436 216.563 158.035 216.507 157.708C216.451 157.381 216.358 157.12 216.227 156.924C216.106 156.719 215.943 156.574 215.737 156.49C215.532 156.397 215.275 156.35 214.967 156.35C214.669 156.35 214.412 156.434 214.197 156.602C213.983 156.77 213.796 157.003 213.637 157.302C213.553 157.47 213.479 157.689 213.413 157.96C213.357 158.221 213.329 158.497 213.329 158.786V160.718ZM223.095 161.488C223.347 161.507 223.567 161.525 223.753 161.544C223.949 161.563 224.131 161.586 224.299 161.614C224.477 161.633 224.649 161.656 224.817 161.684C224.995 161.703 225.181 161.726 225.377 161.754C226.105 161.857 226.675 162.132 227.085 162.58C227.505 163.019 227.715 163.565 227.715 164.218C227.715 165.011 227.389 165.613 226.735 166.024C226.082 166.435 225.121 166.64 223.851 166.64C222.685 166.64 221.784 166.467 221.149 166.122C220.524 165.786 220.211 165.305 220.211 164.68C220.211 164.195 220.337 163.826 220.589 163.574C220.841 163.331 221.159 163.21 221.541 163.21C221.784 163.21 222.017 163.257 222.241 163.35C222.475 163.453 222.671 163.597 222.829 163.784C222.587 163.831 222.386 163.938 222.227 164.106C222.078 164.283 222.003 164.489 222.003 164.722C222.003 165.095 222.167 165.38 222.493 165.576C222.829 165.781 223.319 165.884 223.963 165.884C225.363 165.884 226.063 165.441 226.063 164.554C226.063 164.237 225.956 163.961 225.741 163.728C225.536 163.504 225.237 163.369 224.845 163.322L222.395 162.986C221.359 162.846 220.841 162.384 220.841 161.6C220.841 161.217 220.963 160.905 221.205 160.662C221.457 160.419 221.812 160.251 222.269 160.158V160.102C222.055 160.018 221.859 159.901 221.681 159.752C221.513 159.603 221.364 159.43 221.233 159.234C221.103 159.038 221 158.828 220.925 158.604C220.86 158.371 220.827 158.133 220.827 157.89C220.827 157.545 220.897 157.223 221.037 156.924C221.187 156.616 221.387 156.355 221.639 156.14C221.901 155.925 222.204 155.757 222.549 155.636C222.904 155.505 223.287 155.44 223.697 155.44C224.099 155.44 224.491 155.501 224.873 155.622C225.256 155.743 225.583 155.911 225.853 156.126C226.068 155.995 226.255 155.888 226.413 155.804C226.572 155.711 226.717 155.641 226.847 155.594C226.987 155.538 227.113 155.501 227.225 155.482C227.337 155.454 227.449 155.44 227.561 155.44C227.916 155.44 228.201 155.519 228.415 155.678C228.639 155.837 228.751 156.047 228.751 156.308C228.751 156.504 228.691 156.667 228.569 156.798C228.448 156.919 228.289 156.98 228.093 156.98C227.953 156.98 227.841 156.952 227.757 156.896C227.673 156.831 227.589 156.761 227.505 156.686C227.431 156.602 227.351 156.532 227.267 156.476C227.183 156.411 227.071 156.378 226.931 156.378C226.735 156.378 226.549 156.504 226.371 156.756C226.465 156.915 226.53 157.087 226.567 157.274C226.605 157.451 226.623 157.661 226.623 157.904C226.623 158.259 226.567 158.585 226.455 158.884C226.343 159.183 226.166 159.449 225.923 159.682C225.69 159.906 225.387 160.097 225.013 160.256C224.64 160.415 224.187 160.522 223.655 160.578C223.207 160.625 222.895 160.685 222.717 160.76C222.549 160.835 222.465 160.947 222.465 161.096C222.465 161.32 222.675 161.451 223.095 161.488ZM223.767 159.78C224.066 159.78 224.299 159.621 224.467 159.304C224.635 158.987 224.719 158.543 224.719 157.974C224.719 157.395 224.635 156.952 224.467 156.644C224.299 156.327 224.061 156.168 223.753 156.168C223.436 156.168 223.184 156.327 222.997 156.644C222.811 156.961 222.717 157.395 222.717 157.946C222.717 158.506 222.811 158.954 222.997 159.29C223.193 159.617 223.45 159.78 223.767 159.78ZM240.151 160.382L243.385 152.22H247.473V152.78C247.165 152.78 246.913 152.813 246.717 152.878C246.53 152.934 246.385 153.041 246.283 153.2C246.18 153.359 246.11 153.578 246.073 153.858C246.045 154.129 246.031 154.474 246.031 154.894V160.326C246.031 160.793 246.049 161.161 246.087 161.432C246.124 161.703 246.199 161.913 246.311 162.062C246.423 162.211 246.581 162.309 246.787 162.356C247.001 162.403 247.281 162.431 247.627 162.44V163H242.363V162.44C242.708 162.431 242.983 162.403 243.189 162.356C243.403 162.3 243.567 162.202 243.679 162.062C243.8 161.922 243.879 161.726 243.917 161.474C243.954 161.213 243.973 160.863 243.973 160.424V153.872H243.903L240.137 163.14H239.101L235.209 153.872H235.153V160.326C235.153 160.793 235.171 161.161 235.209 161.432C235.246 161.703 235.321 161.913 235.433 162.062C235.545 162.211 235.703 162.309 235.909 162.356C236.123 162.403 236.403 162.431 236.749 162.44V163H232.437V162.44C232.782 162.431 233.062 162.403 233.277 162.356C233.491 162.3 233.655 162.202 233.767 162.062C233.888 161.922 233.967 161.726 234.005 161.474C234.042 161.213 234.061 160.863 234.061 160.424V154.796C234.061 154.404 234.042 154.077 234.005 153.816C233.967 153.555 233.897 153.349 233.795 153.2C233.692 153.041 233.543 152.934 233.347 152.878C233.16 152.813 232.908 152.78 232.591 152.78V152.22H236.833L240.095 160.382H240.151ZM252.304 155.44C252.864 155.44 253.391 155.538 253.886 155.734C254.39 155.921 254.829 156.182 255.202 156.518C255.585 156.854 255.883 157.255 256.098 157.722C256.322 158.179 256.434 158.683 256.434 159.234C256.434 159.803 256.322 160.326 256.098 160.802C255.883 161.278 255.585 161.689 255.202 162.034C254.829 162.379 254.39 162.65 253.886 162.846C253.391 163.042 252.864 163.14 252.304 163.14C251.753 163.14 251.231 163.047 250.736 162.86C250.241 162.664 249.807 162.393 249.434 162.048C249.061 161.703 248.767 161.292 248.552 160.816C248.337 160.331 248.23 159.803 248.23 159.234C248.23 158.683 248.337 158.175 248.552 157.708C248.767 157.241 249.061 156.84 249.434 156.504C249.807 156.168 250.241 155.907 250.736 155.72C251.231 155.533 251.753 155.44 252.304 155.44ZM252.304 156.252C252.024 156.252 251.767 156.327 251.534 156.476C251.301 156.616 251.1 156.817 250.932 157.078C250.773 157.339 250.647 157.657 250.554 158.03C250.47 158.394 250.428 158.8 250.428 159.248C250.428 159.715 250.47 160.135 250.554 160.508C250.647 160.881 250.773 161.199 250.932 161.46C251.1 161.721 251.296 161.927 251.52 162.076C251.753 162.216 252.015 162.286 252.304 162.286C252.593 162.286 252.855 162.216 253.088 162.076C253.331 161.927 253.536 161.721 253.704 161.46C253.872 161.189 254.003 160.867 254.096 160.494C254.189 160.121 254.236 159.705 254.236 159.248C254.236 158.8 254.189 158.394 254.096 158.03C254.003 157.666 253.872 157.353 253.704 157.092C253.536 156.821 253.331 156.616 253.088 156.476C252.855 156.327 252.593 156.252 252.304 156.252ZM263.688 162.104H263.632C262.988 162.795 262.153 163.14 261.126 163.14C260.594 163.14 260.104 163.047 259.656 162.86C259.217 162.673 258.835 162.412 258.508 162.076C258.191 161.74 257.943 161.343 257.766 160.886C257.589 160.419 257.5 159.906 257.5 159.346C257.5 158.786 257.589 158.268 257.766 157.792C257.953 157.316 258.2 156.905 258.508 156.56C258.825 156.205 259.199 155.93 259.628 155.734C260.067 155.538 260.538 155.44 261.042 155.44C261.509 155.44 261.919 155.51 262.274 155.65C262.638 155.79 262.955 156.028 263.226 156.364H263.282V155.174C263.282 154.623 263.273 154.152 263.254 153.76C263.245 153.359 263.226 153.097 263.198 152.976C263.151 152.78 263.007 152.64 262.764 152.556C262.531 152.463 262.167 152.416 261.672 152.416V151.94L265.214 151.38V159.388C265.214 160.088 265.219 160.629 265.228 161.012C265.247 161.385 265.275 161.67 265.312 161.866C265.331 161.987 265.359 162.085 265.396 162.16C265.433 162.235 265.489 162.295 265.564 162.342C265.639 162.379 265.737 162.407 265.858 162.426C265.989 162.435 266.152 162.44 266.348 162.44V162.986L263.688 163.14V162.104ZM263.254 158.982C263.254 158.627 263.217 158.301 263.142 158.002C263.067 157.694 262.955 157.423 262.806 157.19C262.638 156.919 262.423 156.714 262.162 156.574C261.901 156.434 261.621 156.364 261.322 156.364C260.771 156.364 260.351 156.616 260.062 157.12C259.773 157.624 259.628 158.357 259.628 159.318C259.628 160.289 259.773 161.035 260.062 161.558C260.351 162.081 260.767 162.342 261.308 162.342C261.616 162.342 261.91 162.263 262.19 162.104C262.47 161.945 262.699 161.731 262.876 161.46C263.007 161.255 263.1 161.003 263.156 160.704C263.221 160.396 263.254 160.004 263.254 159.528V158.982ZM274.235 161.698C273.385 162.659 272.326 163.14 271.057 163.14C270.478 163.14 269.951 163.051 269.475 162.874C269.008 162.687 268.607 162.431 268.271 162.104C267.935 161.768 267.673 161.371 267.487 160.914C267.3 160.457 267.207 159.948 267.207 159.388C267.207 158.809 267.305 158.282 267.501 157.806C267.697 157.321 267.972 156.905 268.327 156.56C268.691 156.205 269.115 155.93 269.601 155.734C270.095 155.538 270.637 155.44 271.225 155.44C272.214 155.44 272.984 155.706 273.535 156.238C274.085 156.77 274.361 157.517 274.361 158.478C274.361 158.627 274.337 158.721 274.291 158.758C274.244 158.786 274.113 158.8 273.899 158.8H269.391C269.353 158.884 269.335 159.038 269.335 159.262C269.335 160.177 269.531 160.9 269.923 161.432C270.324 161.964 270.865 162.23 271.547 162.23C271.939 162.23 272.326 162.141 272.709 161.964C273.101 161.787 273.479 161.535 273.843 161.208L274.235 161.698ZM271.519 158.016C271.892 158.016 272.13 157.997 272.233 157.96C272.345 157.913 272.401 157.811 272.401 157.652C272.401 157.241 272.284 156.905 272.051 156.644C271.817 156.383 271.523 156.252 271.169 156.252C270.767 156.252 270.408 156.42 270.091 156.756C269.783 157.083 269.582 157.503 269.489 158.016H271.519ZM278.322 160.704C278.322 161.077 278.336 161.376 278.364 161.6C278.392 161.824 278.448 161.997 278.532 162.118C278.616 162.239 278.738 162.323 278.896 162.37C279.055 162.407 279.27 162.431 279.54 162.44V163H275.13V162.44C275.392 162.431 275.602 162.403 275.76 162.356C275.928 162.3 276.054 162.216 276.138 162.104C276.232 161.983 276.292 161.819 276.32 161.614C276.358 161.399 276.376 161.129 276.376 160.802V155.02C276.376 154.479 276.367 154.035 276.348 153.69C276.33 153.335 276.306 153.093 276.278 152.962C276.232 152.729 276.124 152.575 275.956 152.5C275.798 152.425 275.504 152.388 275.074 152.388V151.912L278.322 151.38V160.704ZM281.031 163H280.597V160.452H281.185C281.343 161.124 281.572 161.614 281.871 161.922C282.169 162.23 282.557 162.384 283.033 162.384C283.378 162.384 283.644 162.314 283.831 162.174C284.027 162.025 284.125 161.824 284.125 161.572C284.125 161.311 284.008 161.059 283.775 160.816C283.541 160.564 283.163 160.298 282.641 160.018C281.931 159.635 281.423 159.257 281.115 158.884C280.807 158.501 280.653 158.072 280.653 157.596C280.653 157.288 280.709 157.003 280.821 156.742C280.942 156.471 281.101 156.238 281.297 156.042C281.502 155.846 281.745 155.697 282.025 155.594C282.305 155.482 282.608 155.426 282.935 155.426C283.224 155.426 283.509 155.468 283.789 155.552C284.078 155.636 284.33 155.753 284.545 155.902L284.797 155.566H285.161V157.68H284.615C284.4 157.148 284.176 156.765 283.943 156.532C283.719 156.299 283.443 156.182 283.117 156.182C282.855 156.182 282.645 156.252 282.487 156.392C282.337 156.532 282.263 156.719 282.263 156.952C282.263 157.213 282.375 157.461 282.599 157.694C282.832 157.927 283.215 158.184 283.747 158.464C284.12 158.669 284.442 158.87 284.713 159.066C284.983 159.262 285.203 159.463 285.371 159.668C285.539 159.864 285.66 160.074 285.735 160.298C285.819 160.513 285.861 160.746 285.861 160.998C285.861 161.325 285.8 161.619 285.679 161.88C285.557 162.141 285.385 162.365 285.161 162.552C284.937 162.739 284.666 162.883 284.349 162.986C284.041 163.089 283.695 163.14 283.313 163.14C282.911 163.14 282.538 163.089 282.193 162.986C281.847 162.874 281.563 162.715 281.339 162.51L281.031 163ZM294.099 160.746C294.099 161.101 294.122 161.39 294.169 161.614C294.216 161.829 294.309 161.997 294.449 162.118C294.598 162.23 294.804 162.309 295.065 162.356C295.336 162.403 295.695 162.431 296.143 162.44V163H290.571V162.44C290.879 162.431 291.131 162.403 291.327 162.356C291.523 162.309 291.672 162.23 291.775 162.118C291.878 162.006 291.948 161.847 291.985 161.642C292.022 161.437 292.041 161.171 292.041 160.844V154.376C292.041 154.049 292.022 153.788 291.985 153.592C291.957 153.387 291.896 153.228 291.803 153.116C291.71 152.995 291.574 152.915 291.397 152.878C291.229 152.831 291.005 152.799 290.725 152.78V152.22H299.293L299.461 155.174H298.873C298.817 154.773 298.733 154.437 298.621 154.166C298.518 153.886 298.369 153.662 298.173 153.494C297.977 153.317 297.725 153.191 297.417 153.116C297.109 153.041 296.731 153.004 296.283 153.004H294.351C294.183 153.004 294.099 153.083 294.099 153.242V157.288C294.668 157.288 295.13 157.265 295.485 157.218C295.849 157.171 296.138 157.083 296.353 156.952C296.568 156.812 296.722 156.625 296.815 156.392C296.908 156.159 296.974 155.851 297.011 155.468H297.529V159.85H297.011C296.955 159.458 296.876 159.145 296.773 158.912C296.67 158.669 296.512 158.487 296.297 158.366C296.092 158.235 295.812 158.147 295.457 158.1C295.102 158.053 294.65 158.03 294.099 158.03V160.746ZM303.792 155.44C304.352 155.44 304.88 155.538 305.374 155.734C305.878 155.921 306.317 156.182 306.69 156.518C307.073 156.854 307.372 157.255 307.586 157.722C307.81 158.179 307.922 158.683 307.922 159.234C307.922 159.803 307.81 160.326 307.586 160.802C307.372 161.278 307.073 161.689 306.69 162.034C306.317 162.379 305.878 162.65 305.374 162.846C304.88 163.042 304.352 163.14 303.792 163.14C303.242 163.14 302.719 163.047 302.224 162.86C301.73 162.664 301.296 162.393 300.922 162.048C300.549 161.703 300.255 161.292 300.04 160.816C299.826 160.331 299.718 159.803 299.718 159.234C299.718 158.683 299.826 158.175 300.04 157.708C300.255 157.241 300.549 156.84 300.922 156.504C301.296 156.168 301.73 155.907 302.224 155.72C302.719 155.533 303.242 155.44 303.792 155.44ZM303.792 156.252C303.512 156.252 303.256 156.327 303.022 156.476C302.789 156.616 302.588 156.817 302.42 157.078C302.262 157.339 302.136 157.657 302.042 158.03C301.958 158.394 301.916 158.8 301.916 159.248C301.916 159.715 301.958 160.135 302.042 160.508C302.136 160.881 302.262 161.199 302.42 161.46C302.588 161.721 302.784 161.927 303.008 162.076C303.242 162.216 303.503 162.286 303.792 162.286C304.082 162.286 304.343 162.216 304.576 162.076C304.819 161.927 305.024 161.721 305.192 161.46C305.36 161.189 305.491 160.867 305.584 160.494C305.678 160.121 305.724 159.705 305.724 159.248C305.724 158.8 305.678 158.394 305.584 158.03C305.491 157.666 305.36 157.353 305.192 157.092C305.024 156.821 304.819 156.616 304.576 156.476C304.343 156.327 304.082 156.252 303.792 156.252ZM312.054 160.83C312.054 161.194 312.068 161.483 312.096 161.698C312.134 161.903 312.204 162.062 312.306 162.174C312.409 162.286 312.558 162.361 312.754 162.398C312.95 162.426 313.212 162.44 313.538 162.44V163H308.862V162.44C309.142 162.421 309.366 162.393 309.534 162.356C309.702 162.319 309.828 162.244 309.912 162.132C309.996 162.02 310.048 161.861 310.066 161.656C310.094 161.441 310.108 161.157 310.108 160.802V159.094C310.108 158.515 310.094 158.053 310.066 157.708C310.038 157.363 309.978 157.097 309.884 156.91C309.791 156.723 309.656 156.602 309.478 156.546C309.31 156.481 309.086 156.448 308.806 156.448V155.958L311.606 155.44L311.83 157.05H311.886C312.138 156.555 312.47 156.163 312.88 155.874C313.291 155.585 313.725 155.44 314.182 155.44C314.537 155.44 314.826 155.529 315.05 155.706C315.274 155.883 315.386 156.107 315.386 156.378C315.386 156.677 315.298 156.929 315.12 157.134C314.952 157.339 314.719 157.442 314.42 157.442C314.28 157.442 314.154 157.414 314.042 157.358C313.93 157.302 313.828 157.241 313.734 157.176C313.65 157.101 313.562 157.036 313.468 156.98C313.384 156.915 313.296 156.882 313.202 156.882C313.025 156.882 312.857 156.999 312.698 157.232C312.54 157.465 312.409 157.778 312.306 158.17C312.232 158.45 312.171 158.767 312.124 159.122C312.078 159.467 312.054 159.813 312.054 160.158V160.83ZM328.618 154.922C328.618 155.697 328.394 156.345 327.946 156.868C327.498 157.391 326.784 157.741 325.804 157.918L329.052 161.642C329.276 161.903 329.542 162.104 329.85 162.244C330.158 162.375 330.47 162.44 330.788 162.44V163H327.47L323.998 158.744C323.764 158.464 323.559 158.277 323.382 158.184C323.214 158.081 323.055 158.03 322.906 158.03V160.774C322.906 161.119 322.929 161.404 322.976 161.628C323.022 161.843 323.116 162.011 323.256 162.132C323.396 162.253 323.596 162.337 323.858 162.384C324.128 162.421 324.488 162.44 324.936 162.44V163H319.378V162.44C319.686 162.44 319.933 162.421 320.12 162.384C320.316 162.337 320.465 162.258 320.568 162.146C320.68 162.025 320.754 161.861 320.792 161.656C320.829 161.441 320.848 161.171 320.848 160.844V154.376C320.848 154.049 320.834 153.788 320.806 153.592C320.778 153.387 320.717 153.228 320.624 153.116C320.53 152.995 320.395 152.915 320.218 152.878C320.05 152.831 319.821 152.799 319.532 152.78V152.22H324.376C325.729 152.22 326.774 152.458 327.512 152.934C328.249 153.41 328.618 154.073 328.618 154.922ZM322.906 157.19H323.816C324.693 157.19 325.346 157.022 325.776 156.686C326.214 156.341 326.434 155.776 326.434 154.992C326.434 154.395 326.252 153.914 325.888 153.55C325.524 153.186 325.02 153.004 324.376 153.004H323.158C322.99 153.004 322.906 153.083 322.906 153.242V157.19ZM337.782 161.698C336.932 162.659 335.873 163.14 334.604 163.14C334.025 163.14 333.498 163.051 333.022 162.874C332.555 162.687 332.154 162.431 331.818 162.104C331.482 161.768 331.22 161.371 331.034 160.914C330.847 160.457 330.754 159.948 330.754 159.388C330.754 158.809 330.852 158.282 331.048 157.806C331.244 157.321 331.519 156.905 331.874 156.56C332.238 156.205 332.662 155.93 333.148 155.734C333.642 155.538 334.184 155.44 334.772 155.44C335.761 155.44 336.531 155.706 337.082 156.238C337.632 156.77 337.908 157.517 337.908 158.478C337.908 158.627 337.884 158.721 337.838 158.758C337.791 158.786 337.66 158.8 337.446 158.8H332.938C332.9 158.884 332.882 159.038 332.882 159.262C332.882 160.177 333.078 160.9 333.47 161.432C333.871 161.964 334.412 162.23 335.094 162.23C335.486 162.23 335.873 162.141 336.256 161.964C336.648 161.787 337.026 161.535 337.39 161.208L337.782 161.698ZM335.066 158.016C335.439 158.016 335.677 157.997 335.78 157.96C335.892 157.913 335.948 157.811 335.948 157.652C335.948 157.241 335.831 156.905 335.598 156.644C335.364 156.383 335.07 156.252 334.716 156.252C334.314 156.252 333.955 156.42 333.638 156.756C333.33 157.083 333.129 157.503 333.036 158.016H335.066ZM339.601 163H339.167V160.452H339.755C339.914 161.124 340.142 161.614 340.441 161.922C340.74 162.23 341.127 162.384 341.603 162.384C341.948 162.384 342.214 162.314 342.401 162.174C342.597 162.025 342.695 161.824 342.695 161.572C342.695 161.311 342.578 161.059 342.345 160.816C342.112 160.564 341.734 160.298 341.211 160.018C340.502 159.635 339.993 159.257 339.685 158.884C339.377 158.501 339.223 158.072 339.223 157.596C339.223 157.288 339.279 157.003 339.391 156.742C339.512 156.471 339.671 156.238 339.867 156.042C340.072 155.846 340.315 155.697 340.595 155.594C340.875 155.482 341.178 155.426 341.505 155.426C341.794 155.426 342.079 155.468 342.359 155.552C342.648 155.636 342.9 155.753 343.115 155.902L343.367 155.566H343.731V157.68H343.185C342.97 157.148 342.746 156.765 342.513 156.532C342.289 156.299 342.014 156.182 341.687 156.182C341.426 156.182 341.216 156.252 341.057 156.392C340.908 156.532 340.833 156.719 340.833 156.952C340.833 157.213 340.945 157.461 341.169 157.694C341.402 157.927 341.785 158.184 342.317 158.464C342.69 158.669 343.012 158.87 343.283 159.066C343.554 159.262 343.773 159.463 343.941 159.668C344.109 159.864 344.23 160.074 344.305 160.298C344.389 160.513 344.431 160.746 344.431 160.998C344.431 161.325 344.37 161.619 344.249 161.88C344.128 162.141 343.955 162.365 343.731 162.552C343.507 162.739 343.236 162.883 342.919 162.986C342.611 163.089 342.266 163.14 341.883 163.14C341.482 163.14 341.108 163.089 340.763 162.986C340.418 162.874 340.133 162.715 339.909 162.51L339.601 163ZM352.493 161.698C351.643 162.659 350.584 163.14 349.315 163.14C348.736 163.14 348.209 163.051 347.733 162.874C347.266 162.687 346.865 162.431 346.529 162.104C346.193 161.768 345.931 161.371 345.745 160.914C345.558 160.457 345.465 159.948 345.465 159.388C345.465 158.809 345.563 158.282 345.759 157.806C345.955 157.321 346.23 156.905 346.585 156.56C346.949 156.205 347.373 155.93 347.859 155.734C348.353 155.538 348.895 155.44 349.483 155.44C350.472 155.44 351.242 155.706 351.793 156.238C352.343 156.77 352.619 157.517 352.619 158.478C352.619 158.627 352.595 158.721 352.549 158.758C352.502 158.786 352.371 158.8 352.157 158.8H347.649C347.611 158.884 347.593 159.038 347.593 159.262C347.593 160.177 347.789 160.9 348.181 161.432C348.582 161.964 349.123 162.23 349.805 162.23C350.197 162.23 350.584 162.141 350.967 161.964C351.359 161.787 351.737 161.535 352.101 161.208L352.493 161.698ZM349.777 158.016C350.15 158.016 350.388 157.997 350.491 157.96C350.603 157.913 350.659 157.811 350.659 157.652C350.659 157.241 350.542 156.905 350.309 156.644C350.075 156.383 349.781 156.252 349.427 156.252C349.025 156.252 348.666 156.42 348.349 156.756C348.041 157.083 347.84 157.503 347.747 158.016H349.777ZM357.938 159.01C357.154 159.365 356.561 159.696 356.16 160.004C355.768 160.303 355.572 160.615 355.572 160.942C355.572 161.213 355.647 161.427 355.796 161.586C355.945 161.745 356.132 161.824 356.356 161.824C356.58 161.824 356.79 161.787 356.986 161.712C357.182 161.628 357.35 161.521 357.49 161.39C357.63 161.259 357.737 161.105 357.812 160.928C357.896 160.741 357.938 160.545 357.938 160.34V159.01ZM357.938 158.268V157.68C357.938 157.139 357.84 156.747 357.644 156.504C357.457 156.252 357.163 156.126 356.762 156.126C356.491 156.126 356.286 156.201 356.146 156.35C356.006 156.49 355.875 156.728 355.754 157.064C355.67 157.297 355.549 157.479 355.39 157.61C355.241 157.741 355.031 157.806 354.76 157.806C354.499 157.806 354.298 157.727 354.158 157.568C354.018 157.409 353.948 157.185 353.948 156.896C353.948 156.448 354.191 156.093 354.676 155.832C355.171 155.571 355.913 155.44 356.902 155.44C357.947 155.44 358.694 155.631 359.142 156.014C359.59 156.387 359.814 157.017 359.814 157.904V160.97C359.814 161.763 359.973 162.16 360.29 162.16C360.467 162.16 360.631 162.099 360.78 161.978L360.99 162.384C360.859 162.617 360.654 162.804 360.374 162.944C360.103 163.075 359.795 163.14 359.45 163.14C359.021 163.14 358.694 163.009 358.47 162.748C358.246 162.487 358.134 162.118 358.134 161.642H358.064C357.793 162.127 357.443 162.496 357.014 162.748C356.585 163 356.095 163.126 355.544 163.126C354.956 163.126 354.485 162.963 354.13 162.636C353.775 162.3 353.598 161.866 353.598 161.334C353.598 160.923 353.78 160.541 354.144 160.186C354.508 159.822 355.115 159.467 355.964 159.122L357.938 158.268ZM364.773 160.83C364.773 161.194 364.787 161.483 364.815 161.698C364.852 161.903 364.922 162.062 365.025 162.174C365.128 162.286 365.277 162.361 365.473 162.398C365.669 162.426 365.93 162.44 366.257 162.44V163H361.581V162.44C361.861 162.421 362.085 162.393 362.253 162.356C362.421 162.319 362.547 162.244 362.631 162.132C362.715 162.02 362.766 161.861 362.785 161.656C362.813 161.441 362.827 161.157 362.827 160.802V159.094C362.827 158.515 362.813 158.053 362.785 157.708C362.757 157.363 362.696 157.097 362.603 156.91C362.51 156.723 362.374 156.602 362.197 156.546C362.029 156.481 361.805 156.448 361.525 156.448V155.958L364.325 155.44L364.549 157.05H364.605C364.857 156.555 365.188 156.163 365.599 155.874C366.01 155.585 366.444 155.44 366.901 155.44C367.256 155.44 367.545 155.529 367.769 155.706C367.993 155.883 368.105 156.107 368.105 156.378C368.105 156.677 368.016 156.929 367.839 157.134C367.671 157.339 367.438 157.442 367.139 157.442C366.999 157.442 366.873 157.414 366.761 157.358C366.649 157.302 366.546 157.241 366.453 157.176C366.369 157.101 366.28 157.036 366.187 156.98C366.103 156.915 366.014 156.882 365.921 156.882C365.744 156.882 365.576 156.999 365.417 157.232C365.258 157.465 365.128 157.778 365.025 158.17C364.95 158.45 364.89 158.767 364.843 159.122C364.796 159.467 364.773 159.813 364.773 160.158V160.83ZM375.444 161.838C375.089 162.23 374.646 162.533 374.114 162.748C373.591 162.963 373.022 163.07 372.406 163.07C371.836 163.07 371.318 162.981 370.852 162.804C370.385 162.617 369.984 162.361 369.648 162.034C369.312 161.707 369.05 161.315 368.864 160.858C368.686 160.391 368.598 159.878 368.598 159.318C368.598 158.739 368.696 158.212 368.892 157.736C369.088 157.26 369.363 156.854 369.718 156.518C370.072 156.173 370.497 155.907 370.992 155.72C371.486 155.533 372.032 155.44 372.63 155.44C373.05 155.44 373.437 155.482 373.792 155.566C374.156 155.65 374.464 155.767 374.716 155.916C374.977 156.065 375.182 156.243 375.332 156.448C375.481 156.644 375.556 156.859 375.556 157.092C375.556 157.363 375.476 157.577 375.318 157.736C375.168 157.895 374.963 157.974 374.702 157.974C374.487 157.974 374.296 157.918 374.128 157.806C373.969 157.694 373.81 157.512 373.652 157.26C373.512 157.036 373.39 156.859 373.288 156.728C373.194 156.597 373.106 156.499 373.022 156.434C372.938 156.359 372.854 156.313 372.77 156.294C372.686 156.266 372.583 156.252 372.462 156.252C371.92 156.252 371.5 156.504 371.202 157.008C370.903 157.512 370.754 158.217 370.754 159.122C370.754 160.093 370.931 160.839 371.286 161.362C371.65 161.885 372.168 162.146 372.84 162.146C373.222 162.146 373.605 162.076 373.988 161.936C374.37 161.787 374.734 161.577 375.08 161.306L375.444 161.838ZM379.37 160.704C379.37 161.087 379.379 161.39 379.398 161.614C379.426 161.829 379.477 161.997 379.552 162.118C379.636 162.239 379.757 162.319 379.916 162.356C380.084 162.393 380.308 162.421 380.588 162.44V163H376.178V162.44C376.458 162.421 376.682 162.393 376.85 162.356C377.018 162.319 377.144 162.244 377.228 162.132C377.312 162.02 377.363 161.861 377.382 161.656C377.41 161.441 377.424 161.157 377.424 160.802V155.048C377.424 154.488 377.415 154.049 377.396 153.732C377.387 153.405 377.363 153.158 377.326 152.99C377.298 152.869 377.265 152.775 377.228 152.71C377.191 152.635 377.13 152.579 377.046 152.542C376.971 152.495 376.864 152.467 376.724 152.458C376.593 152.439 376.425 152.43 376.22 152.43V151.912L379.342 151.38V156.546H379.398C379.687 156.163 380.009 155.883 380.364 155.706C380.728 155.529 381.162 155.44 381.666 155.44C382.581 155.44 383.29 155.72 383.794 156.28C384.037 156.56 384.228 156.901 384.368 157.302C384.508 157.694 384.578 158.105 384.578 158.534V160.704C384.578 161.096 384.587 161.404 384.606 161.628C384.625 161.843 384.671 162.011 384.746 162.132C384.83 162.244 384.951 162.319 385.11 162.356C385.269 162.393 385.488 162.421 385.768 162.44V163H381.386V162.44C381.666 162.431 381.885 162.407 382.044 162.37C382.212 162.323 382.338 162.244 382.422 162.132C382.515 162.02 382.571 161.861 382.59 161.656C382.618 161.441 382.632 161.157 382.632 160.802V159.08C382.632 158.091 382.525 157.391 382.31 156.98C382.095 156.569 381.727 156.364 381.204 156.364C380.644 156.364 380.201 156.569 379.874 156.98C379.715 157.195 379.589 157.461 379.496 157.778C379.412 158.095 379.37 158.45 379.37 158.842V160.704ZM393.508 161.698C392.659 162.659 391.6 163.14 390.33 163.14C389.752 163.14 389.224 163.051 388.748 162.874C388.282 162.687 387.88 162.431 387.544 162.104C387.208 161.768 386.947 161.371 386.76 160.914C386.574 160.457 386.48 159.948 386.48 159.388C386.48 158.809 386.578 158.282 386.774 157.806C386.97 157.321 387.246 156.905 387.6 156.56C387.964 156.205 388.389 155.93 388.874 155.734C389.369 155.538 389.91 155.44 390.498 155.44C391.488 155.44 392.258 155.706 392.808 156.238C393.359 156.77 393.634 157.517 393.634 158.478C393.634 158.627 393.611 158.721 393.564 158.758C393.518 158.786 393.387 158.8 393.172 158.8H388.664C388.627 158.884 388.608 159.038 388.608 159.262C388.608 160.177 388.804 160.9 389.196 161.432C389.598 161.964 390.139 162.23 390.82 162.23C391.212 162.23 391.6 162.141 391.982 161.964C392.374 161.787 392.752 161.535 393.116 161.208L393.508 161.698ZM390.792 158.016C391.166 158.016 391.404 157.997 391.506 157.96C391.618 157.913 391.674 157.811 391.674 157.652C391.674 157.241 391.558 156.905 391.324 156.644C391.091 156.383 390.797 156.252 390.442 156.252C390.041 156.252 389.682 156.42 389.364 156.756C389.056 157.083 388.856 157.503 388.762 158.016H390.792ZM397.75 160.83C397.75 161.194 397.764 161.483 397.792 161.698C397.829 161.903 397.899 162.062 398.002 162.174C398.104 162.286 398.254 162.361 398.45 162.398C398.646 162.426 398.907 162.44 399.234 162.44V163H394.558V162.44C394.838 162.421 395.062 162.393 395.23 162.356C395.398 162.319 395.524 162.244 395.608 162.132C395.692 162.02 395.743 161.861 395.762 161.656C395.79 161.441 395.804 161.157 395.804 160.802V159.094C395.804 158.515 395.79 158.053 395.762 157.708C395.734 157.363 395.673 157.097 395.58 156.91C395.486 156.723 395.351 156.602 395.174 156.546C395.006 156.481 394.782 156.448 394.502 156.448V155.958L397.302 155.44L397.526 157.05H397.582C397.834 156.555 398.165 156.163 398.576 155.874C398.986 155.585 399.42 155.44 399.878 155.44C400.232 155.44 400.522 155.529 400.746 155.706C400.97 155.883 401.082 156.107 401.082 156.378C401.082 156.677 400.993 156.929 400.816 157.134C400.648 157.339 400.414 157.442 400.116 157.442C399.976 157.442 399.85 157.414 399.738 157.358C399.626 157.302 399.523 157.241 399.43 157.176C399.346 157.101 399.257 157.036 399.164 156.98C399.08 156.915 398.991 156.882 398.898 156.882C398.72 156.882 398.552 156.999 398.394 157.232C398.235 157.465 398.104 157.778 398.002 158.17C397.927 158.45 397.866 158.767 397.82 159.122C397.773 159.467 397.75 159.813 397.75 160.158V160.83ZM402.3 163H401.866V160.452H402.454C402.613 161.124 402.842 161.614 403.14 161.922C403.439 162.23 403.826 162.384 404.302 162.384C404.648 162.384 404.914 162.314 405.1 162.174C405.296 162.025 405.394 161.824 405.394 161.572C405.394 161.311 405.278 161.059 405.044 160.816C404.811 160.564 404.433 160.298 403.91 160.018C403.201 159.635 402.692 159.257 402.384 158.884C402.076 158.501 401.922 158.072 401.922 157.596C401.922 157.288 401.978 157.003 402.09 156.742C402.212 156.471 402.37 156.238 402.566 156.042C402.772 155.846 403.014 155.697 403.294 155.594C403.574 155.482 403.878 155.426 404.204 155.426C404.494 155.426 404.778 155.468 405.058 155.552C405.348 155.636 405.6 155.753 405.814 155.902L406.066 155.566H406.43V157.68H405.884C405.67 157.148 405.446 156.765 405.212 156.532C404.988 156.299 404.713 156.182 404.386 156.182C404.125 156.182 403.915 156.252 403.756 156.392C403.607 156.532 403.532 156.719 403.532 156.952C403.532 157.213 403.644 157.461 403.868 157.694C404.102 157.927 404.484 158.184 405.016 158.464C405.39 158.669 405.712 158.87 405.982 159.066C406.253 159.262 406.472 159.463 406.64 159.668C406.808 159.864 406.93 160.074 407.004 160.298C407.088 160.513 407.13 160.746 407.13 160.998C407.13 161.325 407.07 161.619 406.948 161.88C406.827 162.141 406.654 162.365 406.43 162.552C406.206 162.739 405.936 162.883 405.618 162.986C405.31 163.089 404.965 163.14 404.582 163.14C404.181 163.14 403.808 163.089 403.462 162.986C403.117 162.874 402.832 162.715 402.608 162.51L402.3 163ZM408.388 162.104C408.388 161.805 408.486 161.553 408.682 161.348C408.887 161.133 409.139 161.026 409.438 161.026C409.746 161.026 410.003 161.133 410.208 161.348C410.413 161.553 410.516 161.805 410.516 162.104C410.516 162.393 410.413 162.641 410.208 162.846C410.003 163.042 409.746 163.14 409.438 163.14C409.139 163.14 408.887 163.042 408.682 162.846C408.486 162.641 408.388 162.393 408.388 162.104Z" fill="white"/>
<path d="M318.888 164.4H407.632V165.1H318.888V164.4Z" fill="white"/>
</svg>
