<svg width="1339" height="706" viewBox="0 0 1339 706" fill="none" xmlns="http://www.w3.org/2000/svg">
<path d="M105 50.5C103.619 50.5 102.5 51.6193 102.5 53C102.5 54.3807 103.619 55.5 105 55.5V50.5ZM308.5 55.5C309.88 55.5 311 54.3807 311 53C311 51.6193 309.88 50.5 308.5 50.5V55.5ZM308 655.5C309.381 655.5 310.5 654.381 310.5 653C310.5 651.619 309.381 650.5 308 650.5V655.5ZM103.999 649.501C102.619 649.501 101.499 650.62 101.499 652.001C101.499 653.382 102.619 654.501 103.999 654.501V649.501ZM308.499 654.501C309.88 654.501 310.999 653.382 310.999 652.001C310.999 650.62 309.88 649.501 308.499 649.501V654.501ZM103.499 652.001L103.499 649.501L103.499 654.501L103.499 652.001ZM308.499 456.501C309.88 456.501 310.999 455.382 310.999 454.001C310.999 452.62 309.88 451.501 308.499 451.501V456.501ZM307.955 255.5C309.336 255.525 310.474 254.425 310.498 253.044C310.522 251.664 309.423 250.525 308.042 250.501L307.955 255.5ZM308.499 55.5011C309.88 55.5011 310.999 54.3818 310.999 53.0011C310.999 51.6204 309.88 50.5011 308.499 50.5011V55.5011ZM104 250.5C102.619 250.5 101.5 251.619 101.5 253C101.5 254.381 102.619 255.5 104 255.5V250.5ZM104.003 250.5C102.623 250.5 101.503 251.619 101.503 253C101.503 254.381 102.623 255.5 104.003 255.5L104.003 250.5ZM308.5 456.5C309.881 456.5 311 455.381 311 454C311 452.619 309.881 451.5 308.5 451.5V456.5ZM105.085 250.5C103.704 250.5 102.585 251.619 102.585 253C102.585 254.381 103.704 255.5 105.085 255.5V250.5ZM310.085 654.5C311.466 654.5 312.585 653.381 312.585 652C312.585 650.619 311.466 649.5 310.085 649.5V654.5ZM104 451.5C102.619 451.5 101.5 452.619 101.5 454C101.5 455.381 102.619 456.5 104 456.5V451.5ZM308.5 654.5C309.881 654.5 311 653.381 311 652C311 650.619 309.881 649.5 308.5 649.5V654.5ZM308.5 255.5C309.881 255.5 311 254.381 311 253C311 251.619 309.881 250.5 308.5 250.5V255.5ZM412 50.5C410.619 50.5 409.5 51.6193 409.5 53C409.5 54.3807 410.619 55.5 412 55.5V50.5ZM615.5 55.5C616.88 55.5 618 54.3807 618 53C618 51.6193 616.88 50.5 615.5 50.5V55.5ZM615 655.5C616.381 655.5 617.5 654.381 617.5 653C617.5 651.619 616.381 650.5 615 650.5V655.5ZM410.999 649.501C409.619 649.501 408.499 650.62 408.499 652.001C408.499 653.382 409.619 654.501 410.999 654.501V649.501ZM615.499 654.501C616.88 654.501 617.999 653.382 617.999 652.001C617.999 650.62 616.88 649.501 615.499 649.501V654.501ZM410.499 652.001V649.501L410.499 654.501L410.499 652.001ZM615.499 456.501C616.88 456.501 617.999 455.382 617.999 454.001C617.999 452.62 616.88 451.501 615.499 451.501V456.501ZM614.955 255.5C616.336 255.525 617.474 254.425 617.498 253.044C617.522 251.664 616.423 250.525 615.042 250.501L614.955 255.5ZM615.499 55.5011C616.88 55.5011 617.999 54.3818 617.999 53.0011C617.999 51.6204 616.88 50.5011 615.499 50.5011V55.5011ZM411 250.5C409.619 250.5 408.5 251.619 408.5 253C408.5 254.381 409.619 255.5 411 255.5V250.5ZM411.003 250.5C409.623 250.5 408.503 251.619 408.503 253C408.503 254.381 409.623 255.5 411.003 255.5V250.5ZM615.5 456.5C616.881 456.5 618 455.381 618 454C618 452.619 616.881 451.5 615.5 451.5V456.5ZM412.085 250.5C410.704 250.5 409.585 251.619 409.585 253C409.585 254.381 410.704 255.5 412.085 255.5V250.5ZM617.085 654.5C618.466 654.5 619.585 653.381 619.585 652C619.585 650.619 618.466 649.5 617.085 649.5V654.5ZM411 451.5C409.619 451.5 408.5 452.619 408.5 454C408.5 455.381 409.619 456.5 411 456.5V451.5ZM615.5 654.5C616.881 654.5 618 653.381 618 652C618 650.619 616.881 649.5 615.5 649.5V654.5ZM615.5 255.5C616.881 255.5 618 254.381 618 253C618 251.619 616.881 250.5 615.5 250.5V255.5ZM719 50.5C717.619 50.5 716.5 51.6193 716.5 53C716.5 54.3807 717.619 55.5 719 55.5V50.5ZM922.5 55.5C923.88 55.5 925 54.3807 925 53C925 51.6193 923.88 50.5 922.5 50.5V55.5ZM922 655.5C923.381 655.5 924.5 654.381 924.5 653C924.5 651.619 923.381 650.5 922 650.5V655.5ZM717.999 649.501C716.619 649.501 715.499 650.62 715.499 652.001C715.499 653.382 716.619 654.501 717.999 654.501V649.501ZM922.499 654.501C923.88 654.501 924.999 653.382 924.999 652.001C924.999 650.62 923.88 649.501 922.499 649.501V654.501ZM717.499 652.001V649.501V654.501V652.001ZM922.499 456.501C923.88 456.501 924.999 455.382 924.999 454.001C924.999 452.62 923.88 451.501 922.499 451.501V456.501ZM921.955 255.5C923.336 255.525 924.474 254.425 924.498 253.044C924.522 251.664 923.423 250.525 922.042 250.501L921.955 255.5ZM922.499 55.5011C923.88 55.5011 924.999 54.3818 924.999 53.0011C924.999 51.6204 923.88 50.5011 922.499 50.5011V55.5011ZM718 250.5C716.619 250.5 715.5 251.619 715.5 253C715.5 254.381 716.619 255.5 718 255.5V250.5ZM718.003 250.5C716.623 250.5 715.503 251.619 715.503 253C715.503 254.381 716.623 255.5 718.003 255.5V250.5ZM922.5 456.5C923.881 456.5 925 455.381 925 454C925 452.619 923.881 451.5 922.5 451.5V456.5ZM719.085 250.5C717.704 250.5 716.585 251.619 716.585 253C716.585 254.381 717.704 255.5 719.085 255.5V250.5ZM924.085 654.5C925.466 654.5 926.585 653.381 926.585 652C926.585 650.619 925.466 649.5 924.085 649.5V654.5ZM718 451.5C716.619 451.5 715.5 452.619 715.5 454C715.5 455.381 716.619 456.5 718 456.5V451.5ZM922.5 654.5C923.881 654.5 925 653.381 925 652C925 650.619 923.881 649.5 922.5 649.5V654.5ZM922.5 255.5C923.881 255.5 925 254.381 925 253C925 251.619 923.881 250.5 922.5 250.5V255.5ZM1024 50.4998C1022.62 50.4998 1021.5 51.6191 1021.5 52.9998C1021.5 54.3805 1022.62 55.4998 1024 55.4998V50.4998ZM1236 355.5C1237.38 355.5 1238.5 354.38 1238.5 353C1238.5 351.619 1237.38 350.5 1236 350.5V355.5ZM1024 250.5C1022.62 250.5 1021.5 251.619 1021.5 253C1021.5 254.381 1022.62 255.5 1024 255.5V250.5ZM1236 355.5C1237.38 355.5 1238.5 354.38 1238.5 353C1238.5 351.619 1237.38 350.5 1236 350.5V355.5ZM1024 451.5C1022.62 451.5 1021.5 452.619 1021.5 454C1021.5 455.381 1022.62 456.5 1024 456.5V451.5ZM1024 649.5C1022.62 649.5 1021.5 650.619 1021.5 652C1021.5 653.38 1022.62 654.5 1024 654.5V649.5ZM100.5 53C100.5 79.2335 79.2335 100.5 53 100.5V105.5C81.9949 105.5 105.5 81.9949 105.5 53H100.5ZM53 100.5C26.7665 100.5 5.5 79.2335 5.5 53H0.5C0.5 81.9949 24.0051 105.5 53 105.5V100.5ZM5.5 53C5.5 26.7665 26.7665 5.5 53 5.5V0.5C24.0051 0.5 0.5 24.0051 0.5 53H5.5ZM53 5.5C79.2335 5.5 100.5 26.7665 100.5 53H105.5C105.5 24.0051 81.9949 0.5 53 0.5V5.5ZM100.5 453C100.5 479.234 79.2335 500.5 53 500.5V505.5C81.9949 505.5 105.5 481.995 105.5 453H100.5ZM53 500.5C26.7665 500.5 5.5 479.234 5.5 453H0.5C0.5 481.995 24.0051 505.5 53 505.5V500.5ZM5.5 453C5.5 426.766 26.7665 405.5 53 405.5V400.5C24.0051 400.5 0.5 424.005 0.5 453H5.5ZM53 405.5C79.2335 405.5 100.5 426.766 100.5 453H105.5C105.5 424.005 81.9949 400.5 53 400.5V405.5ZM100.5 253C100.5 279.234 79.2335 300.5 53 300.5V305.5C81.9949 305.5 105.5 281.995 105.5 253H100.5ZM53 300.5C26.7665 300.5 5.5 279.234 5.5 253H0.5C0.5 281.995 24.0051 305.5 53 305.5V300.5ZM5.5 253C5.5 226.766 26.7665 205.5 53 205.5V200.5C24.0051 200.5 0.5 224.005 0.5 253H5.5ZM53 205.5C79.2335 205.5 100.5 226.766 100.5 253H105.5C105.5 224.005 81.9949 200.5 53 200.5V205.5ZM100.5 653C100.5 679.234 79.2335 700.5 53 700.5V705.5C81.9949 705.5 105.5 681.995 105.5 653H100.5ZM53 700.5C26.7665 700.5 5.5 679.234 5.5 653H0.5C0.5 681.995 24.0051 705.5 53 705.5V700.5ZM5.5 653C5.5 626.766 26.7665 605.5 53 605.5V600.5C24.0051 600.5 0.5 624.005 0.5 653H5.5ZM53 605.5C79.2335 605.5 100.5 626.766 100.5 653H105.5C105.5 624.005 81.9949 600.5 53 600.5V605.5ZM105 55.5H308.5V50.5H105V55.5ZM104 55.5C125.138 55.5 141.176 67.3129 155.262 85.7669C169.4 104.287 181.209 129.011 194.022 154.136C206.762 179.116 220.465 204.418 238.299 223.459C256.215 242.586 278.4 255.5 307.999 255.5V250.5C280.098 250.5 259.159 238.414 241.949 220.041C224.659 201.582 211.236 176.884 198.476 151.864C185.79 126.989 173.724 101.713 159.237 82.7331C144.699 63.6871 127.362 50.5 104 50.5V55.5ZM104 55.5C114.063 55.5 123.145 61.1355 131.625 71.7876C140.115 82.451 147.738 97.8312 154.843 116.544C169.051 153.965 180.897 203.897 193.639 254.115C206.349 304.204 219.947 354.56 237.649 392.403C246.502 411.329 256.457 427.295 267.975 438.557C279.533 449.858 292.754 456.5 307.999 456.5V451.5C294.369 451.5 282.341 445.611 271.471 434.982C260.561 424.315 250.911 408.953 242.178 390.284C224.709 352.94 211.213 303.046 198.485 252.885C185.79 202.853 173.856 152.535 159.517 114.769C152.348 95.8876 144.506 79.9396 135.537 68.6733C126.559 57.3957 116.187 50.5 104 50.5V55.5ZM104 55.5C113.587 55.5 122.69 63.6205 131.395 79.9569C139.992 96.0902 147.684 119.291 154.827 147.366C169.108 203.491 181.024 278.352 193.785 353.419C206.53 428.389 220.118 503.557 237.739 559.995C246.545 588.2 256.414 611.915 267.801 628.626C279.164 645.301 292.399 655.5 308 655.5V650.5C294.852 650.5 282.93 641.949 271.933 625.811C260.961 609.71 251.268 586.55 242.512 558.505C225.008 502.443 211.47 427.611 198.715 352.581C185.976 277.648 174.017 202.509 159.673 146.134C152.504 117.959 144.696 94.2847 135.808 77.6056C127.029 61.1295 116.663 50.5 104 50.5V55.5ZM103.999 654.501H308.499V649.501H103.999V654.501ZM103.499 654.501C126.969 654.501 144.398 641.458 159.022 622.595C173.591 603.803 185.721 578.776 198.469 554.15C211.292 529.381 224.774 504.933 242.139 486.661C259.423 468.474 280.46 456.501 308.499 456.501V451.501C278.788 451.501 256.512 464.278 238.515 483.216C220.599 502.068 206.832 527.12 194.029 551.852C181.152 576.726 169.283 601.199 155.07 619.532C140.913 637.793 124.78 649.501 103.499 649.501V654.501ZM103.499 654.501C115.742 654.501 126.175 647.612 135.216 636.338C144.248 625.076 152.149 609.136 159.373 590.269C173.822 552.533 185.851 502.277 198.609 452.369C211.4 402.332 224.926 352.627 242.378 315.565C251.102 297.038 260.73 281.844 271.6 271.371C282.426 260.939 294.395 255.264 307.955 255.5L308.042 250.501C292.852 250.237 279.665 256.656 268.13 267.77C256.639 278.843 246.7 294.65 237.854 313.435C220.166 350.998 206.536 401.168 193.765 451.131C180.96 501.223 169.02 551.092 154.704 588.481C147.545 607.178 139.864 622.55 131.316 633.21C122.777 643.858 113.632 649.501 103.499 649.501L103.499 654.501ZM103.499 654.501C116.216 654.501 126.637 643.901 135.47 627.445C144.408 610.792 152.26 587.156 159.468 559.028C173.891 502.745 185.913 427.731 198.714 352.923C211.531 278.017 225.131 203.312 242.712 147.344C251.507 119.347 261.243 96.2266 272.262 80.1529C283.305 64.0454 295.281 55.5011 308.499 55.5011V50.5011C292.842 50.5011 279.553 60.6755 268.138 77.3258C256.701 94.0099 246.788 117.687 237.942 145.846C220.242 202.191 206.592 277.235 193.785 352.079C180.961 427.021 168.983 501.757 154.625 557.787C147.442 585.815 139.708 608.975 131.064 625.08C122.315 641.382 113.158 649.501 103.499 649.501L103.499 654.501ZM104 255.5L307.999 255.5V250.5L104 250.5V255.5ZM104 255.5C127.362 255.5 144.699 242.313 159.245 223.267C173.74 204.289 185.821 179.012 198.538 154.138C211.329 129.119 224.798 104.422 242.157 85.9627C259.436 67.5893 280.47 55.5 308.5 55.5V50.5C278.78 50.5 256.501 63.4107 238.514 82.5373C220.608 101.578 206.858 126.881 194.086 151.862C181.241 176.988 169.416 201.711 155.271 220.233C141.176 238.687 125.138 250.5 104 250.5V255.5ZM104.003 255.5C125.136 255.5 141.173 267.369 155.27 285.919C169.416 304.534 181.241 329.383 194.086 354.634C206.857 379.74 220.606 405.167 238.511 424.302C256.496 443.523 278.775 456.5 308.5 456.5V451.5C280.475 451.5 259.442 439.353 242.162 420.886C224.802 402.333 211.333 377.511 198.542 352.367C185.826 327.367 173.745 301.966 159.251 282.894C144.708 263.756 127.371 250.5 104.003 250.5L104.003 255.5ZM105.085 255.5C115.005 255.5 123.975 261.096 132.373 271.697C140.777 282.307 148.338 297.61 155.403 316.231C169.532 353.469 181.388 403.151 194.225 453.122C207.029 502.964 220.805 553.073 238.765 590.732C256.625 628.182 279.187 654.5 310.085 654.5V649.5C282.44 649.5 261.096 625.943 243.278 588.58C225.56 551.427 211.889 501.786 199.068 451.878C186.28 402.099 174.334 352.031 160.078 314.457C152.95 295.671 145.172 279.803 136.292 268.592C127.404 257.372 117.143 250.5 105.085 250.5V255.5ZM104 456.5H307.999V451.5H104V456.5ZM103.5 456.5C124.65 456.5 140.721 468.202 154.859 486.468C169.05 504.802 180.935 529.276 193.843 554.152C206.678 578.884 220.492 603.935 238.447 622.787C256.483 641.723 278.79 654.5 308.5 654.5V649.5C280.46 649.5 259.391 637.527 242.068 619.338C224.664 601.065 211.134 576.616 198.281 551.848C185.503 527.224 173.357 502.198 158.813 483.407C144.216 464.548 126.85 451.5 103.5 451.5V456.5ZM103.5 456.5C126.866 456.5 144.234 443.246 158.824 424.11C173.365 405.038 185.509 379.638 198.289 354.638C211.142 329.494 224.674 304.67 242.081 286.117C259.409 267.648 280.474 255.5 308.5 255.5V250.5C278.776 250.5 256.466 263.477 238.435 282.696C220.483 301.83 206.671 327.256 193.836 352.362C180.929 377.612 169.041 402.462 154.848 421.078C140.703 439.63 124.634 451.5 103.5 451.5L103.5 456.5ZM103.5 456.5C115.562 456.5 125.848 449.592 134.773 438.322C143.692 427.058 151.525 411.113 158.715 392.233C173.095 354.471 185.189 304.155 198.077 254.124C210.997 203.964 224.719 154.069 242.365 116.724C251.187 98.0558 260.914 82.6918 271.879 72.0222C282.806 61.3905 294.869 55.5 308.5 55.5V50.5C293.256 50.5 280.004 57.1408 268.393 68.4387C256.82 79.6988 246.788 95.663 237.845 114.588C219.963 152.431 206.137 202.786 193.235 252.876C180.299 303.095 168.294 353.029 154.042 390.454C146.915 409.168 139.299 424.552 130.853 435.218C122.412 445.876 113.417 451.5 103.5 451.5V456.5ZM407.5 53C407.5 79.2335 386.234 100.5 360 100.5V105.5C388.995 105.5 412.5 81.9949 412.5 53H407.5ZM360 100.5C333.766 100.5 312.5 79.2335 312.5 53H307.5C307.5 81.9949 331.005 105.5 360 105.5V100.5ZM312.5 53C312.5 26.7665 333.766 5.5 360 5.5V0.5C331.005 0.5 307.5 24.0051 307.5 53H312.5ZM360 5.5C386.234 5.5 407.5 26.7665 407.5 53H412.5C412.5 24.0051 388.995 0.5 360 0.5V5.5ZM407.5 453C407.5 479.234 386.234 500.5 360 500.5V505.5C388.995 505.5 412.5 481.995 412.5 453H407.5ZM360 500.5C333.766 500.5 312.5 479.234 312.5 453H307.5C307.5 481.995 331.005 505.5 360 505.5V500.5ZM312.5 453C312.5 426.766 333.766 405.5 360 405.5V400.5C331.005 400.5 307.5 424.005 307.5 453H312.5ZM360 405.5C386.234 405.5 407.5 426.766 407.5 453H412.5C412.5 424.005 388.995 400.5 360 400.5V405.5ZM407.5 253C407.5 279.234 386.234 300.5 360 300.5V305.5C388.995 305.5 412.5 281.995 412.5 253H407.5ZM360 300.5C333.766 300.5 312.5 279.234 312.5 253H307.5C307.5 281.995 331.005 305.5 360 305.5V300.5ZM312.5 253C312.5 226.766 333.766 205.5 360 205.5V200.5C331.005 200.5 307.5 224.005 307.5 253H312.5ZM360 205.5C386.234 205.5 407.5 226.766 407.5 253H412.5C412.5 224.005 388.995 200.5 360 200.5V205.5ZM407.5 653C407.5 679.234 386.234 700.5 360 700.5V705.5C388.995 705.5 412.5 681.995 412.5 653H407.5ZM360 700.5C333.766 700.5 312.5 679.234 312.5 653H307.5C307.5 681.995 331.005 705.5 360 705.5V700.5ZM312.5 653C312.5 626.766 333.766 605.5 360 605.5V600.5C331.005 600.5 307.5 624.005 307.5 653H312.5ZM360 605.5C386.234 605.5 407.5 626.766 407.5 653H412.5C412.5 624.005 388.995 600.5 360 600.5V605.5ZM412 55.5H615.5V50.5H412V55.5ZM411 55.5C432.138 55.5 448.176 67.3129 462.262 85.7669C476.4 104.287 488.209 129.011 501.022 154.136C513.762 179.116 527.465 204.418 545.299 223.459C563.215 242.586 585.4 255.5 614.999 255.5V250.5C587.098 250.5 566.159 238.414 548.949 220.041C531.659 201.582 518.236 176.884 505.476 151.864C492.79 126.989 480.724 101.713 466.237 82.7331C451.699 63.6871 434.362 50.5 411 50.5V55.5ZM411 55.5C421.063 55.5 430.145 61.1355 438.625 71.7876C447.115 82.451 454.738 97.8312 461.843 116.544C476.051 153.965 487.897 203.897 500.639 254.115C513.349 304.204 526.947 354.56 544.649 392.403C553.502 411.329 563.457 427.295 574.975 438.557C586.533 449.858 599.754 456.5 614.999 456.5V451.5C601.369 451.5 589.341 445.611 578.471 434.982C567.561 424.315 557.911 408.953 549.178 390.284C531.709 352.94 518.213 303.046 505.485 252.885C492.79 202.853 480.856 152.535 466.517 114.769C459.348 95.8876 451.506 79.9396 442.537 68.6733C433.559 57.3957 423.187 50.5 411 50.5V55.5ZM411 55.5C420.587 55.5 429.69 63.6205 438.395 79.9569C446.992 96.0902 454.684 119.291 461.827 147.366C476.108 203.491 488.024 278.352 500.785 353.419C513.53 428.389 527.118 503.557 544.739 559.995C553.545 588.2 563.414 611.915 574.801 628.626C586.164 645.301 599.399 655.5 615 655.5V650.5C601.852 650.5 589.93 641.949 578.933 625.811C567.961 609.71 558.268 586.55 549.512 558.505C532.008 502.443 518.47 427.611 505.715 352.581C492.976 277.648 481.017 202.509 466.673 146.134C459.504 117.959 451.696 94.2847 442.808 77.6056C434.029 61.1295 423.663 50.5 411 50.5V55.5ZM410.999 654.501H615.499V649.501H410.999V654.501ZM410.499 654.501C433.969 654.501 451.398 641.458 466.022 622.595C480.591 603.803 492.721 578.776 505.469 554.15C518.292 529.381 531.774 504.933 549.139 486.661C566.423 468.474 587.46 456.501 615.499 456.501V451.501C585.788 451.501 563.512 464.278 545.515 483.216C527.599 502.068 513.832 527.12 501.029 551.852C488.152 576.726 476.283 601.199 462.07 619.532C447.913 637.793 431.78 649.501 410.499 649.501V654.501ZM410.499 654.501C422.742 654.501 433.175 647.612 442.216 636.338C451.248 625.076 459.149 609.136 466.373 590.269C480.822 552.533 492.851 502.277 505.609 452.369C518.4 402.332 531.926 352.627 549.378 315.565C558.102 297.038 567.73 281.844 578.6 271.371C589.426 260.939 601.395 255.264 614.955 255.5L615.042 250.501C599.852 250.237 586.665 256.656 575.13 267.77C563.639 278.843 553.7 294.65 544.854 313.435C527.166 350.998 513.536 401.168 500.765 451.131C487.96 501.223 476.02 551.092 461.704 588.481C454.545 607.178 446.864 622.55 438.316 633.21C429.777 643.858 420.632 649.501 410.499 649.501V654.501ZM410.499 654.501C423.216 654.501 433.637 643.901 442.47 627.445C451.408 610.792 459.26 587.156 466.468 559.028C480.891 502.745 492.913 427.731 505.714 352.923C518.531 278.017 532.131 203.312 549.712 147.344C558.507 119.347 568.243 96.2266 579.262 80.1529C590.305 64.0454 602.281 55.5011 615.499 55.5011V50.5011C599.842 50.5011 586.553 60.6755 575.138 77.3258C563.701 94.0099 553.788 117.687 544.942 145.846C527.242 202.191 513.592 277.235 500.785 352.079C487.961 427.021 475.983 501.757 461.625 557.787C454.442 585.815 446.708 608.975 438.064 625.08C429.315 641.382 420.158 649.501 410.499 649.501L410.499 654.501ZM411 255.5L614.999 255.5V250.5L411 250.5V255.5ZM411 255.5C434.362 255.5 451.699 242.313 466.245 223.267C480.74 204.289 492.821 179.012 505.538 154.138C518.329 129.119 531.798 104.422 549.157 85.9627C566.435 67.5893 587.47 55.5 615.5 55.5V50.5C585.779 50.5 563.501 63.4107 545.514 82.5373C527.608 101.578 513.858 126.881 501.086 151.862C488.241 176.988 476.416 201.711 462.271 220.233C448.176 238.687 432.138 250.5 411 250.5V255.5ZM411.003 255.5C432.136 255.5 448.173 267.369 462.27 285.919C476.416 304.534 488.241 329.383 501.086 354.634C513.857 379.74 527.606 405.167 545.511 424.302C563.496 443.523 585.775 456.5 615.5 456.5V451.5C587.475 451.5 566.442 439.353 549.162 420.886C531.802 402.333 518.333 377.511 505.543 352.367C492.826 327.367 480.745 301.966 466.251 282.894C451.708 263.756 434.371 250.5 411.003 250.5V255.5ZM412.085 255.5C422.005 255.5 430.975 261.096 439.373 271.697C447.777 282.307 455.338 297.61 462.403 316.231C476.532 353.469 488.388 403.151 501.225 453.122C514.029 502.964 527.805 553.073 545.765 590.732C563.625 628.182 586.187 654.5 617.085 654.5V649.5C589.44 649.5 568.096 625.943 550.278 588.58C532.56 551.427 518.889 501.786 506.068 451.878C493.28 402.099 481.334 352.031 467.078 314.457C459.95 295.671 452.172 279.803 443.292 268.592C434.404 257.372 424.143 250.5 412.085 250.5V255.5ZM411 456.5H614.999V451.5H411V456.5ZM410.5 456.5C431.65 456.5 447.721 468.202 461.859 486.468C476.05 504.802 487.935 529.276 500.843 554.152C513.678 578.884 527.492 603.935 545.447 622.787C563.483 641.723 585.79 654.5 615.5 654.5V649.5C587.46 649.5 566.391 637.527 549.068 619.338C531.664 601.065 518.134 576.616 505.281 551.848C492.503 527.224 480.357 502.198 465.813 483.407C451.216 464.548 433.85 451.5 410.5 451.5V456.5ZM410.5 456.5C433.866 456.5 451.234 443.246 465.824 424.11C480.365 405.038 492.509 379.638 505.289 354.638C518.142 329.494 531.674 304.67 549.081 286.117C566.409 267.648 587.474 255.5 615.5 255.5V250.5C585.776 250.5 563.466 263.477 545.435 282.696C527.483 301.83 513.671 327.256 500.836 352.362C487.929 377.612 476.041 402.462 461.848 421.078C447.703 439.63 431.634 451.5 410.5 451.5V456.5ZM410.5 456.5C422.562 456.5 432.848 449.592 441.773 438.322C450.692 427.058 458.525 411.113 465.715 392.233C480.095 354.471 492.189 304.155 505.077 254.124C517.997 203.964 531.719 154.069 549.365 116.724C558.187 98.0558 567.914 82.6918 578.879 72.0222C589.806 61.3905 601.869 55.5 615.5 55.5V50.5C600.256 50.5 587.004 57.1408 575.393 68.4387C563.82 79.6988 553.788 95.663 544.845 114.588C526.963 152.431 513.137 202.786 500.235 252.876C487.299 303.095 475.294 353.029 461.042 390.454C453.915 409.168 446.299 424.552 437.853 435.218C429.412 445.876 420.417 451.5 410.5 451.5V456.5ZM714.5 53C714.5 79.2335 693.234 100.5 667 100.5V105.5C695.995 105.5 719.5 81.9949 719.5 53H714.5ZM667 100.5C640.766 100.5 619.5 79.2335 619.5 53H614.5C614.5 81.9949 638.005 105.5 667 105.5V100.5ZM619.5 53C619.5 26.7665 640.766 5.5 667 5.5V0.5C638.005 0.5 614.5 24.0051 614.5 53H619.5ZM667 5.5C693.234 5.5 714.5 26.7665 714.5 53H719.5C719.5 24.0051 695.995 0.5 667 0.5V5.5ZM714.5 453C714.5 479.234 693.234 500.5 667 500.5V505.5C695.995 505.5 719.5 481.995 719.5 453H714.5ZM667 500.5C640.766 500.5 619.5 479.234 619.5 453H614.5C614.5 481.995 638.005 505.5 667 505.5V500.5ZM619.5 453C619.5 426.766 640.766 405.5 667 405.5V400.5C638.005 400.5 614.5 424.005 614.5 453H619.5ZM667 405.5C693.234 405.5 714.5 426.766 714.5 453H719.5C719.5 424.005 695.995 400.5 667 400.5V405.5ZM714.5 253C714.5 279.234 693.234 300.5 667 300.5V305.5C695.995 305.5 719.5 281.995 719.5 253H714.5ZM667 300.5C640.766 300.5 619.5 279.234 619.5 253H614.5C614.5 281.995 638.005 305.5 667 305.5V300.5ZM619.5 253C619.5 226.766 640.766 205.5 667 205.5V200.5C638.005 200.5 614.5 224.005 614.5 253H619.5ZM667 205.5C693.234 205.5 714.5 226.766 714.5 253H719.5C719.5 224.005 695.995 200.5 667 200.5V205.5ZM714.5 653C714.5 679.234 693.234 700.5 667 700.5V705.5C695.995 705.5 719.5 681.995 719.5 653H714.5ZM667 700.5C640.766 700.5 619.5 679.234 619.5 653H614.5C614.5 681.995 638.005 705.5 667 705.5V700.5ZM619.5 653C619.5 626.766 640.766 605.5 667 605.5V600.5C638.005 600.5 614.5 624.005 614.5 653H619.5ZM667 605.5C693.234 605.5 714.5 626.766 714.5 653H719.5C719.5 624.005 695.995 600.5 667 600.5V605.5ZM719 55.5H922.5V50.5H719V55.5ZM718 55.5C739.138 55.5 755.176 67.3129 769.262 85.7669C783.4 104.287 795.209 129.011 808.022 154.136C820.762 179.116 834.465 204.418 852.299 223.459C870.215 242.586 892.4 255.5 921.999 255.5V250.5C894.098 250.5 873.159 238.414 855.949 220.041C838.659 201.582 825.236 176.884 812.476 151.864C799.79 126.989 787.724 101.713 773.237 82.7331C758.699 63.6871 741.362 50.5 718 50.5V55.5ZM718 55.5C728.064 55.5 737.145 61.1355 745.625 71.7876C754.115 82.451 761.738 97.8312 768.843 116.544C783.051 153.965 794.897 203.897 807.639 254.115C820.349 304.204 833.947 354.56 851.649 392.403C860.502 411.329 870.457 427.295 881.975 438.557C893.533 449.858 906.754 456.5 921.999 456.5V451.5C908.369 451.5 896.341 445.611 885.471 434.982C874.561 424.315 864.911 408.953 856.178 390.284C838.709 352.94 825.213 303.046 812.485 252.885C799.79 202.853 787.856 152.535 773.517 114.769C766.348 95.8876 758.507 79.9396 749.537 68.6733C740.559 57.3957 730.187 50.5 718 50.5V55.5ZM718 55.5C727.587 55.5 736.69 63.6205 745.395 79.9569C753.992 96.0902 761.684 119.291 768.827 147.366C783.108 203.491 795.024 278.352 807.785 353.419C820.53 428.389 834.118 503.557 851.739 559.995C860.545 588.2 870.414 611.915 881.801 628.626C893.164 645.301 906.399 655.5 922 655.5V650.5C908.852 650.5 896.93 641.949 885.933 625.811C874.961 609.71 865.268 586.55 856.512 558.505C839.008 502.443 825.47 427.611 812.715 352.581C799.976 277.648 788.017 202.509 773.673 146.134C766.504 117.959 758.696 94.2847 749.808 77.6056C741.029 61.1295 730.663 50.5 718 50.5V55.5ZM717.999 654.501H922.499V649.501H717.999V654.501ZM717.499 654.501C740.969 654.501 758.398 641.458 773.022 622.595C787.591 603.803 799.721 578.776 812.469 554.15C825.292 529.381 838.774 504.933 856.139 486.661C873.423 468.474 894.46 456.501 922.499 456.501V451.501C892.788 451.501 870.512 464.278 852.515 483.216C834.599 502.068 820.832 527.12 808.029 551.852C795.152 576.726 783.283 601.199 769.07 619.532C754.913 637.793 738.779 649.501 717.499 649.501V654.501ZM717.499 654.501C729.742 654.501 740.175 647.612 749.216 636.338C758.248 625.076 766.149 609.136 773.373 590.269C787.822 552.533 799.851 502.277 812.609 452.369C825.4 402.332 838.926 352.627 856.378 315.565C865.102 297.038 874.73 281.844 885.6 271.371C896.426 260.939 908.395 255.264 921.955 255.5L922.042 250.501C906.852 250.237 893.665 256.656 882.13 267.77C870.639 278.843 860.7 294.65 851.854 313.435C834.166 350.998 820.536 401.168 807.765 451.131C794.96 501.223 783.02 551.092 768.704 588.481C761.545 607.178 753.864 622.55 745.316 633.21C736.777 643.858 727.632 649.501 717.499 649.501V654.501ZM717.499 654.501C730.216 654.501 740.637 643.901 749.47 627.445C758.408 610.792 766.26 587.156 773.468 559.028C787.891 502.745 799.913 427.731 812.714 352.923C825.531 278.017 839.131 203.312 856.712 147.344C865.507 119.347 875.243 96.2266 886.262 80.1529C897.305 64.0454 909.281 55.5011 922.499 55.5011V50.5011C906.842 50.5011 893.553 60.6755 882.138 77.3258C870.701 94.0099 860.788 117.687 851.942 145.846C834.242 202.191 820.592 277.235 807.785 352.079C794.961 427.021 782.983 501.757 768.625 557.787C761.442 585.815 753.708 608.975 745.064 625.08C736.315 641.382 727.158 649.501 717.499 649.501V654.501ZM718 255.5L921.999 255.5V250.5L718 250.5V255.5ZM718 255.5C741.362 255.5 758.699 242.313 773.245 223.267C787.74 204.289 799.821 179.012 812.538 154.138C825.329 129.119 838.798 104.422 856.157 85.9627C873.435 67.5893 894.47 55.5 922.5 55.5V50.5C892.779 50.5 870.501 63.4107 852.514 82.5373C834.608 101.578 820.858 126.881 808.086 151.862C795.241 176.988 783.417 201.711 769.271 220.233C755.176 238.687 739.138 250.5 718 250.5V255.5ZM718.003 255.5C739.136 255.5 755.174 267.369 769.27 285.919C783.416 304.534 795.241 329.383 808.086 354.634C820.857 379.74 834.606 405.167 852.511 424.302C870.496 443.523 892.775 456.5 922.5 456.5V451.5C894.475 451.5 873.442 439.353 856.162 420.886C838.802 402.333 825.333 377.511 812.543 352.367C799.826 327.367 787.745 301.966 773.251 282.894C758.708 263.756 741.371 250.5 718.003 250.5V255.5ZM719.085 255.5C729.005 255.5 737.975 261.096 746.373 271.697C754.777 282.307 762.338 297.61 769.403 316.231C783.532 353.469 795.388 403.151 808.225 453.122C821.029 502.964 834.805 553.073 852.765 590.732C870.625 628.182 893.187 654.5 924.085 654.5V649.5C896.44 649.5 875.096 625.943 857.278 588.58C839.56 551.427 825.889 501.786 813.068 451.878C800.28 402.099 788.334 352.031 774.078 314.457C766.95 295.671 759.172 279.803 750.292 268.592C741.404 257.372 731.143 250.5 719.085 250.5V255.5ZM718 456.5H921.999V451.5H718V456.5ZM717.5 456.5C738.65 456.5 754.721 468.202 768.859 486.468C783.05 504.802 794.935 529.276 807.843 554.152C820.678 578.884 834.492 603.935 852.447 622.787C870.483 641.723 892.79 654.5 922.5 654.5V649.5C894.46 649.5 873.391 637.527 856.068 619.338C838.664 601.065 825.134 576.616 812.281 551.848C799.503 527.224 787.357 502.198 772.813 483.407C758.216 464.548 740.85 451.5 717.5 451.5V456.5ZM717.5 456.5C740.866 456.5 758.234 443.246 772.824 424.11C787.365 405.038 799.509 379.638 812.289 354.638C825.142 329.494 838.674 304.67 856.081 286.117C873.409 267.648 894.474 255.5 922.5 255.5V250.5C892.776 250.5 870.466 263.477 852.435 282.696C834.483 301.83 820.671 327.256 807.836 352.362C794.929 377.612 783.041 402.462 768.848 421.078C754.703 439.63 738.634 451.5 717.5 451.5V456.5ZM717.5 456.5C729.562 456.5 739.848 449.592 748.773 438.322C757.692 427.058 765.525 411.113 772.715 392.233C787.095 354.471 799.189 304.155 812.077 254.124C824.997 203.964 838.719 154.069 856.365 116.724C865.187 98.0558 874.914 82.6918 885.879 72.0222C896.806 61.3905 908.869 55.5 922.5 55.5V50.5C907.256 50.5 894.004 57.1408 882.393 68.4387C870.82 79.6988 860.788 95.663 851.845 114.588C833.963 152.431 820.137 202.786 807.235 252.876C794.299 303.095 782.294 353.029 768.042 390.454C760.915 409.168 753.299 424.552 744.853 435.218C736.412 445.876 727.417 451.5 717.5 451.5V456.5ZM1333.5 353C1333.5 379.234 1312.23 400.5 1286 400.5V405.5C1314.99 405.5 1338.5 381.995 1338.5 353H1333.5ZM1286 400.5C1259.77 400.5 1238.5 379.234 1238.5 353H1233.5C1233.5 381.995 1257.01 405.5 1286 405.5V400.5ZM1238.5 353C1238.5 326.766 1259.77 305.5 1286 305.5V300.5C1257.01 300.5 1233.5 324.005 1233.5 353H1238.5ZM1286 305.5C1312.23 305.5 1333.5 326.766 1333.5 353H1338.5C1338.5 324.005 1314.99 300.5 1286 300.5V305.5ZM1021.5 53C1021.5 79.2335 1000.23 100.5 974 100.5V105.5C1002.99 105.5 1026.5 81.9949 1026.5 53H1021.5ZM974 100.5C947.766 100.5 926.5 79.2335 926.5 53H921.5C921.5 81.9949 945.005 105.5 974 105.5V100.5ZM926.5 53C926.5 26.7665 947.766 5.5 974 5.5V0.5C945.005 0.5 921.5 24.0051 921.5 53H926.5ZM974 5.5C1000.23 5.5 1021.5 26.7665 1021.5 53H1026.5C1026.5 24.0051 1002.99 0.5 974 0.5V5.5ZM1021.5 453C1021.5 479.234 1000.23 500.5 974 500.5V505.5C1002.99 505.5 1026.5 481.995 1026.5 453H1021.5ZM974 500.5C947.766 500.5 926.5 479.234 926.5 453H921.5C921.5 481.995 945.005 505.5 974 505.5V500.5ZM926.5 453C926.5 426.766 947.766 405.5 974 405.5V400.5C945.005 400.5 921.5 424.005 921.5 453H926.5ZM974 405.5C1000.23 405.5 1021.5 426.766 1021.5 453H1026.5C1026.5 424.005 1002.99 400.5 974 400.5V405.5ZM1021.5 253C1021.5 279.234 1000.23 300.5 974 300.5V305.5C1002.99 305.5 1026.5 281.995 1026.5 253H1021.5ZM974 300.5C947.766 300.5 926.5 279.234 926.5 253H921.5C921.5 281.995 945.005 305.5 974 305.5V300.5ZM926.5 253C926.5 226.766 947.766 205.5 974 205.5V200.5C945.005 200.5 921.5 224.005 921.5 253H926.5ZM974 205.5C1000.23 205.5 1021.5 226.766 1021.5 253H1026.5C1026.5 224.005 1002.99 200.5 974 200.5V205.5ZM1021.5 653C1021.5 679.234 1000.23 700.5 974 700.5V705.5C1002.99 705.5 1026.5 681.995 1026.5 653H1021.5ZM974 700.5C947.766 700.5 926.5 679.234 926.5 653H921.5C921.5 681.995 945.005 705.5 974 705.5V700.5ZM926.5 653C926.5 626.766 947.766 605.5 974 605.5V600.5C945.005 600.5 921.5 624.005 921.5 653H926.5ZM974 605.5C1000.23 605.5 1021.5 626.766 1021.5 653H1026.5C1026.5 624.005 1002.99 600.5 974 600.5V605.5ZM1024 55.4998C1048.85 55.4997 1067.89 73.2025 1084.21 101.136C1100.51 129.012 1113.61 166.258 1126.89 203.833C1140.12 241.264 1153.51 279.021 1170.35 307.4C1187.16 335.734 1207.87 355.5 1236 355.5V350.5C1210.62 350.5 1191.21 332.765 1174.65 304.849C1158.11 276.979 1144.88 239.736 1131.61 202.167C1118.38 164.741 1105.11 126.987 1088.53 98.6132C1071.98 70.297 1051.65 50.4997 1024 50.4998V55.4998ZM1024 255.5C1075.45 255.5 1101.07 279.851 1127.54 304.818C1154.09 329.872 1181.47 355.5 1236 355.5V350.5C1183.54 350.5 1157.41 326.127 1130.97 301.181C1104.43 276.148 1077.55 250.5 1024 250.5V255.5ZM1024 456.5C1077.56 456.5 1104.44 430.59 1130.97 405.31C1157.42 380.112 1183.54 355.5 1236 355.5V350.5C1181.46 350.5 1154.08 376.388 1127.53 401.69C1101.06 426.91 1075.44 451.5 1024 451.5V456.5ZM1024 654.5C1051.64 654.5 1071.98 634.771 1088.53 606.546C1105.12 578.265 1118.38 540.635 1131.61 503.335C1144.88 465.891 1158.11 428.774 1174.65 400.997C1191.21 373.178 1210.62 355.5 1236 355.5V350.5C1207.88 350.5 1187.17 370.197 1170.35 398.44C1153.51 426.726 1140.12 464.358 1126.89 501.664C1113.62 539.114 1100.51 576.234 1084.22 604.016C1067.89 631.854 1048.86 649.5 1024 649.5V654.5Z" fill="white"/>
</svg>
