<svg width="48" height="56" viewBox="0 0 48 56" fill="none" xmlns="http://www.w3.org/2000/svg">
<path d="M23.0384 1.36948C23.3145 0.402058 24.6855 0.402061 24.9616 1.36949L29.4638 17.1453C29.6119 17.6642 30.1451 17.9721 30.6686 17.8408L46.5819 13.852C47.5578 13.6074 48.2433 14.7947 47.5435 15.5175L36.1324 27.3044C35.757 27.6922 35.757 28.3078 36.1324 28.6956L47.5435 40.4825C48.2433 41.2053 47.5578 42.3926 46.5819 42.148L30.6686 38.1592C30.1451 38.0279 29.6119 38.3358 29.4638 38.8547L24.9616 54.6305C24.6855 55.5979 23.3145 55.5979 23.0384 54.6305L18.5362 38.8547C18.3881 38.3358 17.8549 38.0279 17.3314 38.1592L1.4181 42.148C0.442238 42.3926 -0.243275 41.2053 0.456496 40.4825L11.8676 28.6956C12.243 28.3078 12.243 27.6922 11.8676 27.3044L0.456494 15.5175C-0.243277 14.7947 0.442242 13.6074 1.4181 13.852L17.3314 17.8408C17.8549 17.9721 18.3881 17.6642 18.5362 17.1453L23.0384 1.36948Z" fill="white"/>
</svg>
