<svg width="1067" height="790" viewBox="0 0 1067 790" fill="none" xmlns="http://www.w3.org/2000/svg">
<rect x="-4.22119" y="70.003" width="1027" height="708" rx="67" transform="rotate(-4.14083 -4.22119 70.003)" fill="#212125"/>
<g clip-path="url(#clip0_90_52)">
<path d="M687.677 122.558L653.368 125.498C659.054 191.864 717.425 240.972 783.738 235.291L789.617 303.908C790.467 313.826 798.848 320.884 807.801 320.117C816.753 319.35 824.776 310.886 823.968 301.451L818.088 232.833C812.407 166.521 753.99 116.877 687.677 122.558ZM890.632 71.0941C845.468 74.9638 808.39 103.251 790.964 141.897C807.224 156.769 819.902 175.534 827.531 196.816C887.463 185.362 930.265 130.286 924.941 68.1545L890.632 71.0941Z" fill="white"/>
</g>
<g clip-path="url(#clip1_90_52)">
<path d="M193.665 195.416C167.349 198.615 149.056 222.487 152.201 248.357C155.346 274.226 178.497 293.967 205.25 290.714C232.003 287.462 249.859 263.643 246.714 237.773C243.569 211.904 219.971 192.218 193.665 195.416ZM330.727 273.395L293.813 231.594L319.665 182.611C322.258 177.7 318.902 171.754 313.357 171.431L258.067 168.23L241.711 115.317C240.072 110.011 233.495 108.177 229.345 111.872L188.04 149.152L138.615 123.351C133.704 120.759 127.758 124.113 127.435 129.658L124.693 184.913L71.7604 201.271C66.4515 202.873 64.6224 209.492 68.2601 213.18L105.152 254.983L79.2991 303.966C76.7068 308.878 80.0624 314.824 85.6065 315.147L140.897 318.348L157.252 371.261C158.892 376.566 165.469 378.401 169.618 374.705L210.983 337.867L259.966 363.72C264.878 366.313 270.828 362.957 271.146 357.413L274.347 302.123L327.26 285.768C332.589 284.149 334.403 277.531 330.727 273.395ZM207.181 306.597C172.095 310.863 140.638 285.821 136.426 251.181C132.161 216.095 157.203 184.638 191.843 180.426C226.482 176.215 258.386 201.198 262.597 235.842C266.864 270.934 242.273 302.331 207.181 306.597Z" fill="white"/>
</g>
<g clip-path="url(#clip2_90_52)">
<path d="M799.288 545.092L820.052 451.413C820.929 447.46 818.874 443.696 814.921 442.82C810.967 441.943 807.115 444.398 806.238 448.351L785.474 542.03C774.926 543.362 766.825 552.054 766.338 562.664C765.771 573.313 773.011 582.7 783.405 585.004C793.785 587.305 804.314 581.851 808.314 571.964C812.33 562.15 808.282 550.767 799.288 545.092ZM862.694 460.865C868.786 433.383 851.867 406.272 824.372 400.178C796.89 394.086 769.688 411.418 763.596 438.899L747.203 512.857C735.989 521.928 727.525 534.358 724.178 549.461C716.35 584.773 738.65 619.774 773.963 627.601C809.276 635.428 843.876 613.04 851.704 577.727C855.051 562.625 852.65 547.702 846.301 534.822L862.694 460.865V460.865ZM819.354 582.393C810.893 595.757 795.633 602.16 780.353 598.773C765.082 595.389 753.631 582.673 752.023 567.054C750.316 551.899 758.848 537.06 773.091 530.618L792.024 445.201C794.633 433.43 806.301 425.992 818.072 428.601C829.843 431.21 836.876 442.793 834.266 454.564L815.333 539.981C825.92 551.927 827.36 568.976 819.354 582.393ZM972.115 490.711L951.564 448.875C947.676 440.934 936.251 438.402 929.368 443.955L893.063 473.189C886.796 478.235 885.808 487.397 890.854 493.669C895.875 499.922 905.065 500.911 911.321 495.876L915.697 492.745L886.869 622.803C885.127 630.66 890.083 638.427 897.932 640.167C905.781 641.907 913.555 636.961 915.297 629.104L944.125 499.046L946.368 503.644C948.393 507.777 952.12 510.511 956.291 511.436C959.407 512.126 962.769 511.809 965.85 510.293C973.086 506.724 976.042 498.012 972.115 490.711Z" fill="white"/>
</g>
<path d="M583.971 279.726C573.159 289.765 563.339 300.325 554.669 310.937C540.409 291.392 522.703 271.513 502.75 253C451.432 300.518 415 362.512 415 399.85C415 466.235 467.337 520 532 520C596.663 520 649 466.235 649 399.85C649 372.107 621.839 314.796 583.971 279.726ZM573.838 457.37C562.504 465.244 548.61 469.938 533.515 469.938C495.84 469.938 465.143 445.047 465.143 404.648C465.143 384.503 477.804 366.767 503.137 336.438C506.793 340.609 554.784 401.832 554.784 401.832L585.407 366.955C587.562 370.475 589.516 374.005 591.278 377.332C605.595 404.543 599.588 439.379 573.838 457.37Z" fill="white"/>
<path d="M195.274 436.584L183.739 455.711C179.728 462.361 170.808 462.503 166.782 455.863C161.721 447.516 156.499 439.448 155.034 442.322C152.359 447.57 159.326 472.022 160.814 481.709C161.176 484.063 159.916 486.076 157.945 487.412L143.856 496.958C131.305 505.777 139.648 510.011 145.964 511.168C146.429 511.253 146.898 511.29 147.371 511.301C151.711 511.405 174.599 512.019 175.925 513.359C177.391 514.839 176.758 534.111 186.978 566.282C197.197 598.452 229.539 612.247 237.508 611.913L254.263 659.804C256.347 665.763 253 672.249 246.936 674.003L226.406 679.941C224.427 680.514 222.638 681.623 221.297 683.187C212.186 693.816 211.316 698.681 220.73 699.885C221.726 700.013 222.743 699.943 223.728 699.75L269.775 690.729C275.966 689.516 279.83 683.358 278.736 677.145C275.187 656.986 276.343 640 280.292 632.254C284.029 624.923 303.985 641.163 317.528 651.03C333.186 662.437 342.86 671.017 350.645 674.036C351.674 674.435 352.766 674.579 353.868 674.515C365.13 673.859 395.845 668.239 421.61 663.192C432.65 661.029 435.703 660.431 434.313 653.338C432.646 644.827 425.347 646.257 420.535 647.2L379.246 653.851C378.565 653.961 377.874 654.012 377.185 653.971C365.925 653.3 358.124 647.036 350.685 641.736C341.12 634.919 336.838 627.804 331.386 619.74C324.555 607.38 319.12 590.072 310.227 573.657C300.866 556.381 275.241 541.644 262.212 538.368C233.423 531.128 228.598 530.277 217.236 519.541C208.999 511.758 194.637 495.324 189.195 483.69C188.174 481.507 188.246 479.016 189.002 476.728C194.524 460.011 198.41 441.992 198.046 436.046C197.933 434.186 196.236 434.989 195.274 436.584Z" fill="white"/>
<path d="M237.508 611.913L254.263 659.804C256.347 665.763 253 672.249 246.936 674.003L226.406 679.941C224.427 680.514 222.638 681.623 221.297 683.187C212.186 693.816 211.316 698.681 220.73 699.885C221.726 700.013 222.743 699.943 223.728 699.75L269.775 690.729C275.966 689.516 279.83 683.358 278.736 677.145C275.187 656.986 276.343 640 280.292 632.254C284.029 624.923 303.985 641.163 317.528 651.03C333.186 662.437 342.86 671.017 350.645 674.036C351.674 674.435 352.766 674.579 353.868 674.515C365.13 673.859 395.845 668.239 421.61 663.192C432.65 661.029 435.703 660.431 434.313 653.338C432.646 644.827 425.347 646.257 420.535 647.2L379.246 653.851C378.565 653.961 377.874 654.012 377.185 653.971C365.925 653.3 358.124 647.036 350.685 641.736C341.12 634.919 336.838 627.804 331.386 619.74C324.555 607.38 319.12 590.072 310.227 573.657C300.866 556.381 275.241 541.644 262.212 538.368C233.423 531.128 228.598 530.277 217.236 519.541C208.999 511.758 194.637 495.324 189.195 483.69C188.174 481.507 188.246 479.016 189.002 476.728C194.524 460.011 198.41 441.992 198.046 436.046C197.933 434.186 196.236 434.989 195.274 436.584L183.739 455.711C179.728 462.361 170.808 462.503 166.782 455.863C161.721 447.516 156.499 439.448 155.034 442.322C152.359 447.57 159.326 472.022 160.814 481.709C161.176 484.063 159.916 486.076 157.945 487.412L143.856 496.958C131.305 505.777 139.648 510.011 145.964 511.168C146.429 511.253 146.898 511.29 147.371 511.301C151.711 511.406 174.599 512.019 175.925 513.359C177.391 514.839 176.758 534.111 186.978 566.282C197.197 598.452 229.539 612.247 237.508 611.913ZM237.508 611.913C236.663 602.848 240.094 584.451 260.577 583.384" stroke="white" stroke-width="15"/>
<defs>
<clipPath id="clip0_90_52">
<rect width="275.477" height="275.477" fill="white" transform="translate(649 74.517) rotate(-4.89721)"/>
</clipPath>
<clipPath id="clip1_90_52">
<rect width="256" height="256" fill="white" transform="translate(57 131.895) rotate(-6.9315)"/>
</clipPath>
<clipPath id="clip2_90_52">
<rect width="232.943" height="232.943" fill="white" transform="translate(760.409 386) rotate(12.4978)"/>
</clipPath>
</defs>
</svg>
