<svg width="1069" height="792" viewBox="0 0 1069 792" fill="none" xmlns="http://www.w3.org/2000/svg">
<rect x="-4.64502" y="74.4385" width="1027" height="708" rx="67" transform="rotate(-4.4 -4.64502 74.4385)" fill="#212125"/>
<g clip-path="url(#clip0_90_52)">
<path d="M688.677 124.558L654.368 127.498C660.054 193.864 718.425 242.972 784.738 237.291L790.617 305.909C791.467 315.826 799.848 322.884 808.801 322.117C817.753 321.35 825.776 312.886 824.968 303.451L819.088 234.833C813.407 168.521 754.99 118.877 688.677 124.558ZM891.632 73.0942C846.468 76.964 809.39 105.251 791.964 143.897C808.224 158.769 820.902 177.534 828.531 198.816C888.463 187.362 931.265 132.286 925.941 70.1546L891.632 73.0942Z" fill="white"/>
</g>
<g clip-path="url(#clip1_90_52)">
<path d="M194.665 197.416C168.349 200.615 150.056 224.487 153.201 250.357C156.346 276.227 179.497 295.967 206.25 292.714C233.003 289.462 250.859 265.643 247.714 239.773C244.569 213.904 220.971 194.218 194.665 197.416ZM331.727 275.395L294.813 233.594L320.665 184.611C323.258 179.7 319.902 173.754 314.357 173.431L259.067 170.23L242.711 117.317C241.072 112.011 234.495 110.177 230.345 113.872L189.04 151.152L139.615 125.351C134.704 122.759 128.758 126.113 128.435 131.658L125.693 186.913L72.7604 203.271C67.4515 204.873 65.6224 211.492 69.2601 215.18L106.152 256.983L80.2991 305.966C77.7068 310.878 81.0624 316.824 86.6065 317.147L141.897 320.348L158.252 373.261C159.892 378.567 166.469 380.401 170.618 376.705L211.983 339.867L260.966 365.72C265.878 368.313 271.828 364.957 272.146 359.413L275.347 304.123L328.26 287.768C333.589 286.149 335.403 279.532 331.727 275.395ZM208.181 308.597C173.095 312.863 141.638 287.821 137.426 253.181C133.161 218.095 158.203 186.638 192.843 182.426C227.482 178.215 259.386 203.198 263.597 237.843C267.864 272.934 243.273 304.331 208.181 308.597Z" fill="white"/>
</g>
<g clip-path="url(#clip2_90_52)">
<path d="M800.288 547.092L821.052 453.413C821.929 449.46 819.874 445.696 815.921 444.82C811.967 443.943 808.115 446.398 807.238 450.351L786.474 544.03C775.926 545.362 767.825 554.054 767.338 564.664C766.771 575.313 774.011 584.7 784.405 587.004C794.785 589.305 805.314 583.851 809.314 573.964C813.33 564.15 809.282 552.767 800.288 547.092ZM863.694 462.865C869.786 435.383 852.867 408.272 825.372 402.178C797.89 396.086 770.688 413.418 764.596 440.899L748.203 514.857C736.989 523.928 728.525 536.358 725.178 551.461C717.35 586.773 739.65 621.774 774.963 629.601C810.276 637.428 844.876 615.04 852.704 579.727C856.051 564.625 853.65 549.702 847.301 536.822L863.694 462.865ZM820.354 584.393C811.893 597.757 796.633 604.16 781.353 600.773C766.082 597.389 754.631 584.673 753.023 569.054C751.316 553.899 759.848 539.06 774.091 532.618L793.024 447.201C795.633 435.43 807.301 427.992 819.072 430.601C830.843 433.21 837.876 444.793 835.266 456.564L816.333 541.981C826.92 553.927 828.36 570.976 820.354 584.393ZM973.115 492.711L952.564 450.875C948.676 442.934 937.251 440.402 930.368 445.955L894.063 475.189C887.796 480.235 886.808 489.397 891.854 495.669C896.875 501.922 906.065 502.911 912.321 497.876L916.697 494.745L887.869 624.803C886.127 632.66 891.083 640.427 898.932 642.167C906.781 643.907 914.555 638.961 916.297 631.104L945.125 501.046L947.368 505.644C949.393 509.777 953.12 512.511 957.291 513.436C960.407 514.126 963.769 513.809 966.85 512.293C974.086 508.724 977.042 500.012 973.115 492.711Z" fill="white"/>
</g>
<path d="M584.971 281.726C574.159 291.765 564.339 302.325 555.669 312.937C541.409 293.392 523.703 273.513 503.75 255C452.432 302.518 416 364.512 416 401.85C416 468.235 468.337 522 533 522C597.663 522 650 468.235 650 401.85C650 374.107 622.839 316.796 584.971 281.726ZM574.838 459.37C563.504 467.244 549.61 471.938 534.515 471.938C496.84 471.938 466.143 447.047 466.143 406.648C466.143 386.503 478.804 368.767 504.137 338.438C507.793 342.609 555.784 403.832 555.784 403.832L586.407 368.955C588.562 372.475 590.516 376.005 592.278 379.332C606.595 406.543 600.588 441.379 574.838 459.37Z" fill="white"/>
<path d="M196.274 438.584L184.739 457.711C180.728 464.361 171.808 464.503 167.782 457.863C162.721 449.516 157.499 441.448 156.034 444.322C153.359 449.57 160.326 474.022 161.814 483.709C162.176 486.063 160.916 488.076 158.945 489.412L144.856 498.958C132.305 507.777 140.648 512.011 146.964 513.168C147.429 513.253 147.898 513.29 148.371 513.301C152.711 513.405 175.599 514.019 176.925 515.359C178.391 516.839 177.758 536.111 187.978 568.282C198.197 600.452 230.539 614.247 238.508 613.913L255.263 661.804C257.347 667.763 254 674.249 247.936 676.003L227.406 681.941C225.427 682.514 223.638 683.623 222.297 685.187C213.186 695.816 212.316 700.681 221.73 701.885C222.726 702.013 223.743 701.943 224.728 701.75L270.775 692.729C276.966 691.516 280.83 685.358 279.736 679.145C276.187 658.986 277.343 642 281.292 634.254C285.029 626.923 304.985 643.163 318.528 653.03C334.186 664.437 343.86 673.017 351.645 676.036C352.674 676.435 353.766 676.579 354.868 676.515C366.13 675.859 396.845 670.239 422.61 665.192C433.65 663.029 436.703 662.431 435.313 655.338C433.646 646.827 426.347 648.257 421.535 649.2L380.246 655.851C379.565 655.961 378.874 656.012 378.185 655.971C366.925 655.3 359.124 649.036 351.685 643.736C342.12 636.919 337.838 629.804 332.386 621.74C325.555 609.38 320.12 592.072 311.227 575.657C301.866 558.381 276.241 543.644 263.212 540.368C234.423 533.128 229.598 532.277 218.236 521.541C209.999 513.758 195.637 497.324 190.195 485.69C189.174 483.507 189.246 481.016 190.002 478.728C195.524 462.011 199.41 443.992 199.046 438.046C198.933 436.186 197.236 436.989 196.274 438.584Z" fill="white"/>
<path d="M238.508 613.913L255.263 661.804C257.347 667.763 254 674.249 247.936 676.003L227.406 681.941C225.427 682.514 223.638 683.623 222.297 685.187C213.186 695.816 212.316 700.681 221.73 701.885C222.726 702.013 223.743 701.943 224.728 701.75L270.775 692.729C276.966 691.516 280.83 685.358 279.736 679.145C276.187 658.986 277.343 642 281.292 634.254C285.029 626.923 304.985 643.163 318.528 653.03C334.186 664.437 343.86 673.017 351.645 676.036C352.674 676.435 353.766 676.579 354.868 676.515C366.13 675.859 396.845 670.239 422.61 665.192C433.65 663.029 436.703 662.431 435.313 655.338C433.646 646.827 426.347 648.257 421.535 649.2L380.246 655.851C379.565 655.961 378.874 656.012 378.185 655.971C366.925 655.3 359.124 649.036 351.685 643.736C342.12 636.919 337.838 629.804 332.386 621.74C325.555 609.38 320.12 592.072 311.227 575.657C301.866 558.381 276.241 543.644 263.212 540.368C234.423 533.128 229.598 532.277 218.236 521.541C209.999 513.758 195.637 497.324 190.195 485.69C189.174 483.507 189.246 481.016 190.002 478.728C195.524 462.011 199.41 443.992 199.046 438.046C198.933 436.186 197.236 436.989 196.274 438.584L184.739 457.711C180.728 464.361 171.808 464.503 167.782 457.863C162.721 449.516 157.499 441.448 156.034 444.322C153.359 449.57 160.326 474.022 161.814 483.709C162.176 486.063 160.916 488.076 158.945 489.412L144.856 498.958C132.305 507.777 140.648 512.011 146.964 513.168C147.429 513.253 147.898 513.29 148.371 513.301C152.711 513.406 175.599 514.019 176.925 515.359C178.391 516.839 177.758 536.111 187.978 568.282C198.197 600.452 230.539 614.247 238.508 613.913ZM238.508 613.913C237.663 604.848 241.094 586.451 261.577 585.384" stroke="white" stroke-width="15"/>
<defs>
<clipPath id="clip0_90_52">
<rect width="275.477" height="275.477" fill="white" transform="translate(650 76.5171) rotate(-4.89721)"/>
</clipPath>
<clipPath id="clip1_90_52">
<rect width="256" height="256" fill="white" transform="translate(58 133.895) rotate(-6.9315)"/>
</clipPath>
<clipPath id="clip2_90_52">
<rect width="232.943" height="232.943" fill="white" transform="translate(761.409 388) rotate(12.4978)"/>
</clipPath>
</defs>
</svg>
