<svg width="1079" height="785" viewBox="0 0 1079 785" fill="none" xmlns="http://www.w3.org/2000/svg">
<g clip-path="url(#clip0_104_27)">
<rect x="54.3171" width="1027" height="708" rx="67" transform="rotate(4.4 54.3171 0)" fill="#212125"/>
<g clip-path="url(#clip1_104_27)">
<path d="M70.9323 631.349L64.9989 617.045C61.904 609.609 62.6431 600.879 66.9573 593.7C71.0813 586.841 77.7249 582.495 85.1771 581.791L128.468 577.675C158.608 574.801 187.265 561.888 211.363 540.308L229.699 523.876C255.236 500.989 285.709 487.267 317.831 484.231L376.121 478.698C385.434 477.848 394.221 483.206 397.924 492.146L409.124 519.131L343.264 525.374C308.245 528.7 275.059 543.624 247.267 568.553L227.817 585.971C202.942 608.259 173.355 621.603 142.239 624.575L70.9323 631.349ZM423.467 553.747L416.435 536.801L345.037 543.591C313.945 546.548 284.364 559.875 259.478 582.142L240.025 599.605C212.216 624.528 179.008 639.463 143.974 642.765L78.3007 648.996L90.6019 678.63C93.0595 684.605 97.3174 688.832 103.478 691.002C106.282 691.989 109.315 692.385 112.404 692.099L170.694 686.567C202.825 683.522 233.298 669.799 258.825 646.922L277.162 630.49C301.225 608.921 329.881 596.014 360.057 593.123L403.348 589.006C410.799 588.305 417.445 583.957 421.567 577.098C425.531 569.276 426.568 561.155 423.467 553.747Z" fill="white"/>
</g>
<g clip-path="url(#clip2_104_27)">
<path d="M849.268 548.141C848.222 554.18 845.77 559.916 842.209 564.909C838.755 569.536 833.883 574.009 828.512 576.924C819.154 581.347 809.38 582.495 799.01 580.548L757.835 674.915C755.832 679.505 752.484 683.303 747.839 685.143C743.194 686.982 738.011 686.886 733.061 684.726C728.886 682.905 725.299 679.174 723.484 674.516C721.673 669.859 721.401 664.482 723.404 659.892L764.579 565.525C756.667 560.011 750.606 551.592 747.845 541.882C746.282 535.941 746.094 529.725 747.319 523.66C748.544 517.596 751.119 511.915 754.868 507.003L793.633 453.626C794.727 452.118 796.338 451.067 798.154 450.675C799.965 450.281 801.86 450.576 803.465 451.499C805.076 452.423 806.289 453.917 806.866 455.693C807.444 457.469 807.341 459.396 806.584 461.107L779.374 523.47L786.849 526.732L822.188 465.807C822.979 464.464 824.228 463.455 825.718 462.978C827.164 462.482 828.769 462.559 829.802 463.01C831.61 463.799 832.759 464.923 833.378 466.32C834.041 467.737 833.773 469.174 833.714 470.836L813.09 538.181L820.234 541.298L847.445 478.936C848.187 477.234 849.896 476.019 851.185 475.06C853.249 474.44 855.156 474.296 856.923 474.825C858.683 475.371 859.819 476.406 861.146 478.179C862.086 479.784 862.385 481.68 862.041 483.526L849.268 548.141ZM885.616 730.669C883.613 735.26 879.878 738.888 875.233 740.728C870.588 742.568 865.404 742.471 860.842 740.481C856.28 738.49 852.684 734.756 850.873 730.099C849.062 725.443 849.182 720.237 851.185 715.646L873.861 663.677L866.63 660.522C863.015 658.945 859.721 656.631 856.969 653.781C854.278 650.906 852.111 647.537 850.662 643.812C849.257 640.105 848.575 636.148 848.285 632C848.769 628.19 849.667 624.252 851.255 620.614L872.716 571.312C880.076 555.5 891.674 541.951 906.35 532.621C921.036 523.269 938.117 518.524 955.47 519.028C957.558 518.94 960.319 519.773 962.452 520.991C964.584 522.21 966.392 523.938 967.689 526.013C968.987 528.087 969.792 530.469 969.952 532.92C970.157 535.386 969.358 537.687 968.759 540.117L885.616 730.669Z" fill="white"/>
</g>
<g clip-path="url(#clip3_104_27)">
<path d="M831.786 186.304C863.021 171.071 899.651 180.079 921.344 205.742L888.587 238.526C884.882 242.23 884.882 248.205 888.587 251.909C890.44 253.687 892.894 254.638 895.338 254.638C897.782 254.638 900.12 253.687 901.97 251.909L931.302 222.101L1007.23 377.861C1008.94 381.417 1009.01 385.714 1007.23 389.496C1003.97 396.087 995.971 398.831 989.452 395.649L910.265 356.977L939.366 327.779C943.146 324.149 943.146 318.071 939.366 314.444C935.661 310.739 929.663 310.739 926.03 314.444L892.259 348.217L831.802 318.649C817.577 311.756 805.426 300.122 797.94 284.789C780.045 248.243 795.217 204.205 831.786 186.304ZM777.257 165.68C765.698 141.498 771.625 112.977 795.688 93.4878C825.472 118.232 826.813 157.203 800.358 183.519L795.617 188.261C768.783 214.697 729.723 213.394 705.066 183.581C724.565 160.051 753.608 154.123 777.257 165.68Z" fill="white"/>
</g>
<g clip-path="url(#clip4_104_27)">
<path d="M476.339 292.863C476.577 292.906 476.82 292.949 477.059 292.992C483.33 277.156 500.08 267.385 517.498 270.501C523.844 271.637 529.814 274.61 534.999 278.858C543.055 268.363 556.575 262.63 570.482 265.119C584.389 267.607 595.082 277.677 598.999 290.31C604.93 288.05 611.561 287.333 618.312 288.54C635.73 291.657 647.648 306.558 648.443 323.658C648.668 323.699 648.938 323.747 649.163 323.787C665.05 326.63 675.656 341.858 672.813 357.745C671.871 363.011 669.598 367.667 666.366 371.455L443.656 331.604C441.965 326.936 441.438 321.779 442.381 316.513C445.223 300.626 460.429 290.016 476.339 292.863ZM427.819 356.36C429.035 349.564 435.552 345.017 442.371 346.238L662.528 385.631C669.324 386.847 673.87 393.374 672.654 400.17C666.783 432.979 640.465 457.021 609.156 461.451C609.262 462.678 609.217 463.97 608.991 465.23C607.566 473.197 599.978 478.481 592.012 477.055L476.796 456.439C468.83 455.014 463.545 447.426 464.971 439.46C465.196 438.2 465.602 436.972 466.126 435.858C438.296 420.846 421.948 389.17 427.819 356.36Z" fill="white"/>
</g>
<g clip-path="url(#clip5_104_27)">
<path d="M345.888 166.833C352.188 169.967 357.006 175.464 359.239 182.119C361.472 188.774 360.945 196.065 357.811 202.364C354.678 208.663 349.181 213.481 342.526 215.714L141.29 283.242C134.619 285.481 127.324 284.955 121.024 281.821C114.725 278.688 109.928 273.184 107.695 266.529C105.462 259.873 105.968 252.59 109.102 246.291C112.235 239.992 117.737 235.172 124.408 232.933L325.644 165.406C332.299 163.172 339.589 163.699 345.888 166.833ZM363.286 230.146C365.386 231.191 366.998 233.04 367.736 235.241L370.55 243.626C373.381 252.063 372.895 262.255 368.716 270.654C364.538 279.053 356.702 285.589 348.265 288.42L180.569 344.693C171.676 347.677 161.966 347.029 153.567 342.851C145.163 338.674 138.607 330.846 135.775 322.409L132.962 314.024C132.223 311.823 132.388 309.377 133.432 307.277C134.477 305.178 136.311 303.571 138.533 302.825L356.538 229.67C358.739 228.932 361.186 229.102 363.286 230.146ZM111.086 216.88C108.362 216.511 105.773 215.573 103.483 214.067C101.194 212.561 99.2917 210.576 97.9026 208.243C96.4959 205.858 95.6638 203.222 95.4434 200.498C91.7243 151.206 128.251 101.038 185.635 81.7822C243.018 62.5263 302.403 80.5094 329.175 122.065C330.648 124.37 331.58 126.972 331.865 129.734C332.185 132.425 331.876 135.152 330.937 137.741C329.579 140.471 328.552 142.623 326.581 144.567C324.644 146.442 322.27 147.88 319.649 148.759L119.132 216.046C116.543 216.915 113.787 217.198 111.086 216.88ZM261.686 105.647C260.642 107.747 260.472 110.194 261.21 112.395C261.773 114.072 262.79 115.539 264.19 116.585C265.591 117.631 266.799 118.45 269.001 118.41C270.574 118.058 272.462 118.124 273.981 117.264C275.5 116.405 276.756 115.109 277.504 113.516C278.323 111.959 278.599 110.176 278.368 108.445C278.137 106.715 276.946 105.249 276.278 103.782C274.981 102.002 273.599 101.533 271.92 101.047C270.241 100.561 268.3 100.163 266.623 100.725C264.422 101.464 262.731 103.547 261.686 105.647ZM188.979 111.382C187.934 113.481 187.759 115.913 188.505 118.135C189.06 119.791 190.084 121.278 191.485 122.324C192.885 123.37 194.093 124.189 196.295 124.15C197.868 123.797 199.756 123.863 201.275 123.004C202.794 122.144 204.05 120.848 204.798 119.256C205.617 117.699 205.893 115.915 205.666 114.196C205.435 112.465 204.24 110.989 203.569 109.512C202.425 108.187 200.885 107.246 199.215 106.786C197.543 106.321 195.594 105.902 193.918 106.465C191.717 107.204 190.023 109.282 188.979 111.382ZM127.529 150.666C126.485 152.765 126.315 155.213 127.054 157.414C127.616 159.091 128.633 160.557 130.034 161.603C131.434 162.649 132.642 163.468 134.844 163.429C136.417 163.076 138.305 163.142 139.824 162.283C141.343 161.423 142.599 160.127 143.347 158.535C144.166 156.978 144.442 155.194 144.211 153.464C143.98 151.734 142.789 150.268 142.122 148.801C140.824 147.021 139.443 146.551 137.764 146.065C136.084 145.579 134.143 145.181 132.466 145.744C130.265 146.482 128.574 148.566 127.529 150.666Z" fill="white"/>
</g>
</g>
<defs>
<clipPath id="clip0_104_27">
<rect x="54.3171" width="1027" height="708" rx="67" transform="rotate(4.4 54.3171 0)" fill="white"/>
</clipPath>
<clipPath id="clip1_104_27">
<rect width="330.027" height="292.744" fill="white" transform="translate(137.216 392.517) rotate(19.4)"/>
</clipPath>
<clipPath id="clip2_104_27">
<rect width="210.366" height="241.921" fill="white" transform="translate(781.994 442.13) rotate(23.573)"/>
</clipPath>
<clipPath id="clip3_104_27">
<rect width="303.464" height="303.464" fill="white" transform="matrix(-1 2.91797e-05 2.91797e-05 1 1008.53 93.4816)"/>
</clipPath>
<clipPath id="clip4_104_27">
<rect width="263.354" height="234.092" fill="white" transform="translate(443.441 227.524) rotate(10.1448)"/>
</clipPath>
<clipPath id="clip5_104_27">
<rect width="283.017" height="283.017" fill="white" transform="translate(45.8507 110.031) rotate(-18.55)"/>
</clipPath>
</defs>
</svg>
