<svg width="1079" height="786" viewBox="0 0 1079 786" fill="none" xmlns="http://www.w3.org/2000/svg">
<g clip-path="url(#clip0_94_36)">
<rect x="54.64" y="0.687622" width="1027" height="708" rx="67" transform="rotate(4.39533 54.64 0.687622)" fill="#212125"/>
<g clip-path="url(#clip1_94_36)">
<path d="M71.3065 632.035L65.372 617.732C62.2765 610.296 63.0148 601.566 67.3284 594.386C71.4519 587.527 78.0952 583.18 85.5473 582.476L128.838 578.356C158.977 575.48 187.633 562.565 211.73 540.982L230.065 524.549C255.599 501.66 286.071 487.936 318.193 484.897L376.482 479.359C385.796 478.509 394.583 483.866 398.287 492.805L409.489 519.789L343.629 526.038C308.611 529.367 275.426 544.294 247.636 569.225L228.188 586.644C203.314 608.935 173.729 622.281 142.613 625.256L71.3065 632.035ZM423.835 554.404L416.802 537.459L345.404 544.255C314.312 547.214 284.733 560.544 259.848 582.812L240.396 600.277C212.59 625.203 179.383 640.141 144.349 643.446L78.6763 649.681L90.98 679.314C93.4381 685.29 97.6963 689.517 103.857 691.686C106.661 692.673 109.694 693.068 112.783 692.782L171.073 687.245C203.204 684.197 233.676 670.472 259.201 647.593L277.536 631.159C301.598 609.589 330.252 596.679 360.428 593.785L403.718 589.665C411.17 588.963 417.815 584.615 421.937 577.755C425.9 569.934 426.937 561.812 423.835 554.404Z" fill="white"/>
</g>
<g clip-path="url(#clip2_94_36)">
<path d="M849.636 548.764C848.59 554.803 846.139 560.539 842.577 565.532C839.124 570.16 834.252 574.633 828.882 577.549C819.524 581.972 809.75 583.121 799.38 581.175L758.213 675.545C756.21 680.136 752.863 683.934 748.218 685.774C743.573 687.614 738.389 687.518 733.44 685.359C729.265 683.537 725.677 679.807 723.862 675.149C722.051 670.493 721.778 665.116 723.781 660.525L764.948 566.155C757.035 560.641 750.974 552.223 748.212 542.513C746.648 536.572 746.46 530.356 747.684 524.291C748.909 518.227 751.483 512.546 755.232 507.634L793.993 454.254C795.087 452.745 796.697 451.694 798.513 451.302C800.324 450.908 802.219 451.203 803.825 452.126C805.436 453.049 806.648 454.544 807.226 456.319C807.804 458.095 807.701 460.022 806.944 461.733L779.739 524.098L787.215 527.359L822.549 466.432C823.34 465.089 824.589 464.08 826.078 463.602C827.524 463.106 829.13 463.184 830.163 463.635C831.97 464.423 833.119 465.547 833.739 466.944C834.402 468.361 834.134 469.798 834.075 471.46L813.456 538.807L820.601 541.923L847.806 479.559C848.549 477.857 850.257 476.642 851.546 475.683C853.61 475.062 855.517 474.919 857.285 475.447C859.044 475.993 860.181 477.028 861.508 478.801C862.447 480.405 862.747 482.301 862.403 484.148L849.636 548.764ZM885.998 731.289C883.996 735.88 880.261 739.509 875.616 741.349C870.971 743.189 865.787 743.093 861.225 741.102C856.663 739.112 853.066 735.378 851.255 730.722C849.444 726.066 849.564 720.859 851.566 716.269L874.237 664.298L867.007 661.144C863.391 659.567 860.097 657.253 857.345 654.403C854.654 651.528 852.486 648.16 851.037 644.434C849.632 640.728 848.95 636.771 848.659 632.623C849.143 628.813 850.041 624.875 851.628 621.237L873.085 571.932C880.444 556.121 892.041 542.57 906.717 533.239C921.401 523.886 938.482 519.14 955.835 519.642C957.923 519.553 960.684 520.386 962.817 521.605C964.949 522.823 966.757 524.551 968.055 526.626C969.353 528.7 970.158 531.082 970.318 533.533C970.524 535.999 969.725 538.3 969.126 540.73L885.998 731.289Z" fill="white"/>
</g>
<g clip-path="url(#clip3_94_36)">
<path d="M832.124 186.928C863.358 171.692 899.988 180.697 921.684 206.359L888.929 239.145C885.225 242.85 885.226 248.824 888.93 252.528C890.784 254.306 893.237 255.257 895.682 255.257C898.126 255.257 900.463 254.305 902.314 252.527L931.643 222.717L1007.59 378.471C1009.29 382.027 1009.36 386.324 1007.59 390.106C1004.33 396.697 996.327 399.442 989.807 396.26L910.617 357.595L939.716 328.395C943.495 324.764 943.494 318.686 939.714 315.059C936.009 311.355 930.011 311.356 926.378 315.061L892.61 348.837L832.151 319.273C817.925 312.382 805.773 300.748 798.286 285.416C780.388 248.872 795.556 204.832 832.124 186.928ZM777.593 166.308C766.033 142.127 771.957 113.606 796.018 94.1149C825.804 118.857 827.148 157.827 800.696 184.146L795.955 188.888C769.123 215.326 730.064 214.026 705.404 184.216C724.901 160.683 753.943 154.753 777.593 166.308Z" fill="white"/>
</g>
<g clip-path="url(#clip4_94_36)">
<path d="M476.685 293.516C476.924 293.559 477.167 293.602 477.406 293.645C483.675 277.809 500.425 268.036 517.843 271.151C524.189 272.286 530.16 275.258 535.345 279.507C543.4 269.011 556.919 263.277 570.826 265.764C584.734 268.252 595.427 278.32 599.345 290.953C605.276 288.693 611.907 287.975 618.658 289.182C636.076 292.297 647.996 307.197 648.792 324.297C649.017 324.338 649.287 324.386 649.512 324.426C665.4 327.268 676.007 342.495 673.165 358.382C672.223 363.648 669.951 368.304 666.719 372.092L444.006 332.26C442.314 327.592 441.788 322.435 442.729 317.169C445.571 301.281 460.775 290.671 476.685 293.516ZM428.171 357.017C429.386 350.221 435.903 345.674 442.722 346.894L662.883 386.269C669.679 387.485 674.225 394.011 673.009 400.807C667.141 433.617 640.825 457.661 609.517 462.094C609.623 463.32 609.577 464.613 609.352 465.873C607.927 473.839 600.34 479.124 592.374 477.699L477.156 457.093C469.189 455.668 463.905 448.081 465.329 440.114C465.555 438.854 465.96 437.626 466.484 436.512C438.654 421.502 422.303 389.828 428.171 357.017Z" fill="white"/>
</g>
<g clip-path="url(#clip5_94_36)">
<path d="M346.225 167.497C352.524 170.63 357.343 176.127 359.577 182.782C361.811 189.437 361.284 196.727 358.151 203.027C355.017 209.326 349.521 214.145 342.866 216.378L141.636 283.923C134.965 286.162 127.67 285.637 121.37 282.504C115.071 279.37 110.273 273.867 108.039 267.212C105.806 260.557 106.311 253.273 109.445 246.974C112.578 240.675 118.079 235.854 124.75 233.615L325.98 166.071C332.635 163.837 339.926 164.364 346.225 167.497ZM363.628 230.809C365.727 231.853 367.339 233.703 368.078 235.904L370.892 244.288C373.724 252.725 373.239 262.917 369.061 271.316C364.883 279.715 357.049 286.252 348.612 289.084L180.92 345.371C172.027 348.355 162.317 347.708 153.918 343.53C145.514 339.354 138.956 331.527 136.124 323.09L133.31 314.705C132.571 312.504 132.736 310.058 133.78 307.958C134.825 305.859 136.658 304.252 138.88 303.506L356.879 230.333C359.08 229.595 361.528 229.764 363.628 230.809ZM111.427 217.563C108.702 217.195 106.113 216.256 103.824 214.751C101.534 213.245 99.6318 211.26 98.2425 208.927C96.8356 206.543 96.0032 203.907 95.7825 201.182C92.0594 151.891 128.582 101.72 185.964 82.4591C243.346 63.1985 302.732 81.1768 329.508 122.73C330.981 125.035 331.913 127.637 332.198 130.399C332.519 133.09 332.21 135.817 331.271 138.406C329.913 141.136 328.886 143.288 326.915 145.233C324.979 147.107 322.605 148.546 319.984 149.425L119.473 216.728C116.884 217.597 114.128 217.881 111.427 217.563ZM262.018 106.318C260.973 108.418 260.804 110.865 261.542 113.066C262.105 114.743 263.122 116.209 264.523 117.255C265.923 118.301 267.131 119.12 269.334 119.081C270.906 118.728 272.794 118.794 274.313 117.934C275.832 117.074 277.088 115.778 277.836 114.186C278.654 112.628 278.93 110.845 278.7 109.115C278.469 107.385 277.277 105.919 276.61 104.452C275.312 102.672 273.931 102.203 272.251 101.717C270.572 101.231 268.631 100.833 266.954 101.396C264.753 102.134 263.062 104.218 262.018 106.318ZM189.311 112.058C188.266 114.158 188.091 116.59 188.837 118.812C189.393 120.468 190.417 121.955 191.817 123.001C193.218 124.047 194.426 124.866 196.628 124.826C198.201 124.473 200.089 124.539 201.608 123.679C203.127 122.82 204.383 121.524 205.131 119.931C205.949 118.374 206.225 116.59 205.998 114.871C205.767 113.141 204.572 111.664 203.901 110.187C202.757 108.863 201.217 107.922 199.546 107.462C197.874 106.997 195.926 106.578 194.249 107.141C192.048 107.88 190.355 109.958 189.311 112.058ZM127.865 151.347C126.82 153.447 126.65 155.895 127.389 158.096C127.952 159.773 128.969 161.239 130.37 162.285C131.77 163.33 132.978 164.15 135.18 164.11C136.753 163.757 138.641 163.823 140.16 162.963C141.679 162.104 142.935 160.807 143.683 159.215C144.501 157.658 144.777 155.874 144.546 154.144C144.316 152.414 143.124 150.948 142.457 149.481C141.159 147.701 139.777 147.232 138.098 146.746C136.419 146.26 134.478 145.862 132.801 146.425C130.6 147.164 128.909 149.247 127.865 151.347Z" fill="white"/>
</g>
</g>
<defs>
<clipPath id="clip0_94_36">
<rect x="54.64" y="0.687622" width="1027" height="708" rx="67" transform="rotate(4.39533 54.64 0.687622)" fill="white"/>
</clipPath>
<clipPath id="clip1_94_36">
<rect width="330.027" height="292.744" fill="white" transform="translate(137.57 393.198) rotate(19.3953)"/>
</clipPath>
<clipPath id="clip2_94_36">
<rect width="210.366" height="241.921" fill="white" transform="translate(782.353 442.758) rotate(23.5683)"/>
</clipPath>
<clipPath id="clip3_94_36">
<rect width="303.464" height="303.464" fill="white" transform="matrix(-1 0.000110714 0.000110714 1 1008.86 94.0914)"/>
</clipPath>
<clipPath id="clip4_94_36">
<rect width="263.354" height="234.092" fill="white" transform="translate(443.782 228.18) rotate(10.1401)"/>
</clipPath>
<clipPath id="clip5_94_36">
<rect width="283.017" height="283.017" fill="white" transform="translate(46.1825 110.719) rotate(-18.5547)"/>
</clipPath>
</defs>
</svg>
