<svg width="1079" height="785" viewBox="0 0 1079 785" fill="none" xmlns="http://www.w3.org/2000/svg">
<g clip-path="url(#clip0_95_47)">
<rect x="54.2595" width="1027" height="708" rx="67" transform="rotate(4.39533 54.2595 0)" fill="#212125"/>
<path d="M-563.472 512.957C-558.496 511.069 -553.571 510.992 -548.698 512.724C-543.872 514.385 -540.049 517.403 -537.229 521.779C-533.161 528.091 -532.149 534.545 -534.192 541.141C-536.21 547.619 -541.164 553.4 -549.054 558.485L-584.236 581.159L-632.913 505.63L-598.914 483.718C-591.239 478.772 -584.117 476.669 -577.548 477.41C-570.908 478.105 -565.646 481.465 -561.763 487.49C-558.897 491.938 -557.7 496.394 -558.172 500.861C-558.572 505.281 -560.338 509.313 -563.472 512.957ZM-594.822 524.329L-582.772 516.562C-579.759 514.621 -577.88 512.496 -577.134 510.188C-576.363 507.762 -576.809 505.258 -578.473 502.676C-580.137 500.094 -582.233 498.653 -584.761 498.353C-587.218 498.007 -589.952 498.805 -592.965 500.746L-605.015 508.513L-594.822 524.329ZM-561.85 545.717C-558.766 543.73 -556.838 541.523 -556.067 539.097C-555.27 536.553 -555.727 533.954 -557.437 531.3C-559.147 528.646 -561.384 527.144 -564.148 526.793C-566.841 526.396 -569.729 527.192 -572.813 529.179L-586.155 537.778L-575.407 554.454L-561.85 545.717ZM-469.524 507.23L-516.411 490.241L-494.916 523.595L-513.314 535.452L-561.99 459.922L-543.592 448.065L-522.236 481.203L-518.416 431.84L-496.79 417.902L-502.202 473.774L-447.037 492.739L-469.524 507.23ZM-402.088 464.836C-409.189 469.412 -416.779 471.969 -424.859 472.507C-432.867 472.998 -440.524 471.435 -447.829 467.818C-455.109 464.084 -461.13 458.522 -465.891 451.134C-470.652 443.747 -473.207 436.002 -473.554 427.902C-473.83 419.755 -472.091 412.136 -468.335 405.046C-464.508 397.91 -459.044 392.054 -451.943 387.477C-444.842 382.901 -437.288 380.367 -429.279 379.876C-421.2 379.339 -413.579 380.925 -406.417 384.634C-399.183 388.297 -393.186 393.822 -388.425 401.21C-383.663 408.598 -381.086 416.378 -380.692 424.55C-380.344 432.651 -382.048 440.246 -385.803 447.336C-389.559 454.426 -394.987 460.26 -402.088 464.836ZM-412.905 448.052C-406.88 444.169 -403.368 439.063 -402.371 432.735C-401.301 426.361 -402.893 419.874 -407.146 413.275C-411.445 406.604 -416.695 402.475 -422.895 400.888C-429.07 399.182 -435.17 400.271 -441.196 404.154C-447.292 408.083 -450.899 413.199 -452.014 419.502C-453.058 425.758 -451.408 432.258 -447.062 439C-442.763 445.671 -437.526 449.859 -431.351 451.564C-425.151 453.152 -419.002 451.981 -412.905 448.052ZM-383.991 345.207L-335.314 420.736L-353.712 432.593L-402.389 357.064L-383.991 345.207ZM-254.413 368.598L-272.812 380.455L-333.607 353.699L-303.583 400.287L-321.981 412.144L-370.658 336.614L-352.259 324.757L-291.325 351.728L-321.488 304.926L-303.09 293.069L-254.413 368.598ZM-224.222 276.047C-227.203 274.415 -230.401 273.785 -233.815 274.158C-237.204 274.413 -240.619 275.65 -244.062 277.869C-250.016 281.706 -253.515 286.753 -254.558 293.009C-255.649 299.194 -254.09 305.55 -249.884 312.077C-245.4 319.034 -240.022 323.284 -233.749 324.825C-227.452 326.248 -221.003 324.834 -214.404 320.581C-209.885 317.669 -206.823 314.071 -205.218 309.788C-203.542 305.459 -203.373 300.68 -204.712 295.452L-228.059 310.498L-236.796 296.942L-196.772 271.148L-185.747 288.255C-184.151 293.724 -183.732 299.494 -184.489 305.565C-185.174 311.59 -187.241 317.44 -190.691 323.115C-194.14 328.789 -199.021 333.661 -205.333 337.729C-212.792 342.536 -220.503 345.221 -228.465 345.784C-236.401 346.229 -243.892 344.61 -250.935 340.926C-257.907 337.196 -263.797 331.602 -268.605 324.142C-273.412 316.682 -276.074 309.007 -276.591 301.117C-277.082 293.109 -275.463 285.619 -271.733 278.647C-268.049 271.603 -262.478 265.677 -255.018 260.87C-245.98 255.045 -236.967 252.333 -227.979 252.733C-218.919 253.087 -210.888 256.49 -203.887 262.942L-224.222 276.047ZM-149.248 279.503L-116.755 258.563L-107.048 273.626L-160.413 308.018L-169.428 294.031L-167.105 226.75L-199.382 247.552L-209.09 232.489L-155.724 198.096L-146.71 212.083L-149.248 279.503ZM-70.4735 177.57C-67.6537 181.945 -66.0692 186.609 -65.7201 191.562C-65.4171 196.442 -66.6293 201.335 -69.3565 206.24C-72.0837 211.145 -76.5316 215.585 -82.7002 219.56L-94.1049 226.91L-76.6313 254.023L-95.0295 265.88L-143.706 190.351L-113.903 171.144C-107.878 167.261 -102.115 165.019 -96.6141 164.418C-91.1133 163.817 -86.1441 164.675 -81.7064 166.992C-77.2688 169.31 -73.5245 172.836 -70.4735 177.57ZM-93.529 205.829C-90.0144 203.564 -87.9279 201.052 -87.2697 198.293C-86.6114 195.533 -87.253 192.648 -89.1945 189.635C-91.136 186.622 -93.4991 184.846 -96.2838 184.306C-99.0685 183.765 -102.218 184.628 -105.733 186.893L-115.739 193.341L-103.535 212.278L-93.529 205.829ZM10.6282 197.787L-23.4552 179.399L-27.8665 182.242L-9.49146 210.754L-27.8897 222.611L-76.5661 147.081L-45.6872 127.181C-39.7338 123.344 -34.0067 121.125 -28.5059 120.524C-22.9334 119.877 -17.9283 120.712 -13.4907 123.03C-9.09924 125.275 -5.4705 128.622 -2.60447 133.069C0.631386 138.09 2.08598 143.497 1.75931 149.292C1.50438 155.039 -0.853012 160.518 -5.31285 165.727L31.3935 184.405L10.6282 197.787ZM-36.2566 169.223L-24.8518 161.873C-21.4806 159.701 -19.5017 157.258 -18.9152 154.545C-18.2569 151.786 -18.8986 148.9 -20.8401 145.887C-22.6891 143.018 -25.006 141.313 -27.7907 140.773C-30.5036 140.187 -33.5457 140.98 -36.9169 143.152L-48.3217 150.502L-36.2566 169.223ZM42.7903 70.1597L52.2898 84.8998L21.5185 104.731L31.7808 120.655L54.8055 105.816L64.0276 120.126L41.003 134.964L60.6954 165.52L42.2972 177.377L-6.37922 101.848L42.7903 70.1597ZM139.556 95.8145L111.367 113.982L115.446 130.235L96.1873 142.647L74.8392 49.5052L96.1424 35.776L172.147 93.6932L152.673 106.244L139.556 95.8145ZM125.669 84.6633L98.4884 63.0448L107.056 96.6591L125.669 84.6633ZM224.254 60.1117L177.367 43.1223L198.863 76.4758L180.465 88.3329L131.788 12.8034L150.186 0.946325L171.543 34.0846L175.363 -15.2792L196.989 -29.2164L191.577 26.6556L246.741 45.6197L224.254 60.1117ZM224.884 -47.1938L254.006 -2.00522C256.919 2.51364 260.272 5.27593 264.068 6.28166C267.863 7.28739 271.912 6.40346 276.216 3.62988C280.52 0.856293 283.033 -2.4895 283.757 -6.40749C284.48 -10.3255 283.386 -14.5439 280.474 -19.0628L251.351 -64.2514L269.749 -76.1084L298.803 -31.0274C303.148 -24.285 305.388 -17.6581 305.524 -11.1468C305.66 -4.63538 304.051 1.37552 300.699 6.88594C297.419 12.3501 292.802 17.0006 286.849 20.8374C280.895 24.6742 274.812 26.9704 268.599 27.7261C262.411 28.3638 256.452 27.2298 250.722 24.3241C244.945 21.3466 239.884 16.4867 235.539 9.74427L206.485 -35.3367L224.884 -47.1938ZM348.2 -92.8615C345.219 -94.4937 342.022 -95.1232 338.608 -94.7502C335.219 -94.4951 331.803 -93.2581 328.36 -91.0392C322.407 -87.2024 318.908 -82.1559 317.864 -75.8995C316.774 -69.7149 318.332 -63.3589 322.539 -56.8317C327.023 -49.8741 332.401 -45.6247 338.673 -44.0834C344.971 -42.6601 351.419 -44.0749 358.018 -48.3277C362.537 -51.24 365.599 -54.8376 367.204 -59.1206C368.881 -63.4499 369.05 -68.2286 367.711 -73.4568L344.363 -58.4101L335.626 -71.9667L375.651 -97.761L386.676 -80.6539C388.271 -75.185 388.691 -69.4149 387.934 -63.3434C387.248 -57.3182 385.181 -51.4683 381.732 -45.7937C378.282 -40.1191 373.402 -35.2478 367.09 -31.1799C359.63 -26.3724 351.919 -23.6872 343.957 -23.1244C336.021 -22.6795 328.531 -24.2988 321.487 -27.9824C314.515 -31.7122 308.625 -37.3069 303.818 -44.7666C299.01 -52.2263 296.348 -59.9012 295.831 -67.7914C295.34 -75.7995 296.96 -83.2896 300.689 -90.2617C304.373 -97.3055 309.945 -103.231 317.404 -108.039C326.442 -113.863 335.455 -116.576 344.443 -116.176C353.504 -115.822 361.534 -112.419 368.535 -105.967L348.2 -92.8615ZM430.155 -145.679C427.174 -147.311 423.977 -147.941 420.562 -147.567C417.174 -147.312 413.758 -146.075 410.315 -143.857C404.361 -140.02 400.863 -134.973 399.819 -128.717C398.728 -122.532 400.287 -116.176 404.493 -109.649C408.977 -102.691 414.355 -98.442 420.628 -96.9007C426.926 -95.4774 433.374 -96.8922 439.973 -101.145C444.492 -104.057 447.554 -107.655 449.159 -111.938C450.836 -116.267 451.004 -121.046 449.665 -126.274L426.318 -111.227L417.581 -124.784L457.605 -150.578L468.63 -133.471C470.226 -128.002 470.645 -122.232 469.888 -116.161C469.203 -110.136 467.136 -104.286 463.686 -98.611C460.237 -92.9364 455.357 -88.0651 449.044 -83.9972C441.585 -79.1897 433.874 -76.5045 425.912 -75.9417C417.976 -75.4968 410.486 -77.1162 403.442 -80.7997C396.47 -84.5295 390.58 -90.1242 385.772 -97.5839C380.965 -105.044 378.303 -112.719 377.786 -120.609C377.295 -128.617 378.914 -136.107 382.644 -143.079C386.328 -150.123 391.899 -156.049 399.359 -160.856C408.397 -166.681 417.41 -169.393 426.398 -168.993C435.458 -168.639 443.489 -165.236 450.49 -158.784L430.155 -145.679ZM533.674 -158.183L505.485 -140.016L509.565 -123.762L490.306 -111.35L468.957 -204.492L490.261 -218.221L566.265 -160.304L546.791 -147.753L533.674 -158.183ZM519.787 -169.334L492.607 -190.952L501.174 -157.338L519.787 -169.334ZM611.442 -296.319L660.118 -220.789L641.72 -208.932L612.528 -254.228L624.828 -198.046L609.981 -188.477L563.72 -222.925L592.981 -177.521L574.583 -165.664L525.906 -241.194L547.64 -255.2L602.535 -216.571L589.816 -282.381L611.442 -296.319ZM717.139 -257.537L670.252 -274.526L691.747 -241.173L673.349 -229.316L624.672 -304.845L643.071 -316.702L664.427 -283.564L668.247 -332.928L689.873 -346.865L684.461 -290.993L739.625 -272.029L717.139 -257.537ZM815.937 -321.209L797.538 -309.352L736.743 -336.108L766.767 -289.521L748.369 -277.664L699.692 -353.193L718.091 -365.051L779.025 -338.079L748.862 -384.882L767.26 -396.739L815.937 -321.209ZM798.995 -417.191L847.671 -341.661L829.273 -329.804L780.596 -405.334L798.995 -417.191ZM-514.402 678.534L-504.556 693.812L-479.917 677.933L-470.764 692.135L-495.403 708.014L-484.725 724.583L-456.858 706.624L-447.359 721.364L-493.623 751.18L-542.3 675.651L-496.035 645.835L-486.536 660.575L-514.402 678.534ZM-407.601 696.807C-413.124 700.367 -418.651 702.66 -424.182 703.687C-429.713 704.713 -434.938 704.324 -439.857 702.52C-444.704 700.67 -448.794 697.316 -452.128 692.459L-432.546 679.839C-430.456 682.452 -428.101 683.98 -425.48 684.423C-422.906 684.794 -420.292 684.124 -417.638 682.414C-414.913 680.657 -413.154 678.661 -412.361 676.425C-411.616 674.117 -411.959 671.851 -413.392 669.627C-414.594 667.762 -416.233 666.636 -418.31 666.249C-420.316 665.815 -422.505 665.805 -424.878 666.218C-427.18 666.585 -430.34 667.352 -434.358 668.521C-440.207 670.158 -445.158 671.217 -449.213 671.698C-453.268 672.18 -457.355 671.667 -461.474 670.159C-465.593 668.651 -469.178 665.53 -472.229 660.796C-476.759 653.767 -477.749 646.638 -475.199 639.411C-472.695 632.112 -467.354 625.828 -459.177 620.558C-450.857 615.196 -442.856 612.882 -435.175 613.617C-427.54 614.28 -421.254 618.046 -416.319 624.916L-436.224 637.744C-437.939 635.398 -440.061 634.075 -442.589 633.775C-445.163 633.404 -447.741 634.05 -450.323 635.714C-452.547 637.147 -453.947 638.913 -454.524 641.011C-455.147 643.036 -454.743 645.161 -453.31 647.385C-451.738 649.824 -449.365 650.985 -446.192 650.868C-443.018 650.752 -438.484 649.911 -432.589 648.346C-426.649 646.852 -421.687 645.887 -417.703 645.452C-413.648 644.971 -409.584 645.448 -405.512 646.884C-401.439 648.32 -397.947 651.298 -395.035 655.817C-392.261 660.12 -390.853 664.746 -390.812 669.694C-390.699 674.595 -392.052 679.427 -394.871 684.188C-397.691 688.949 -401.934 693.156 -407.601 696.807ZM-346.994 549.782L-325.108 642.577L-348.132 657.416L-423.599 599.152L-404.017 586.532L-348.546 631.491L-366.468 562.333L-346.994 549.782ZM-291.964 514.317L-258.819 565.746C-253.688 573.708 -251.995 581.297 -253.741 588.513C-255.414 595.682 -260.052 601.717 -267.656 606.617C-275.617 611.748 -283.457 613.603 -291.175 612.181C-298.893 610.76 -305.434 605.889 -310.796 597.568L-292.505 585.78C-290.471 588.936 -288.277 590.923 -285.923 591.741C-283.615 592.487 -281.241 592.074 -278.803 590.502C-276.579 589.069 -275.32 587.243 -275.025 585.022C-274.73 582.802 -275.461 580.329 -277.218 577.603L-310.362 526.174L-291.964 514.317ZM-190.007 536.626L-218.196 554.793L-214.116 571.047L-233.375 583.459L-254.723 490.317L-233.42 476.588L-157.416 534.505L-176.89 547.055L-190.007 536.626ZM-203.893 525.475L-231.074 503.856L-222.507 537.471L-203.893 525.475ZM-112.239 398.49L-63.5626 474.02L-81.9608 485.877L-111.153 440.58L-98.8527 496.763L-113.7 506.332L-159.961 471.884L-130.7 517.288L-149.098 529.145L-197.775 453.615L-176.041 439.608L-121.146 478.238L-133.865 412.427L-112.239 398.49ZM4.92514 322.981L33.9123 411.2L11.6407 425.553L-32.4445 383.612L-12.8902 441.363L-35.1617 455.716L-102.99 392.529L-83.3002 379.84L-37.0009 427.816L-58.9844 364.169L-38.7572 351.133L9.58643 397.792L-14.8718 335.74L4.92514 322.981ZM78.9223 275.292L85.3671 342.71L101.454 367.672L83.0557 379.529L66.9689 354.567L8.23443 320.849L29.1073 307.397L64.1256 329.599L58.2647 288.606L78.9223 275.292ZM202.579 302.499L184.181 314.356L123.386 287.6L153.41 334.188L135.012 346.045L86.3352 270.515L104.733 258.658L165.667 285.629L135.505 238.827L153.903 226.97L202.579 302.499ZM232.01 176.632L238.454 244.05L254.541 269.011L236.143 280.869L220.056 255.907L161.322 222.189L182.195 208.737L217.213 230.939L211.352 189.946L232.01 176.632ZM304.954 163.428C301.973 161.796 298.775 161.166 295.361 161.539C291.972 161.795 288.556 163.032 285.114 165.25C279.16 169.087 275.661 174.134 274.618 180.39C273.527 186.575 275.086 192.931 279.292 199.458C283.776 206.416 289.154 210.665 295.427 212.206C301.724 213.63 308.173 212.215 314.772 207.962C319.291 205.05 322.353 201.452 323.958 197.169C325.634 192.84 325.803 188.061 324.464 182.833L301.117 197.88L292.38 184.323L332.404 158.529L343.429 175.636C345.025 181.105 345.444 186.875 344.687 192.946C344.002 198.971 341.935 204.821 338.485 210.496C335.036 216.171 330.155 221.042 323.843 225.11C316.384 229.917 308.673 232.603 300.711 233.165C292.775 233.61 285.284 231.991 278.241 228.307C271.269 224.578 265.379 218.983 260.571 211.523C255.764 204.063 253.102 196.388 252.585 188.498C252.094 180.49 253.713 173 257.443 166.028C261.127 158.984 266.698 153.058 274.158 148.251C283.196 142.426 292.209 139.714 301.197 140.114C310.257 140.468 318.288 143.871 325.289 150.323L304.954 163.428ZM379.299 168.508L403.4 152.976L412.552 167.178L370.054 194.567L321.377 119.038L339.775 107.181L379.299 168.508ZM430.573 135.463L454.674 119.931L463.827 134.133L421.328 161.523L372.651 85.9931L391.05 74.136L430.573 135.463ZM451.823 55.8314L461.67 71.1095L486.308 55.2307L495.461 69.4328L470.823 85.3116L481.501 101.881L509.367 83.9218L518.867 98.6619L472.602 128.478L423.926 52.9484L470.19 23.1324L479.69 37.8724L451.823 55.8314ZM553.038 -30.2603L574.924 62.5348L551.899 77.3735L476.432 19.1096L496.014 6.48976L551.485 51.4484L533.564 -17.7098L553.038 -30.2603ZM626.143 -77.3744L674.819 -1.84488L656.421 10.0122L636.382 -21.0818L607.763 -2.6375L627.802 28.4565L609.404 40.3136L560.727 -35.2159L579.125 -47.0729L598.194 -17.4852L626.813 -35.9295L607.745 -65.5173L626.143 -77.3744ZM693.759 -120.951L703.258 -106.21L683.246 -93.3133L722.423 -32.5239L704.025 -20.6668L664.848 -81.4562L644.836 -68.559L635.336 -83.2991L693.759 -120.951ZM721.068 -138.55L750.19 -93.3618C753.102 -88.8429 756.456 -86.0806 760.252 -85.0749C764.047 -84.0692 768.096 -84.9531 772.4 -87.7267C776.704 -90.5003 779.217 -93.846 779.941 -97.764C780.664 -101.682 779.57 -105.9 776.658 -110.419L747.535 -155.608L765.933 -167.465L794.987 -122.384C799.332 -115.642 801.572 -109.015 801.708 -102.503C801.844 -95.9919 800.235 -89.981 796.883 -84.4706C793.603 -79.0064 788.986 -74.3559 783.033 -70.5191C777.079 -66.6823 770.996 -64.3861 764.783 -63.6305C758.595 -62.9928 752.636 -64.1268 746.906 -67.0325C741.129 -70.0099 736.068 -74.8699 731.723 -81.6123L702.669 -126.693L721.068 -138.55ZM844.269 -217.95L892.945 -142.42L874.547 -130.563L854.508 -161.657L825.888 -143.213L845.927 -112.119L827.529 -100.262L778.853 -175.791L797.251 -187.648L816.319 -158.06L844.939 -176.505L825.87 -206.093L844.269 -217.95ZM922.321 -268.252L928.766 -200.834L944.852 -175.873L926.454 -164.016L910.367 -188.977L851.633 -222.696L872.506 -236.148L907.524 -213.946L901.663 -254.939L922.321 -268.252ZM-392.211 807.342L-359.066 858.771C-353.935 866.733 -352.242 874.321 -353.988 881.537C-355.661 888.707 -360.299 894.742 -367.903 899.642C-375.864 904.773 -383.704 906.628 -391.422 905.206C-399.14 903.784 -405.681 898.913 -411.043 890.593L-392.752 878.805C-390.718 881.961 -388.524 883.948 -386.17 884.766C-383.862 885.512 -381.488 885.099 -379.05 883.527C-376.826 882.094 -375.567 880.267 -375.272 878.047C-374.977 875.827 -375.708 873.354 -377.465 870.628L-410.609 819.199L-392.211 807.342ZM-328.18 766.076L-318.681 780.816L-349.452 800.647L-339.19 816.571L-316.165 801.732L-306.943 816.042L-329.967 830.881L-310.275 861.437L-328.673 873.294L-377.35 797.764L-328.18 766.076ZM-245.278 747.063C-242.458 751.439 -240.874 756.103 -240.524 761.055C-240.221 765.936 -241.434 770.829 -244.161 775.733C-246.888 780.638 -251.336 785.078 -257.504 789.053L-268.909 796.403L-251.436 823.517L-269.834 835.374L-318.51 759.844L-288.707 740.637C-282.682 736.754 -276.919 734.512 -271.418 733.911C-265.918 733.31 -260.948 734.168 -256.511 736.486C-252.073 738.803 -248.329 742.329 -245.278 747.063ZM-268.333 775.322C-264.819 773.057 -262.732 770.545 -262.074 767.786C-261.416 765.027 -262.057 762.141 -263.999 759.128C-265.94 756.116 -268.303 754.339 -271.088 753.799C-273.873 753.259 -277.022 754.121 -280.537 756.386L-290.543 762.835L-278.339 781.771L-268.333 775.322ZM-223.074 698.338C-215.112 693.207 -207.137 690.301 -199.15 689.62C-191.163 688.94 -183.706 690.428 -176.78 694.086C-169.829 697.626 -163.949 703.126 -159.142 710.586C-154.38 717.974 -151.8 725.6 -151.402 733.465C-150.931 741.283 -152.692 748.712 -156.683 755.751C-160.602 762.744 -166.507 768.783 -174.397 773.868L-202.694 792.104L-251.37 716.575L-223.074 698.338ZM-185.843 758.707C-178.885 754.223 -174.695 748.832 -173.272 742.534C-171.848 736.236 -173.379 729.609 -177.863 722.651C-182.347 715.694 -187.773 711.526 -194.143 710.149C-200.512 708.772 -207.176 710.325 -214.134 714.809L-222.849 720.426L-194.558 764.323L-185.843 758.707ZM-69.2644 599.213L-40.2773 687.432L-62.5488 701.785L-106.634 659.844L-87.0798 717.594L-109.351 731.948L-177.179 668.761L-157.49 656.071L-111.19 704.048L-133.174 640.401L-112.947 627.365L-64.6031 674.024L-89.0613 611.971L-69.2644 599.213ZM27.1567 643.972L-6.92668 625.584L-11.3379 628.427L7.03706 656.939L-11.3612 668.796L-60.0376 593.267L-29.1587 573.366C-23.2053 569.529 -17.4782 567.31 -11.9774 566.709C-6.4049 566.062 -1.39982 566.897 3.03784 569.215C7.42928 571.461 11.058 574.807 13.9241 579.254C17.1599 584.275 18.6145 589.683 18.2878 595.477C18.0329 601.225 15.6755 606.703 11.2157 611.912L47.922 630.59L27.1567 643.972ZM-19.728 615.408L-8.32331 608.058C-4.95209 605.886 -2.97322 603.443 -2.38669 600.73C-1.72842 597.971 -2.37005 595.085 -4.31156 592.072C-6.16061 589.203 -8.47748 587.499 -11.2622 586.958C-13.9751 586.372 -17.0172 587.165 -20.3884 589.338L-31.7931 596.688L-19.728 615.408ZM28.5475 536.176L77.2239 611.706L58.8257 623.563L10.1493 548.033L28.5475 536.176ZM100.431 575.43L132.924 554.49L142.631 569.553L89.2658 603.945L80.2517 589.958L82.5745 522.677L50.2969 543.478L40.5894 528.416L93.955 494.023L102.969 508.01L100.431 575.43ZM134.27 468.041C142.232 462.91 150.206 460.004 158.194 459.323C166.181 458.643 173.638 460.131 180.564 463.789C187.515 467.329 193.394 472.829 198.202 480.289C202.963 487.677 205.543 495.303 205.942 503.168C206.412 510.986 204.652 518.415 200.661 525.454C196.741 532.447 190.836 538.486 182.946 543.571L154.65 561.807L105.973 486.278L134.27 468.041ZM171.501 528.41C178.458 523.926 182.649 518.535 184.072 512.237C185.495 505.939 183.965 499.312 179.481 492.354C174.997 485.397 169.57 481.229 163.201 479.852C156.831 478.475 150.168 480.028 143.21 484.512L134.495 490.129L162.786 534.026L171.501 528.41ZM202.221 424.249L231.344 469.438C234.256 473.956 237.61 476.719 241.405 477.724C245.2 478.73 249.25 477.846 253.553 475.073C257.857 472.299 260.371 468.953 261.094 465.035C261.818 461.117 260.723 456.899 257.811 452.38L228.689 407.191L247.087 395.334L276.14 440.415C280.485 447.158 282.726 453.785 282.861 460.296C282.997 466.807 281.389 472.818 278.037 478.329C274.756 483.793 270.14 488.443 264.186 492.28C258.233 496.117 252.149 498.413 245.936 499.169C239.748 499.807 233.789 498.673 228.059 495.767C222.282 492.789 217.221 487.929 212.876 481.187L183.823 436.106L202.221 424.249ZM307.347 356.499L340.491 407.928C345.622 415.889 347.315 423.478 345.57 430.694C343.896 437.864 339.258 443.899 331.655 448.799C323.693 453.93 315.853 455.785 308.135 454.363C300.417 452.941 293.877 448.07 288.515 439.75L306.805 427.962C308.839 431.118 311.033 433.105 313.388 433.923C315.696 434.669 318.069 434.256 320.508 432.684C322.731 431.251 323.991 429.424 324.285 427.204C324.58 424.983 323.849 422.51 322.093 419.785L288.948 368.356L307.347 356.499ZM426.142 279.939L455.129 368.158L432.857 382.511L388.772 340.57L408.326 398.321L386.055 412.674L318.227 349.487L337.916 336.798L384.216 384.774L362.232 321.127L382.459 308.091L430.803 354.75L406.345 292.698L426.142 279.939ZM482.709 243.483L515.853 294.912C520.984 302.874 522.677 310.463 520.932 317.679C519.258 324.848 514.62 330.883 507.017 335.783C499.055 340.914 491.215 342.769 483.497 341.348C475.779 339.926 469.239 335.055 463.877 326.734L482.167 314.947C484.201 318.103 486.395 320.089 488.75 320.907C491.058 321.653 493.431 321.24 495.87 319.668C498.094 318.235 499.353 316.409 499.648 314.188C499.942 311.968 499.212 309.495 497.455 306.769L464.311 255.34L482.709 243.483ZM608.363 287.676L590.29 280.898C587.79 283.321 585.178 285.411 582.452 287.168C575.351 291.744 567.761 294.301 559.681 294.838C551.673 295.329 544.016 293.767 536.711 290.15C529.431 286.415 523.411 280.854 518.649 273.466C513.888 266.078 511.333 258.334 510.986 250.233C510.71 242.087 512.45 234.468 516.205 227.378C520.032 220.242 525.496 214.385 532.597 209.809C539.698 205.233 547.253 202.699 555.261 202.208C563.341 201.67 570.961 203.256 578.123 206.965C585.357 210.628 591.354 216.154 596.115 223.542C600.276 229.997 602.763 236.77 603.576 243.86C604.414 250.832 603.635 257.578 601.238 264.097L630.635 273.323L608.363 287.676ZM537.478 261.332C541.777 268.002 547.014 272.19 553.189 273.896C559.39 275.483 565.538 274.312 571.635 270.383C577.66 266.5 581.172 261.395 582.17 255.067C583.239 248.692 581.647 242.206 577.394 235.607C573.095 228.936 567.846 224.807 561.645 223.219C555.47 221.514 549.37 222.603 543.345 226.486C537.248 230.415 533.642 235.531 532.526 241.834C531.482 248.09 533.133 254.589 537.478 261.332ZM658.852 237.93C653.329 241.49 647.802 243.783 642.271 244.81C636.739 245.836 631.514 245.447 626.595 243.643C621.748 241.793 617.658 238.439 614.325 233.582L633.907 220.962C635.996 223.575 638.351 225.103 640.972 225.546C643.546 225.917 646.16 225.247 648.814 223.537C651.54 221.78 653.299 219.784 654.091 217.548C654.837 215.24 654.493 212.974 653.06 210.75C651.858 208.885 650.219 207.759 648.142 207.372C646.137 206.938 643.948 206.928 641.574 207.341C639.272 207.708 636.112 208.475 632.094 209.644C626.246 211.281 621.294 212.34 617.239 212.821C613.184 213.303 609.097 212.79 604.978 211.282C600.859 209.774 597.274 206.653 594.223 201.919C589.693 194.89 588.703 187.761 591.254 180.534C593.758 173.235 599.098 166.951 607.275 161.681C615.595 156.319 623.596 154.005 631.278 154.74C638.913 155.403 645.198 159.169 650.133 166.039L630.229 178.867C628.513 176.521 626.392 175.198 623.864 174.898C621.289 174.527 618.711 175.173 616.129 176.837C613.905 178.27 612.505 180.036 611.928 182.134C611.305 184.159 611.71 186.284 613.143 188.508C614.715 190.947 617.087 192.108 620.261 191.991C623.434 191.875 627.968 191.034 633.863 189.469C639.804 187.975 644.766 187.011 648.749 186.575C652.804 186.094 656.868 186.571 660.941 188.007C665.013 189.443 668.506 192.421 671.418 196.94C674.191 201.243 675.599 205.869 675.641 210.817C675.754 215.718 674.401 220.55 671.581 225.311C668.761 230.072 664.518 234.279 658.852 237.93ZM764.8 168.584L746.402 180.441L685.606 153.685L715.63 200.272L697.232 212.129L648.556 136.6L666.954 124.743L727.888 151.714L697.725 104.912L716.123 93.0547L764.8 168.584ZM816.556 116.346L788.367 134.513L792.446 150.767L773.187 163.179L751.839 70.0372L773.142 56.3079L849.147 114.225L829.673 126.776L816.556 116.346ZM802.669 105.195L775.488 83.5767L784.056 117.191L802.669 105.195ZM925.032 65.3196L906.634 77.1766L845.838 50.4205L875.862 97.0078L857.464 108.865L808.788 33.3354L827.186 21.4783L888.12 48.4496L857.957 1.64714L876.356 -10.2099L925.032 65.3196ZM917.989 -37.0411C925.95 -42.1723 933.925 -45.0782 941.912 -45.759C949.9 -46.4397 957.356 -44.9511 964.282 -41.2931C971.234 -37.753 977.113 -32.2531 981.921 -24.7934C986.682 -17.4054 989.262 -9.77908 989.66 -1.91443C990.131 5.90399 988.37 13.3327 984.379 20.3718C980.46 27.3646 974.555 33.4035 966.665 38.4884L938.368 56.7247L889.692 -18.8048L917.989 -37.0411ZM955.219 23.3275C962.177 18.8435 966.367 13.4527 967.791 7.15485C969.214 0.857046 967.684 -5.77066 963.2 -12.7283C958.716 -19.6859 953.289 -23.8532 946.919 -25.2303C940.55 -26.6074 933.886 -25.0539 926.929 -20.57L918.214 -14.9535L946.504 28.944L955.219 23.3275ZM1041.1 -81.9653C1043.92 -77.5899 1045.5 -72.926 1045.85 -67.9735C1046.15 -63.0928 1044.94 -58.2001 1042.21 -53.2954C1039.49 -48.3907 1035.04 -43.9506 1028.87 -39.9751L1017.47 -32.6251L1034.94 -5.51197L1016.54 6.34511L967.864 -69.1844L997.667 -88.3915C1003.69 -92.2745 1009.46 -94.5165 1014.96 -95.1175C1020.46 -95.7186 1025.43 -94.8603 1029.86 -92.5427C1034.3 -90.2252 1038.05 -86.6994 1041.1 -81.9653ZM1018.04 -53.7062C1021.56 -55.9713 1023.64 -58.4834 1024.3 -61.2426C1024.96 -64.0018 1024.32 -66.8877 1022.38 -69.9002C1020.43 -72.9128 1018.07 -74.6892 1015.29 -75.2296C1012.5 -75.7699 1009.35 -74.9075 1005.84 -72.6424L995.831 -66.1938L1008.03 -47.2576L1018.04 -53.7062ZM-298.022 975.059L-249.345 1050.59L-267.744 1062.45L-287.783 1031.35L-316.402 1049.8L-296.363 1080.89L-314.761 1092.75L-363.438 1017.22L-345.04 1005.36L-325.971 1034.95L-297.352 1016.5L-316.42 986.916L-298.022 975.059ZM-197.546 1017.21L-231.629 998.817L-236.041 1001.66L-217.666 1030.17L-236.064 1042.03L-284.74 966.499L-253.861 946.599C-247.908 942.762 -242.181 940.543 -236.68 939.942C-231.108 939.295 -226.102 940.13 -221.665 942.447C-217.273 944.693 -213.645 948.04 -210.779 952.487C-207.543 957.508 -206.088 962.915 -206.415 968.709C-206.67 974.457 -209.027 979.936 -213.487 985.145L-176.781 1003.82L-197.546 1017.21ZM-244.431 988.641L-233.026 981.291C-229.655 979.118 -227.676 976.676 -227.089 973.963C-226.431 971.204 -227.073 968.318 -229.014 965.305C-230.863 962.436 -233.18 960.731 -235.965 960.191C-238.678 959.604 -241.72 960.397 -245.091 962.57L-256.496 969.92L-244.431 988.641ZM-122.087 968.574L-168.974 951.585L-147.479 984.938L-165.877 996.795L-214.553 921.266L-196.155 909.409L-174.798 942.547L-170.979 893.183L-149.353 879.246L-154.765 935.118L-99.6003 954.082L-122.087 968.574ZM-68.6302 827.223L-46.7441 920.018L-69.7688 934.857L-145.236 876.593L-125.654 863.973L-70.1829 908.932L-88.1043 839.773L-68.6302 827.223ZM4.59051 813.84C1.60976 812.208 -1.58776 811.579 -5.00204 811.952C-8.39082 812.207 -11.8067 813.444 -15.2496 815.663C-21.203 819.499 -24.7017 824.546 -25.7457 830.802C-26.8358 836.987 -25.2776 843.343 -21.071 849.87C-16.587 856.828 -11.2089 861.077 -4.9366 862.618C1.36121 864.042 7.8096 862.627 14.4086 858.374C18.9274 855.462 21.9894 851.864 23.5944 847.581C25.2712 843.252 25.4401 838.473 24.1011 833.245L0.753632 848.292L-7.98316 834.735L32.041 808.941L43.066 826.048C44.6617 831.517 45.081 837.287 44.324 843.358C43.6387 849.384 41.5714 855.234 38.1221 860.908C34.6729 866.583 29.7922 871.454 23.4802 875.522C16.0205 880.33 8.30966 883.015 0.347785 883.578C-7.58859 884.022 -15.0787 882.403 -22.1225 878.719C-29.0946 874.99 -34.9844 869.395 -39.792 861.935C-44.5995 854.476 -47.2616 846.801 -47.7782 838.911C-48.2693 830.902 -46.6499 823.412 -42.9202 816.44C-39.2366 809.396 -33.665 803.471 -26.2053 798.663C-17.1676 792.839 -8.1545 790.126 0.833916 790.526C9.89406 790.88 17.9245 794.283 24.9254 800.735L4.59051 813.84ZM105.896 822.712C98.7953 827.288 91.2048 829.845 83.125 830.382C75.1169 830.874 67.4602 829.311 60.155 825.694C52.8753 821.96 46.8547 816.398 42.0934 809.01C37.3321 801.622 34.7776 793.878 34.43 785.778C34.1541 777.631 35.8938 770.012 39.6491 762.922C43.4761 755.786 48.9401 749.93 56.0412 745.353C63.1422 740.777 70.6968 738.243 78.7049 737.752C86.7847 737.215 94.4055 738.801 101.567 742.51C108.801 746.172 114.798 751.698 119.56 759.086C124.321 766.474 126.898 774.254 127.292 782.426C127.64 790.527 125.936 798.122 122.181 805.212C118.426 812.302 112.997 818.135 105.896 822.712ZM95.0794 805.928C101.105 802.044 104.616 796.939 105.614 790.611C106.683 784.237 105.091 777.75 100.839 771.151C96.5395 764.48 91.2897 760.351 85.0891 758.764C78.9141 757.058 72.8139 758.147 66.7888 762.03C60.6919 765.959 57.0857 771.075 55.97 777.378C54.926 783.634 56.5767 790.134 60.922 796.876C65.2211 803.547 70.4581 807.735 76.6332 809.44C82.8338 811.028 88.9825 809.857 95.0794 805.928ZM216.389 768.71L198.315 761.932C195.816 764.355 193.204 766.445 190.478 768.202C183.377 772.778 175.786 775.335 167.707 775.872C159.698 776.363 152.042 774.801 144.737 771.184C137.457 767.449 131.436 761.888 126.675 754.5C121.914 747.112 119.359 739.368 119.011 731.267C118.736 723.121 120.475 715.502 124.231 708.412C128.058 701.276 133.522 695.42 140.623 690.843C147.724 686.267 155.278 683.733 163.286 683.242C171.366 682.705 178.987 684.29 186.149 687.999C193.382 691.662 199.38 697.188 204.141 704.576C208.301 711.031 210.788 717.804 211.601 724.894C212.44 731.866 211.66 738.612 209.263 745.131L238.66 754.357L216.389 768.71ZM145.503 742.366C149.803 749.036 155.04 753.225 161.215 754.93C167.415 756.517 173.564 755.347 179.661 751.417C185.686 747.534 189.197 742.429 190.195 736.101C191.265 729.726 189.673 723.24 185.42 716.641C181.121 709.97 175.871 705.841 169.671 704.253C163.496 702.548 157.395 703.637 151.37 707.52C145.273 711.449 141.667 716.565 140.551 722.868C139.508 729.124 141.158 735.623 145.503 742.366ZM208.463 648.645L237.585 693.834C240.498 698.353 243.851 701.115 247.647 702.121C251.442 703.126 255.491 702.242 259.795 699.469C264.099 696.695 266.612 693.349 267.336 689.431C268.059 685.513 266.965 681.295 264.053 676.776L234.93 631.588L253.328 619.731L282.382 664.812C286.727 671.554 288.967 678.181 289.103 684.692C289.239 691.204 287.63 697.214 284.278 702.725C280.998 708.189 276.381 712.84 270.428 716.676C264.474 720.513 258.391 722.809 252.178 723.565C245.99 724.203 240.031 723.069 234.301 720.163C228.524 717.186 223.463 712.326 219.118 705.583L190.064 660.502L208.463 648.645ZM284.646 599.547L333.323 675.077L314.924 686.934L266.248 611.404L284.646 599.547ZM326.276 572.718C334.238 567.587 342.212 564.681 350.199 564C358.187 563.32 365.644 564.808 372.569 568.466C379.521 572.006 385.4 577.506 390.208 584.966C394.969 592.354 397.549 599.98 397.948 607.845C398.418 615.663 396.658 623.092 392.666 630.131C388.747 637.124 382.842 643.163 374.952 648.248L346.655 666.484L297.979 590.955L326.276 572.718ZM363.506 633.087C370.464 628.603 374.654 623.212 376.078 616.914C377.501 610.616 375.971 603.989 371.487 597.031C367.003 590.073 361.576 585.906 355.207 584.529C348.837 583.152 342.173 584.705 335.216 589.189L326.501 594.806L354.791 638.703L363.506 633.087ZM486.944 594.346L468.871 587.568C466.372 589.991 463.759 592.08 461.034 593.837C453.933 598.413 446.342 600.97 438.262 601.507C430.254 601.999 422.597 600.436 415.292 596.819C408.013 593.085 401.992 587.523 397.231 580.135C392.469 572.747 389.915 565.003 389.567 556.903C389.291 548.756 391.031 541.137 394.786 534.047C398.613 526.911 404.077 521.055 411.178 516.478C418.279 511.902 425.834 509.368 433.842 508.877C441.922 508.34 449.543 509.926 456.705 513.635C463.938 517.297 469.935 522.823 474.697 530.211C478.857 536.666 481.344 543.439 482.157 550.529C482.995 557.501 482.216 564.247 479.819 570.766L509.216 579.992L486.944 594.346ZM416.059 568.001C420.358 574.672 425.595 578.86 431.77 580.565C437.971 582.153 444.12 580.982 450.217 577.053C456.242 573.169 459.753 568.064 460.751 561.736C461.82 555.362 460.229 548.875 455.976 542.276C451.677 535.605 446.427 531.476 440.226 529.889C434.051 528.183 427.951 529.272 421.926 533.155C415.829 537.084 412.223 542.2 411.107 548.503C410.063 554.759 411.714 561.259 416.059 568.001ZM526.359 443.771L575.035 519.3L556.637 531.157L536.598 500.063L507.978 518.508L528.018 549.602L509.619 561.459L460.943 485.929L479.341 474.072L498.41 503.66L527.029 485.216L507.961 455.628L526.359 443.771ZM632.107 482.519L585.22 465.53L606.715 498.884L588.317 510.741L539.64 435.211L558.039 423.354L579.395 456.492L583.215 407.129L604.841 393.191L599.429 449.063L654.594 468.027L632.107 482.519ZM718.594 319.881L747.581 408.1L725.31 422.453L681.225 380.512L700.779 438.262L678.507 452.616L610.68 389.429L630.369 376.739L676.668 424.716L654.685 361.069L674.912 348.033L723.256 394.692L698.797 332.639L718.594 319.881ZM756.118 295.698C764.08 290.567 772.054 287.661 780.042 286.98C788.029 286.3 795.486 287.788 802.412 291.446C809.363 294.986 815.242 300.486 820.05 307.946C824.811 315.334 827.391 322.96 827.79 330.825C828.26 338.643 826.5 346.072 822.509 353.111C818.589 360.104 812.684 366.143 804.794 371.228L776.498 389.464L727.821 313.935L756.118 295.698ZM793.349 356.067C800.306 351.583 804.497 346.192 805.92 339.894C807.343 333.596 805.813 326.969 801.329 320.011C796.845 313.053 791.418 308.886 785.049 307.509C778.679 306.132 772.016 307.685 765.058 312.169L756.343 317.786L784.634 361.683L793.349 356.067ZM875.434 270.882C880.41 268.995 885.335 268.917 890.208 270.65C895.034 272.311 898.858 275.329 901.677 279.704C905.745 286.016 906.758 292.47 904.714 299.066C902.696 305.544 897.742 311.325 889.852 316.41L854.67 339.084L805.993 263.555L839.992 241.644C847.667 236.697 854.789 234.595 861.358 235.336C867.998 236.031 873.26 239.391 877.143 245.416C880.009 249.863 881.206 254.32 880.735 258.786C880.335 263.206 878.568 267.238 875.434 270.882ZM844.084 282.254L856.134 274.488C859.147 272.546 861.026 270.422 861.772 268.114C862.544 265.688 862.097 263.183 860.433 260.601C858.769 258.019 856.673 256.578 854.145 256.278C851.688 255.933 848.954 256.73 845.941 258.672L833.891 266.438L844.084 282.254ZM877.056 303.643C880.14 301.655 882.068 299.448 882.839 297.022C883.636 294.478 883.18 291.879 881.469 289.225C879.759 286.571 877.522 285.069 874.758 284.719C872.066 284.322 869.177 285.117 866.093 287.105L852.752 295.703L863.499 312.38L877.056 303.643ZM969.382 265.156L922.495 248.167L943.99 281.52L925.592 293.377L876.916 217.848L895.314 205.991L916.671 239.129L920.491 189.765L942.116 175.828L936.704 231.7L991.869 250.664L969.382 265.156ZM970.011 157.85L999.134 203.039C1002.05 207.558 1005.4 210.32 1009.2 211.326C1012.99 212.332 1017.04 211.448 1021.34 208.674C1025.65 205.901 1028.16 202.555 1028.88 198.637C1029.61 194.719 1028.51 190.5 1025.6 185.981L996.479 140.793L1014.88 128.936L1043.93 174.017C1048.28 180.759 1050.52 187.386 1050.65 193.898C1050.79 200.409 1049.18 206.42 1045.83 211.93C1042.55 217.394 1037.93 222.045 1031.98 225.882C1026.02 229.718 1019.94 232.015 1013.73 232.77C1007.54 233.408 1001.58 232.274 995.849 229.368C990.073 226.391 985.012 221.531 980.666 214.789L951.613 169.708L970.011 157.85ZM1144.04 152.594L1125.64 164.451L1064.85 137.695L1094.87 184.282L1076.47 196.139L1027.8 120.61L1046.19 108.753L1107.13 135.724L1076.97 88.9214L1095.36 77.0644L1144.04 152.594ZM1136.6 71.3525L1146.44 86.6305L1171.08 70.7518L1180.24 84.9539L1155.6 100.833L1166.28 117.402L1194.14 99.4429L1203.64 114.183L1157.38 143.999L1108.7 68.4695L1154.97 38.6534L1164.46 53.3935L1136.6 71.3525ZM-143.34 1211.76C-150.441 1216.33 -158.032 1218.89 -166.111 1219.43C-174.12 1219.92 -181.776 1218.35 -189.082 1214.74C-196.361 1211 -202.382 1205.44 -207.143 1198.05C-211.904 1190.67 -214.459 1182.92 -214.807 1174.82C-215.082 1166.67 -213.343 1159.06 -209.587 1151.97C-205.76 1144.83 -200.296 1138.97 -193.195 1134.4C-186.094 1129.82 -178.54 1127.29 -170.532 1126.8C-162.452 1126.26 -154.831 1127.84 -147.669 1131.55C-140.436 1135.22 -134.438 1140.74 -129.677 1148.13C-124.916 1155.52 -122.338 1163.3 -121.944 1171.47C-121.597 1179.57 -123.3 1187.17 -127.056 1194.26C-130.811 1201.35 -136.239 1207.18 -143.34 1211.76ZM-154.157 1194.97C-148.132 1191.09 -144.621 1185.98 -143.623 1179.65C-142.553 1173.28 -144.145 1166.79 -148.398 1160.19C-152.697 1153.52 -157.947 1149.4 -164.147 1147.81C-170.322 1146.1 -176.423 1147.19 -182.448 1151.07C-188.545 1155 -192.151 1160.12 -193.267 1166.42C-194.31 1172.68 -192.66 1179.18 -188.315 1185.92C-184.015 1192.59 -178.778 1196.78 -172.603 1198.48C-166.403 1200.07 -160.254 1198.9 -154.157 1194.97ZM-85.7191 1153.45L-61.6186 1137.92L-52.4657 1152.12L-94.9645 1179.51L-143.641 1103.98L-125.243 1092.13L-85.7191 1153.45ZM-71.218 1110.61C-76.0255 1103.15 -78.6876 1095.47 -79.2042 1087.58C-79.767 1079.62 -78.2194 1072.18 -74.5613 1065.25C-70.8778 1058.21 -65.3779 1052.33 -58.0617 1047.61C-49.0957 1041.83 -39.8953 1039.25 -30.4606 1039.87C-21.0258 1040.49 -12.5977 1044.2 -5.176 1050.99L-25.4033 1064.03C-28.9435 1061.84 -32.6439 1060.82 -36.5045 1060.98C-40.2934 1061.08 -43.9452 1062.27 -47.4599 1064.54C-53.1264 1068.19 -56.4457 1073.12 -57.4179 1079.33C-58.3901 1085.54 -56.7498 1091.94 -52.497 1098.54C-48.2442 1105.14 -43.0892 1109.28 -37.0321 1110.96C-30.975 1112.64 -25.1131 1111.65 -19.4466 1108C-15.932 1105.74 -13.3434 1102.9 -11.681 1099.5C-9.94677 1096.04 -9.34352 1092.25 -9.8712 1088.13L10.3561 1075.09C13.4741 1084.65 13.3666 1093.86 10.0338 1102.71C6.65471 1111.48 0.482184 1118.76 -8.48381 1124.54C-15.8001 1129.26 -23.4033 1131.87 -31.2934 1132.39C-39.1581 1132.79 -46.5764 1131.12 -53.5485 1127.39C-60.5206 1123.66 -66.4104 1118.07 -71.218 1110.61ZM84.529 1063.84L54.2353 1050.62L55.5868 1082.49L34.7139 1095.94L34.1679 1041.93L-14.5004 1020.76L6.91033 1006.96L36.7808 1019.99L35.4222 988.583L56.295 975.131L56.8483 1028.68L105.94 1050.04L84.529 1063.84ZM152.035 913.43L200.711 988.959L182.313 1000.82L153.121 955.52L165.421 1011.7L150.574 1021.27L104.313 986.823L133.574 1032.23L115.176 1044.08L66.4994 968.555L88.233 954.548L143.128 993.178L130.409 927.367L152.035 913.43ZM236.168 859.208L258.055 952.003L235.03 966.842L159.563 908.578L179.145 895.958L234.616 940.917L216.694 871.759L236.168 859.208ZM314.761 808.558L336.647 901.353L313.622 916.192L238.156 857.928L257.737 845.308L313.208 890.266L295.287 821.108L314.761 808.558ZM409.645 854.308L375.561 835.92L371.15 838.763L389.525 867.275L371.127 879.132L322.45 803.602L353.329 783.702C359.283 779.865 365.01 777.646 370.511 777.045C376.083 776.398 381.088 777.233 385.526 779.55C389.917 781.796 393.546 785.143 396.412 789.59C399.648 794.611 401.102 800.018 400.776 805.813C400.521 811.56 398.163 817.039 393.704 822.248L430.41 840.926L409.645 854.308ZM362.76 825.744L374.165 818.394C377.536 816.222 379.515 813.779 380.101 811.066C380.76 808.307 380.118 805.421 378.176 802.408C376.327 799.539 374.011 797.834 371.226 797.294C368.513 796.708 365.471 797.501 362.1 799.673L350.695 807.023L362.76 825.744ZM479.832 809.075L445.748 790.687L441.337 793.53L459.712 822.041L441.314 833.898L392.637 758.369L423.516 738.468C429.47 734.632 435.197 732.413 440.697 731.812C446.27 731.164 451.275 732 455.713 734.317C460.104 736.563 463.733 739.91 466.599 744.357C469.835 749.378 471.289 754.785 470.963 760.579C470.708 766.327 468.35 771.806 463.891 777.015L500.597 795.692L479.832 809.075ZM432.947 780.511L444.352 773.161C447.723 770.988 449.702 768.545 450.288 765.833C450.946 763.073 450.305 760.187 448.363 757.175C446.514 754.306 444.197 752.601 441.413 752.061C438.7 751.474 435.658 752.267 432.286 754.44L420.882 761.79L432.947 780.511ZM517.158 678.119L526.658 692.859L506.646 705.756L545.822 766.546L527.424 778.403L488.247 717.613L468.235 730.511L458.736 715.771L517.158 678.119ZM591.162 630.426L597.607 697.844L613.694 722.805L595.295 734.662L579.209 709.701L520.474 675.982L541.347 662.53L576.365 684.732L570.504 643.739L591.162 630.426ZM657.125 673.495L689.618 652.555L699.326 667.618L645.96 702.01L636.946 688.023L639.269 620.742L606.991 641.543L597.284 626.481L650.649 592.088L659.663 606.075L657.125 673.495ZM720.589 633.813L744.69 618.281L753.843 632.483L711.344 659.872L662.668 584.343L681.066 572.486L720.589 633.813ZM763.111 519.61L772.611 534.35L741.84 554.181L752.102 570.105L775.127 555.266L784.349 569.576L761.324 584.414L781.017 614.97L762.618 626.828L713.942 551.298L763.111 519.61ZM859.976 564.084L825.892 545.696L821.481 548.538L839.856 577.05L821.458 588.907L772.781 513.378L803.66 493.477C809.614 489.641 815.341 487.422 820.841 486.821C826.414 486.173 831.419 487.009 835.857 489.326C840.248 491.572 843.877 494.918 846.743 499.366C849.979 504.387 851.433 509.794 851.107 515.588C850.852 521.336 848.494 526.815 844.034 532.024L880.741 550.701L859.976 564.084ZM813.091 535.52L824.496 528.17C827.867 525.997 829.846 523.554 830.432 520.841C831.09 518.082 830.449 515.196 828.507 512.184C826.658 509.315 824.341 507.61 821.557 507.07C818.844 506.483 815.802 507.276 812.43 509.449L801.026 516.799L813.091 535.52ZM935.434 515.453L888.547 498.464L910.043 531.817L891.645 543.674L842.968 468.145L861.366 456.288L882.723 489.426L886.543 440.062L908.169 426.125L902.757 481.997L957.921 500.961L935.434 515.453ZM1028.78 473.567L1010.71 466.789C1008.21 469.212 1005.6 471.302 1002.87 473.058C995.769 477.635 988.179 480.192 980.099 480.729C972.091 481.22 964.434 479.657 957.129 476.041C949.849 472.306 943.829 466.745 939.068 459.357C934.306 451.969 931.752 444.225 931.404 436.124C931.128 427.977 932.868 420.359 936.623 413.269C940.45 406.133 945.914 400.276 953.015 395.7C960.116 391.123 967.671 388.59 975.679 388.099C983.759 387.561 991.38 389.147 998.542 392.856C1005.78 396.519 1011.77 402.044 1016.53 409.432C1020.69 415.888 1023.18 422.661 1023.99 429.751C1024.83 436.723 1024.05 443.468 1021.66 449.988L1051.05 459.214L1028.78 473.567ZM957.896 447.222C962.195 453.893 967.432 458.081 973.607 459.787C979.808 461.374 985.957 460.203 992.054 456.274C998.079 452.391 1001.59 447.285 1002.59 440.957C1003.66 434.583 1002.07 428.096 997.813 421.497C993.514 414.827 988.264 410.698 982.063 409.11C975.888 407.405 969.788 408.494 963.763 412.377C957.666 416.306 954.06 421.422 952.944 427.724C951.9 433.981 953.551 440.48 957.896 447.222ZM1089.88 397.038L1061.69 415.205L1065.77 431.458L1046.51 443.87L1025.16 350.728L1046.46 336.999L1122.47 394.916L1102.99 407.467L1089.88 397.038ZM1075.99 385.886L1048.81 364.268L1057.38 397.882L1075.99 385.886ZM1131.28 282.338L1140.78 297.078L1110.01 316.909L1120.27 332.833L1143.29 317.994L1152.51 332.304L1129.49 347.143L1149.18 377.699L1130.78 389.556L1082.11 314.026L1131.28 282.338ZM1226.48 220.981L1275.16 296.511L1256.76 308.368L1227.57 263.072L1239.87 319.254L1225.02 328.823L1178.76 294.375L1208.02 339.779L1189.62 351.636L1140.95 276.106L1162.68 262.1L1217.58 300.729L1204.86 234.919L1226.48 220.981ZM-58.6395 1277.62L-9.96309 1353.15L-28.3613 1365.01L-48.4005 1333.91L-77.0199 1352.36L-56.9807 1383.45L-75.379 1395.31L-124.055 1319.78L-105.657 1307.92L-86.5888 1337.51L-57.9693 1319.07L-77.0377 1289.48L-58.6395 1277.62ZM58.5759 1202.08L87.5631 1290.3L65.2915 1304.65L21.2063 1262.71L40.7606 1320.46L18.4891 1334.81L-49.3387 1271.63L-29.6494 1258.94L16.6499 1306.91L-5.33364 1243.27L14.8936 1230.23L63.2372 1276.89L38.779 1214.84L58.5759 1202.08ZM115.143 1165.62L148.288 1217.05C153.419 1225.01 155.112 1232.6 153.366 1239.82C151.693 1246.99 147.054 1253.02 139.451 1257.92C131.489 1263.06 123.65 1264.91 115.932 1263.49C108.214 1262.07 101.673 1257.2 96.3111 1248.88L114.602 1237.09C116.636 1240.24 118.83 1242.23 121.184 1243.05C123.492 1243.79 125.866 1243.38 128.304 1241.81C130.528 1240.38 131.787 1238.55 132.082 1236.33C132.377 1234.11 131.646 1231.64 129.889 1228.91L96.745 1177.48L115.143 1165.62ZM199.445 1163.37C204.421 1161.49 209.346 1161.41 214.219 1163.14C219.045 1164.8 222.869 1167.82 225.688 1172.2C229.756 1178.51 230.769 1184.96 228.725 1191.56C226.707 1198.04 221.753 1203.82 213.863 1208.9L178.681 1231.58L130.004 1156.05L164.003 1134.14C171.678 1129.19 178.8 1127.09 185.369 1127.83C192.009 1128.52 197.271 1131.88 201.154 1137.91C204.02 1142.35 205.217 1146.81 204.746 1151.28C204.346 1155.7 202.579 1159.73 199.445 1163.37ZM168.095 1174.75L180.145 1166.98C183.158 1165.04 185.037 1162.91 185.783 1160.61C186.554 1158.18 186.108 1155.67 184.444 1153.09C182.78 1150.51 180.684 1149.07 178.156 1148.77C175.699 1148.42 172.965 1149.22 169.952 1151.16L157.902 1158.93L168.095 1174.75ZM201.067 1196.13C204.151 1194.15 206.079 1191.94 206.85 1189.51C207.647 1186.97 207.191 1184.37 205.48 1181.72C203.77 1179.06 201.533 1177.56 198.769 1177.21C196.076 1176.81 193.188 1177.61 190.104 1179.6L176.762 1188.19L187.51 1204.87L201.067 1196.13ZM250.096 1078.65L259.596 1093.39L228.824 1113.22L239.087 1129.15L262.111 1114.31L271.334 1128.62L248.309 1143.46L268.001 1174.01L249.603 1185.87L200.927 1110.34L250.096 1078.65ZM314.1 1037.4L323.599 1052.14L303.587 1065.04L342.764 1125.83L324.366 1137.69L285.189 1076.9L265.177 1089.79L255.678 1075.05L314.1 1037.4ZM418.274 1077.17L387.981 1063.95L389.332 1095.82L368.459 1109.27L367.913 1055.26L319.245 1034.09L340.656 1020.29L370.526 1033.32L369.168 1001.91L390.04 988.461L390.594 1042.01L439.685 1063.37L418.274 1077.17ZM458.167 1031.36L482.267 1015.82L491.42 1030.03L448.921 1057.41L400.245 981.885L418.643 970.028L458.167 1031.36ZM562.312 1002.61L544.239 995.833C541.74 998.256 539.127 1000.35 536.401 1002.1C529.3 1006.68 521.71 1009.24 513.63 1009.77C505.622 1010.26 497.965 1008.7 490.66 1005.08C483.38 1001.35 477.36 995.789 472.598 988.401C467.837 981.013 465.283 973.268 464.935 965.168C464.659 957.021 466.399 949.403 470.154 942.313C473.981 935.176 479.445 929.32 486.546 924.743C493.647 920.167 501.202 917.633 509.21 917.142C517.29 916.605 524.911 918.191 532.072 921.9C539.306 925.563 545.303 931.088 550.065 938.476C554.225 944.932 556.712 951.704 557.525 958.794C558.363 965.766 557.584 972.512 555.187 979.031L584.584 988.258L562.312 1002.61ZM491.427 976.266C495.726 982.937 500.963 987.125 507.138 988.83C513.339 990.418 519.488 989.247 525.584 985.318C531.61 981.435 535.121 976.329 536.119 970.001C537.188 963.627 535.596 957.14 531.344 950.541C527.045 943.87 521.795 939.741 515.594 938.154C509.419 936.448 503.319 937.537 497.294 941.42C491.197 945.349 487.591 950.465 486.475 956.768C485.431 963.024 487.082 969.524 491.427 976.266ZM564.208 897.078L574.055 912.356L598.693 896.477L607.846 910.679L583.208 926.558L593.886 943.127L621.752 925.168L631.252 939.908L584.987 969.724L536.311 894.195L582.575 864.378L592.075 879.119L564.208 897.078ZM681.714 907.387L647.631 888.998L643.219 891.841L661.594 920.353L643.196 932.21L594.52 856.681L625.399 836.78C631.352 832.943 637.079 830.725 642.58 830.124C648.152 829.476 653.157 830.311 657.595 832.629C661.986 834.875 665.615 838.221 668.481 842.668C671.717 847.689 673.172 853.097 672.845 858.891C672.59 864.639 670.233 870.117 665.773 875.327L702.479 894.004L681.714 907.387ZM634.829 878.823L646.234 871.473C649.605 869.3 651.584 866.857 652.171 864.144C652.829 861.385 652.187 858.499 650.246 855.487C648.397 852.618 646.08 850.913 643.295 850.373C640.582 849.786 637.54 850.579 634.169 852.752L622.764 860.102L634.829 878.823ZM729.477 769.705L735.922 837.123L752.008 862.084L733.61 873.941L717.523 848.98L658.789 815.261L679.662 801.809L714.68 824.011L708.819 783.018L729.477 769.705ZM853.134 796.912L834.736 808.769L773.94 782.013L803.964 828.6L785.566 840.457L736.89 764.928L755.288 753.07L816.222 780.042L786.059 733.239L804.457 721.382L853.134 796.912ZM836.192 700.93L884.868 776.46L866.47 788.317L817.794 712.787L836.192 700.93ZM907.447 741.808L931.547 726.276L940.7 740.478L898.201 767.867L849.525 692.338L867.923 680.481L907.447 741.808ZM1004.73 592.311L1033.72 680.53L1011.45 694.883L967.363 652.941L986.918 710.692L964.646 725.046L896.818 661.859L916.508 649.169L962.807 697.146L940.823 633.499L961.051 620.463L1009.39 667.121L984.936 605.069L1004.73 592.311ZM1117.89 519.382L1146.88 607.601L1124.61 621.954L1080.52 580.013L1100.08 637.764L1077.81 652.117L1009.98 588.93L1029.67 576.241L1075.97 624.217L1053.98 560.57L1074.21 547.534L1122.55 594.193L1098.1 532.141L1117.89 519.382ZM1214.22 545.323L1186.03 563.49L1190.11 579.743L1170.85 592.155L1149.5 499.013L1170.8 485.284L1246.81 543.201L1227.33 555.752L1214.22 545.323ZM1200.33 534.171L1173.15 512.553L1181.72 546.167L1200.33 534.171ZM1282.94 520.982C1277.42 524.541 1271.89 526.834 1266.36 527.861C1260.83 528.888 1255.6 528.499 1250.68 526.694C1245.83 524.844 1241.74 521.49 1238.41 516.633L1257.99 504.014C1260.08 506.626 1262.44 508.154 1265.06 508.597C1267.63 508.968 1270.25 508.299 1272.9 506.588C1275.63 504.832 1277.39 502.835 1278.18 500.599C1278.92 498.291 1278.58 496.025 1277.15 493.802C1275.95 491.937 1274.31 490.811 1272.23 490.423C1270.22 489.99 1268.03 489.979 1265.66 490.392C1263.36 490.759 1260.2 491.526 1256.18 492.695C1250.33 494.332 1245.38 495.391 1241.33 495.873C1237.27 496.354 1233.18 495.841 1229.07 494.333C1224.95 492.825 1221.36 489.704 1218.31 484.97C1213.78 477.941 1212.79 470.813 1215.34 463.586C1217.84 456.287 1223.18 450.003 1231.36 444.733C1239.68 439.37 1247.68 437.057 1255.36 437.791C1263 438.454 1269.28 442.221 1274.22 449.091L1254.32 461.919C1252.6 459.572 1250.48 458.249 1247.95 457.95C1245.38 457.578 1242.8 458.225 1240.22 459.889C1237.99 461.322 1236.59 463.087 1236.02 465.185C1235.39 467.211 1235.8 469.336 1237.23 471.559C1238.8 473.998 1241.17 475.159 1244.35 475.043C1247.52 474.926 1252.06 474.085 1257.95 472.52C1263.89 471.026 1268.85 470.062 1272.84 469.627C1276.89 469.145 1280.95 469.623 1285.03 471.059C1289.1 472.495 1292.59 475.472 1295.5 479.991C1298.28 484.295 1299.69 488.92 1299.73 493.868C1299.84 498.77 1298.49 503.601 1295.67 508.362C1292.85 513.123 1288.61 517.33 1282.94 520.982ZM1342.08 426.978C1347.06 425.091 1351.98 425.014 1356.86 426.746C1361.68 428.407 1365.51 431.425 1368.33 435.801C1372.39 442.113 1373.41 448.567 1371.36 455.163C1369.35 461.64 1364.39 467.422 1356.5 472.507L1321.32 495.181L1272.64 419.651L1306.64 397.74C1314.32 392.794 1321.44 390.691 1328.01 391.432C1334.65 392.127 1339.91 395.487 1343.79 401.512C1346.66 405.959 1347.86 410.416 1347.38 414.882C1346.98 419.303 1345.22 423.335 1342.08 426.978ZM1310.73 438.35L1322.78 430.584C1325.8 428.643 1327.68 426.518 1328.42 424.21C1329.19 421.784 1328.75 419.28 1327.08 416.698C1325.42 414.115 1323.32 412.674 1320.79 412.375C1318.34 412.029 1315.6 412.827 1312.59 414.768L1300.54 422.534L1310.73 438.35ZM1343.7 459.739C1346.79 457.752 1348.72 455.545 1349.49 453.119C1350.29 450.575 1349.83 447.976 1348.12 445.322C1346.41 442.668 1344.17 441.166 1341.41 440.815C1338.71 440.418 1335.83 441.213 1332.74 443.201L1319.4 451.799L1330.15 468.476L1343.7 459.739Z" fill="white"/>
</g>
<defs>
<clipPath id="clip0_95_47">
<rect x="54.2595" width="1027" height="708" rx="67" transform="rotate(4.39533 54.2595 0)" fill="white"/>
</clipPath>
</defs>
</svg>
