<svg width="1080" height="786" viewBox="0 0 1080 786" fill="none" xmlns="http://www.w3.org/2000/svg">
<g clip-path="url(#clip0_95_47)">
<rect x="0.974487" y="79.7509" width="1027" height="708" rx="67" transform="rotate(-4.4 0.974487 79.7509)" fill="#212125"/>
<path d="M-531.059 681.13C-526.43 678.504 -521.575 677.674 -516.495 678.641C-511.471 679.545 -507.231 681.943 -503.776 685.836C-498.79 691.451 -496.803 697.675 -497.814 704.505C-498.818 711.216 -502.829 717.687 -509.849 723.918L-541.151 751.705L-600.804 684.507L-570.555 657.655C-563.727 651.593 -557.01 648.426 -550.405 648.154C-543.736 647.825 -538.023 650.341 -533.264 655.702C-529.752 659.659 -527.887 663.88 -527.671 668.366C-527.39 672.795 -528.52 677.05 -531.059 681.13ZM-560.302 697.162L-549.581 687.644C-546.9 685.265 -545.368 682.878 -544.984 680.483C-544.592 677.967 -545.416 675.561 -547.456 673.264C-549.495 670.966 -551.787 669.863 -554.331 669.953C-556.812 669.987 -559.392 671.194 -562.072 673.573L-572.793 683.09L-560.302 697.162ZM-524.447 713.258C-521.703 710.822 -520.136 708.346 -519.744 705.83C-519.346 703.194 -520.194 700.696 -522.29 698.335C-524.386 695.974 -526.827 694.831 -529.612 694.907C-532.333 694.927 -535.066 696.154 -537.81 698.59L-549.68 709.127L-536.509 723.965L-524.447 713.258ZM-439.092 661.106L-488.025 651.486L-461.682 681.16L-478.051 695.691L-537.704 628.493L-521.335 613.962L-495.163 643.445L-498.936 594.077L-479.695 576.997L-476.501 633.04L-419.085 643.346L-439.092 661.106ZM-378.931 608.899C-385.249 614.507 -392.359 618.194 -400.261 619.961C-408.1 621.671 -415.906 621.297 -423.678 618.84C-431.443 616.262 -438.243 611.687 -444.078 605.114C-449.913 598.541 -453.622 591.278 -455.204 583.326C-456.723 575.317 -456.168 567.523 -453.541 559.942C-450.85 552.304 -446.346 545.681 -440.028 540.073C-433.71 534.464 -426.632 530.805 -418.793 529.096C-410.891 527.329 -403.117 527.731 -395.472 530.301C-387.764 532.815 -380.992 537.359 -375.157 543.932C-369.322 550.505 -365.585 557.799 -363.946 565.815C-362.364 573.767 -362.887 581.534 -365.514 589.115C-368.141 596.696 -372.613 603.29 -378.931 608.899ZM-392.187 593.966C-386.826 589.207 -384.137 583.625 -384.119 577.218C-384.036 570.755 -386.601 564.589 -391.813 558.717C-397.082 552.783 -402.901 549.505 -409.271 548.884C-415.635 548.143 -421.496 550.152 -426.857 554.91C-432.281 559.725 -435.063 565.333 -435.202 571.732C-435.277 578.074 -432.652 584.245 -427.327 590.243C-422.058 596.178 -416.242 599.516 -409.879 600.258C-403.509 600.878 -397.611 598.781 -392.187 593.966ZM-379.338 487.909L-319.685 555.108L-336.054 569.638L-395.707 502.44L-379.338 487.909ZM-247.708 491.212L-264.077 505.743L-328.248 488.598L-291.454 530.046L-307.823 544.577L-367.476 477.379L-351.107 462.848L-286.765 480.185L-323.73 438.545L-307.361 424.014L-247.708 491.212ZM-232.024 395.133C-235.219 393.976 -238.475 393.843 -241.792 394.733C-245.102 395.504 -248.289 397.248 -251.352 399.968C-256.648 404.67 -259.334 410.192 -259.409 416.534C-259.541 422.813 -257.029 428.856 -251.874 434.663C-246.379 440.853 -240.414 444.23 -233.98 444.794C-227.539 445.238 -221.383 442.854 -215.511 437.642C-211.491 434.073 -209.015 430.05 -208.084 425.571C-207.089 421.037 -207.653 416.288 -209.775 411.326L-230.547 429.766L-241.254 417.705L-205.645 386.094L-192.134 401.314C-189.721 406.475 -188.424 412.113 -188.244 418.229C-188 424.288 -189.148 430.385 -191.689 436.52C-194.23 442.656 -198.309 448.216 -203.925 453.201C-210.561 459.093 -217.771 462.925 -225.553 464.699C-233.328 466.352 -240.978 465.897 -248.502 463.334C-255.962 460.714 -262.639 456.086 -268.53 449.449C-274.422 442.812 -278.226 435.634 -279.943 427.916C-281.653 420.077 -281.198 412.427 -278.578 404.967C-276.015 397.443 -271.415 390.735 -264.778 384.843C-256.737 377.705 -248.245 373.647 -239.301 372.668C-230.293 371.632 -221.837 373.767 -213.932 379.073L-232.024 395.133ZM-157.402 387.085L-128.494 361.422L-116.597 374.824L-164.076 416.972L-175.123 404.528L-183.115 337.682L-211.833 363.175L-223.729 349.773L-176.25 307.625L-165.203 320.069L-157.402 387.085ZM-95.1404 274.305C-91.6847 278.198 -89.4057 282.565 -88.3034 287.405C-87.2577 292.182 -87.7075 297.203 -89.6527 302.467C-91.5978 307.731 -95.3145 312.799 -100.803 317.671L-110.949 326.678L-89.5356 350.801L-105.904 365.332L-165.557 298.133L-139.042 274.595C-133.681 269.836 -128.329 266.74 -122.985 265.304C-117.64 263.869 -112.598 263.958 -107.859 265.57C-103.119 267.181 -98.8793 270.093 -95.1404 274.305ZM-113.604 305.757C-110.477 302.981 -108.799 300.18 -108.57 297.352C-108.342 294.525 -109.417 291.771 -111.796 289.091C-114.176 286.41 -116.783 285.016 -119.617 284.908C-122.452 284.8 -125.433 286.134 -128.56 288.91L-137.462 296.812L-122.506 313.66L-113.604 305.757ZM-11.901 281.884L-48.3953 268.923L-52.32 272.407L-29.8014 297.774L-46.1703 312.305L-105.823 245.106L-78.3503 220.718C-73.0536 216.016 -67.7331 212.948 -62.3889 211.513C-56.9809 210.021 -51.9069 210.081 -47.1671 211.693C-42.4839 213.241 -38.3861 215.993 -34.8738 219.95C-30.9083 224.417 -28.644 229.538 -28.0808 235.314C-27.4539 241.034 -28.9459 246.808 -32.5567 252.638L6.57381 265.483L-11.901 281.884ZM-62.602 260.825L-52.4552 251.817C-49.4559 249.155 -47.8738 246.438 -47.709 243.667C-47.4803 240.84 -48.5557 238.086 -50.935 235.406C-53.201 232.853 -55.7513 231.523 -58.5859 231.414C-61.3566 231.25 -64.2416 232.499 -67.241 235.161L-77.3878 244.168L-62.602 260.825ZM0.367978 150.839L12.0096 163.954L-15.3675 188.257L-2.79112 202.424L17.6939 184.239L28.9956 196.97L8.51064 215.155L32.6437 242.341L16.2749 256.872L-43.378 189.673L0.367978 150.839ZM99.9186 161.396L74.8389 183.66L81.3554 199.099L64.2208 214.309L28.8818 125.527L47.8353 108.702L131.802 154.317L114.476 169.697L99.9186 161.396ZM84.49 152.5L54.3232 135.291L67.9297 167.201L84.49 152.5ZM178.162 113.163L129.228 103.542L155.571 133.217L139.202 147.748L79.5492 80.5492L95.918 66.0183L122.091 95.5014L118.317 46.134L137.558 29.0539L140.753 85.0965L198.168 95.4026L178.162 113.163ZM162.376 7.02268L198.066 47.2269C201.635 51.2473 205.372 53.4643 209.276 53.8779C213.18 54.2915 217.047 52.7988 220.876 49.3997C224.705 46.0007 226.677 42.3099 226.794 38.3274C226.91 34.3448 225.183 30.3433 221.614 26.3229L185.924 -13.8813L202.293 -28.4122L237.898 11.6963C243.223 17.695 246.45 23.9014 247.58 30.3155C248.71 36.7296 248.039 42.9157 245.569 48.8739C243.163 54.7754 239.312 60.0771 234.015 64.7791C228.718 69.4811 223.058 72.6805 217.033 74.3773C211.015 75.9536 204.953 75.7441 198.846 73.7488C192.682 71.6897 186.937 67.6607 181.612 61.662L146.007 21.5535L162.376 7.02268ZM277.26 -56.9637C274.064 -58.1209 270.808 -58.2542 267.491 -57.3635C264.181 -56.5932 260.995 -54.8485 257.931 -52.1292C252.635 -47.4273 249.949 -41.9051 249.874 -35.5626C249.742 -29.284 252.254 -23.2411 257.409 -17.4338C262.904 -11.2437 268.869 -7.86654 275.303 -7.30247C281.744 -6.85887 287.901 -9.24299 293.772 -14.4548C297.792 -18.0238 300.268 -22.0473 301.199 -26.5254C302.194 -31.0602 301.631 -35.8085 299.508 -40.7705L278.736 -22.3308L268.029 -34.3921L303.638 -66.003L317.149 -50.7828C319.562 -45.6222 320.859 -39.984 321.039 -33.8682C321.283 -27.8091 320.135 -21.7118 317.594 -15.5766C315.053 -9.44128 310.974 -3.88102 305.359 1.10422C298.722 6.99587 291.512 10.8285 283.73 12.6021C275.955 14.2552 268.305 13.8002 260.781 11.237C253.321 8.61717 246.645 3.98881 240.753 -2.64808C234.861 -9.28496 231.057 -16.4626 229.34 -24.181C227.63 -32.0198 228.085 -39.6694 230.705 -47.1299C233.268 -54.6541 237.868 -61.362 244.505 -67.2537C252.546 -74.3916 261.038 -78.4502 269.982 -79.4293C278.99 -80.4651 287.446 -78.3301 295.352 -73.0241L277.26 -56.9637ZM350.175 -121.691C346.979 -122.848 343.723 -122.982 340.406 -122.091C337.096 -121.321 333.91 -119.576 330.846 -116.857C325.55 -112.155 322.864 -106.633 322.789 -100.29C322.657 -94.0116 325.169 -87.9686 330.324 -82.1614C335.819 -75.9712 341.784 -72.5941 348.218 -72.03C354.659 -71.5864 360.816 -73.9705 366.687 -79.1824C370.707 -82.7513 373.183 -86.7749 374.114 -91.253C375.109 -95.7877 374.546 -100.536 372.423 -105.498L351.651 -87.0583L340.944 -99.1196L376.553 -130.731L390.064 -115.51C392.477 -110.35 393.774 -104.712 393.954 -98.5957C394.198 -92.5366 393.05 -86.4394 390.509 -80.3041C387.968 -74.1688 383.889 -68.6085 378.274 -63.6233C371.637 -57.7317 364.427 -53.899 356.645 -52.1254C348.87 -50.4723 341.22 -50.9273 333.696 -53.4905C326.236 -56.1104 319.56 -60.7387 313.668 -67.3756C307.776 -74.0125 303.972 -81.1901 302.255 -88.9085C300.545 -96.7473 301 -104.397 303.62 -111.857C306.183 -119.382 310.783 -126.09 317.42 -131.981C325.461 -139.119 333.953 -143.178 342.897 -144.157C351.905 -145.193 360.361 -143.058 368.267 -137.752L350.175 -121.691ZM450.565 -149.877L425.485 -127.613L432.002 -112.174L414.867 -96.9636L379.528 -185.746L398.482 -202.571L482.448 -156.956L465.122 -141.576L450.565 -149.877ZM435.136 -158.773L404.97 -175.982L418.576 -144.073L435.136 -158.773ZM506.296 -298.279L565.949 -231.081L549.58 -216.55L513.806 -256.85L534.552 -203.209L521.342 -191.482L470.357 -218.452L506.217 -178.056L489.848 -163.525L430.195 -230.724L449.532 -247.889L509.688 -218.107L487.056 -281.199L506.296 -298.279ZM616.68 -276.115L567.747 -285.736L594.089 -256.061L577.72 -241.53L518.067 -308.729L534.436 -323.26L560.609 -293.777L556.836 -343.144L576.076 -360.224L579.271 -304.182L636.686 -293.875L616.68 -276.115ZM704.58 -354.146L688.212 -339.615L624.04 -356.76L660.834 -315.312L644.466 -300.781L584.813 -367.979L601.181 -382.51L665.523 -365.173L628.559 -406.813L644.927 -421.344L704.58 -354.146ZM673.162 -446.408L732.815 -379.209L716.446 -364.679L656.793 -431.877L673.162 -446.408ZM-457.249 837.257L-445.182 850.85L-423.261 831.391L-412.044 844.026L-433.965 863.486L-420.879 878.227L-396.086 856.218L-384.445 869.333L-425.606 905.872L-485.259 838.674L-444.098 802.134L-432.456 815.248L-457.249 837.257ZM-348.909 838.985C-353.823 843.347 -358.934 846.459 -364.243 848.319C-369.552 850.179 -374.776 850.594 -379.913 849.563C-384.986 848.475 -389.541 845.786 -393.577 841.496L-376.155 826.031C-373.691 828.293 -371.13 829.443 -368.472 829.48C-365.872 829.453 -363.391 828.392 -361.029 826.296C-358.604 824.143 -357.171 821.901 -356.73 819.57C-356.346 817.175 -357.032 814.988 -358.788 813.01C-360.261 811.351 -362.054 810.489 -364.165 810.424C-366.213 810.302 -368.378 810.626 -370.661 811.397C-372.879 812.112 -375.885 813.353 -379.677 815.122C-385.206 817.634 -389.938 819.438 -393.872 820.534C-397.805 821.63 -401.923 821.748 -406.224 820.888C-410.525 820.027 -414.545 817.491 -418.284 813.279C-423.835 807.025 -425.904 800.132 -424.488 792.6C-423.13 785.004 -418.813 777.977 -411.538 771.519C-404.135 764.948 -396.582 761.438 -388.879 760.989C-381.232 760.477 -374.445 763.238 -368.518 769.273L-386.227 784.993C-388.281 782.937 -390.579 781.954 -393.124 782.044C-395.724 782.071 -398.173 783.104 -400.471 785.143C-402.449 786.899 -403.563 788.858 -403.812 791.019C-404.119 793.117 -403.394 795.155 -401.637 797.133C-399.711 799.303 -397.189 800.087 -394.07 799.487C-390.952 798.887 -386.6 797.362 -381.014 794.914C-375.372 792.53 -370.615 790.818 -366.745 789.779C-362.812 788.683 -358.723 788.533 -354.478 789.33C-350.234 790.126 -346.327 792.535 -342.758 796.555C-339.359 800.384 -337.261 804.74 -336.463 809.623C-335.602 814.45 -336.201 819.431 -338.259 824.568C-340.318 829.704 -343.868 834.51 -348.909 838.985ZM-311.496 684.422L-275.678 772.779L-296.163 790.964L-379.651 744.924L-362.229 729.459L-300.536 765.407L-328.822 699.802L-311.496 684.422ZM-262.536 640.959L-221.917 686.716C-215.629 693.799 -212.796 701.04 -213.417 708.438C-213.975 715.779 -217.636 722.452 -224.4 728.457C-231.484 734.745 -238.948 737.777 -246.793 737.552C-254.637 737.327 -261.845 733.514 -268.417 726.111L-252.144 711.665C-249.651 714.473 -247.179 716.101 -244.727 716.549C-242.332 716.933 -240.05 716.162 -237.88 714.236C-235.902 712.48 -234.937 710.482 -234.985 708.243C-235.033 706.004 -236.133 703.671 -238.286 701.246L-278.904 655.49L-262.536 640.959ZM-158.366 647.416L-183.446 669.68L-176.929 685.119L-194.064 700.329L-229.403 611.547L-210.45 594.722L-126.483 640.337L-143.809 655.717L-158.366 647.416ZM-173.795 638.52L-203.962 621.311L-190.355 653.22L-173.795 638.52ZM-102.635 499.014L-42.982 566.212L-59.3509 580.743L-95.1256 540.443L-74.3796 594.084L-87.5895 605.811L-138.574 578.841L-102.714 619.237L-119.083 633.768L-178.736 566.569L-159.399 549.404L-99.2436 579.186L-121.875 516.094L-102.635 499.014ZM1.60586 406.478L43.7412 489.227L23.9263 506.817L-26.0536 472.109L2.10115 526.191L-17.7138 543.781L-94.4056 491.708L-76.8881 476.158L-23.7974 516.49L-55.2544 456.953L-37.2582 440.978L17.6513 479.696L-16.0074 422.113L1.60586 406.478ZM67.441 348.035L84.1185 413.675L103.833 435.883L87.464 450.413L67.7497 428.205L4.55013 403.864L23.1206 387.379L61.122 403.965L49.0619 364.35L67.441 348.035ZM193.804 356.014L177.435 370.545L113.264 353.399L150.058 394.848L133.689 409.379L74.0362 342.18L90.4051 327.65L154.747 344.987L117.782 303.347L134.151 288.816L193.804 356.014ZM203.642 227.127L220.32 292.767L240.034 314.975L223.665 329.506L203.951 307.298L140.752 282.956L159.322 266.471L197.323 283.057L185.263 243.443L203.642 227.127ZM273.71 202.925C270.515 201.768 267.258 201.634 263.941 202.525C260.631 203.295 257.445 205.04 254.382 207.759C249.085 212.461 246.399 217.983 246.324 224.326C246.192 230.604 248.704 236.647 253.859 242.455C259.354 248.645 265.319 252.022 271.753 252.586C278.195 253.03 284.351 250.646 290.222 245.434C294.242 241.865 296.718 237.841 297.649 233.363C298.645 228.828 298.081 224.08 295.958 219.118L275.186 237.558L264.479 225.496L300.088 193.886L313.599 209.106C316.013 214.266 317.309 219.905 317.489 226.02C317.734 232.079 316.585 238.177 314.044 244.312C311.503 250.447 307.425 256.008 301.809 260.993C295.172 266.884 287.962 270.717 280.18 272.491C272.405 274.144 264.755 273.689 257.231 271.126C249.771 268.506 243.095 263.877 237.203 257.24C231.312 250.604 227.507 243.426 225.79 235.708C224.08 227.869 224.535 220.219 227.155 212.759C229.719 205.234 234.319 198.527 240.955 192.635C248.996 185.497 257.489 181.438 266.433 180.459C275.44 179.423 283.897 181.558 291.802 186.864L273.71 202.925ZM347.958 196.577L369.4 177.543L380.617 190.178L342.806 223.744L283.153 156.545L299.522 142.014L347.958 196.577ZM393.576 156.081L415.018 137.046L426.235 149.682L388.424 183.247L328.771 116.049L345.14 101.518L393.576 156.081ZM402.4 74.1361L414.467 87.729L436.388 68.2696L447.605 80.9052L425.684 100.365L438.77 115.106L463.563 93.0974L475.204 106.212L434.043 142.751L374.39 75.5527L415.551 39.0132L427.193 52.1274L402.4 74.1361ZM489.261 -26.4194L525.078 61.938L504.593 80.1228L421.105 34.0833L438.527 18.6177L500.22 54.5658L471.934 -11.0388L489.261 -26.4194ZM554.302 -84.1576L613.955 -16.9592L597.586 -2.42836L573.028 -30.0927L547.566 -7.48916L572.124 20.1752L555.755 34.706L496.102 -32.4925L512.471 -47.0233L535.839 -20.6991L561.302 -43.3026L537.933 -69.6268L554.302 -84.1576ZM614.46 -137.56L626.101 -124.446L608.297 -108.64L656.308 -54.5563L639.939 -40.0254L591.928 -94.1096L574.123 -78.3042L562.481 -91.4184L614.46 -137.56ZM638.756 -159.129L674.446 -118.925C678.015 -114.904 681.752 -112.687 685.656 -112.274C689.561 -111.86 693.427 -113.353 697.256 -116.752C701.085 -120.151 703.058 -123.841 703.174 -127.824C703.29 -131.807 701.563 -135.808 697.994 -139.829L662.305 -180.033L678.673 -194.564L714.278 -154.455C719.603 -148.456 722.831 -142.25 723.96 -135.836C725.09 -129.422 724.42 -123.236 721.95 -117.278C719.544 -111.376 715.692 -106.074 710.395 -101.372C705.099 -96.6703 699.438 -93.4709 693.413 -91.7741C687.396 -90.1978 681.333 -90.4073 675.226 -92.4026C669.062 -94.4617 663.318 -98.4907 657.992 -104.489L622.388 -144.598L638.756 -159.129ZM748.368 -256.432L808.021 -189.234L791.652 -174.703L767.094 -202.367L741.632 -179.764L766.19 -152.1L749.821 -137.569L690.168 -204.767L706.537 -219.298L729.905 -192.974L755.368 -215.577L731.999 -241.902L748.368 -256.432ZM817.811 -318.078L834.489 -252.438L854.203 -230.23L837.834 -215.699L818.12 -237.907L754.92 -262.249L773.491 -278.734L811.492 -262.148L799.432 -301.762L817.811 -318.078ZM-316.799 945.867L-276.18 991.623C-269.892 998.707 -267.059 1005.95 -267.68 1013.35C-268.238 1020.69 -271.899 1027.36 -278.663 1033.36C-285.747 1039.65 -293.211 1042.68 -301.056 1042.46C-308.9 1042.23 -316.108 1038.42 -322.68 1031.02L-306.407 1016.57C-303.914 1019.38 -301.442 1021.01 -298.99 1021.46C-296.595 1021.84 -294.313 1021.07 -292.143 1019.14C-290.165 1017.39 -289.2 1015.39 -289.248 1013.15C-289.296 1010.91 -290.397 1008.58 -292.549 1006.15L-333.168 960.398L-316.799 945.867ZM-259.831 895.296L-248.189 908.41L-275.566 932.713L-262.99 946.88L-242.505 928.695L-231.203 941.427L-251.688 959.611L-227.555 986.797L-243.924 1001.33L-303.577 934.129L-259.831 895.296ZM-180.811 863.83C-177.355 867.723 -175.076 872.09 -173.974 876.931C-172.928 881.708 -173.378 886.728 -175.323 891.992C-177.268 897.256 -180.985 902.324 -186.473 907.196L-196.62 916.203L-175.206 940.326L-191.575 954.857L-251.228 887.658L-224.712 864.12C-219.351 859.362 -213.999 856.265 -208.655 854.83C-203.311 853.395 -198.269 853.483 -193.529 855.095C-188.789 856.706 -184.55 859.618 -180.811 863.83ZM-199.274 895.282C-196.147 892.506 -194.469 889.705 -194.241 886.877C-194.012 884.05 -195.087 881.296 -197.467 878.616C-199.846 875.936 -202.453 874.541 -205.287 874.433C-208.122 874.325 -211.103 875.659 -214.23 878.435L-223.132 886.338L-208.176 903.185L-199.274 895.282ZM-166.318 812.283C-159.234 805.995 -151.798 801.904 -144.008 800.01C-136.219 798.116 -128.623 798.447 -121.219 801.003C-113.808 803.438 -107.157 807.974 -101.265 814.611C-95.4299 821.184 -91.7142 828.326 -90.1177 836.038C-88.4574 843.692 -89.0612 851.303 -91.9291 858.869C-94.7333 866.379 -99.6452 873.25 -106.665 879.481L-131.84 901.83L-191.493 834.632L-166.318 812.283ZM-120.294 866.249C-114.104 860.754 -110.787 854.786 -110.344 848.344C-109.9 841.903 -112.426 835.587 -117.921 829.397C-123.416 823.207 -129.416 819.918 -135.921 819.531C-142.427 819.144 -148.774 821.698 -154.964 827.193L-162.718 834.077L-128.048 873.132L-120.294 866.249ZM-29.474 690.805L12.6613 773.554L-7.15362 791.144L-57.1335 756.437L-28.9788 810.518L-48.7937 828.108L-125.486 776.036L-107.968 760.485L-54.8773 800.818L-86.3343 741.281L-68.3381 725.305L-13.4286 764.023L-47.0873 706.441L-29.474 690.805ZM72.6572 720.295L36.163 707.334L32.2383 710.818L54.7568 736.185L38.388 750.716L-21.2649 683.518L6.20793 659.13C11.5047 654.428 16.8251 651.359 22.1693 649.924C27.5774 648.432 32.6513 648.492 37.3911 650.104C42.0743 651.652 46.1721 654.404 49.6844 658.361C53.6499 662.828 55.9143 667.95 56.4774 673.726C57.1043 679.445 55.6124 685.219 52.0015 691.049L91.132 703.895L72.6572 720.295ZM21.9562 699.236L32.103 690.228C35.1023 687.566 36.6844 684.849 36.8492 682.078C37.0779 679.251 36.0025 676.497 33.6232 673.817C31.3572 671.264 28.8069 669.934 25.9724 669.826C23.2016 669.661 20.3166 670.91 17.3172 673.572L7.17045 682.58L21.9562 699.236ZM57.5491 613.554L117.202 680.752L100.833 695.283L41.1802 628.084L57.5491 613.554ZM134.59 641.355L163.498 615.692L175.395 629.093L127.916 671.241L116.869 658.797L108.877 591.952L80.1593 617.444L68.2627 604.043L115.742 561.895L126.789 574.339L134.59 641.355ZM151.61 530.054C158.694 523.766 166.13 519.675 173.92 517.781C181.709 515.887 189.306 516.218 196.709 518.774C204.12 521.209 210.771 525.746 216.663 532.383C222.498 538.956 226.214 546.098 227.81 553.809C229.471 561.464 228.867 569.074 225.999 576.641C223.195 584.151 218.283 591.021 211.263 597.253L186.088 619.601L126.435 552.403L151.61 530.054ZM197.634 584.02C203.824 578.525 207.141 572.557 207.584 566.116C208.028 559.674 205.502 553.358 200.007 547.168C194.512 540.978 188.512 537.69 182.007 537.303C175.501 536.916 169.154 539.47 162.964 544.965L155.21 551.848L189.88 590.903L197.634 584.02ZM212.066 476.387L247.756 516.591C251.325 520.612 255.061 522.829 258.966 523.242C262.87 523.656 266.737 522.163 270.566 518.764C274.395 515.365 276.367 511.674 276.483 507.692C276.599 503.709 274.873 499.708 271.304 495.687L235.614 455.483L251.983 440.952L287.588 481.061C292.913 487.059 296.14 493.266 297.27 499.68C298.4 506.094 297.729 512.28 295.259 518.238C292.853 524.14 289.002 529.441 283.705 534.143C278.408 538.845 272.747 542.045 266.723 543.742C260.705 545.318 254.643 545.108 248.536 543.113C242.372 541.054 236.627 537.025 231.302 531.026L195.697 490.918L212.066 476.387ZM305.596 393.359L346.214 439.115C352.503 446.199 355.336 453.44 354.715 460.838C354.157 468.179 350.496 474.852 343.732 480.857C336.648 487.145 329.184 490.177 321.339 489.952C313.494 489.727 306.286 485.913 299.715 478.511L315.988 464.065C318.481 466.873 320.953 468.501 323.405 468.949C325.8 469.333 328.082 468.562 330.252 466.636C332.23 464.88 333.195 462.882 333.147 460.643C333.099 458.403 331.998 456.071 329.846 453.646L289.227 407.89L305.596 393.359ZM411.288 299.535L453.423 382.284L433.608 399.874L383.628 365.167L411.783 419.249L391.968 436.839L315.276 384.766L332.794 369.215L385.884 409.548L354.427 350.011L372.424 334.036L427.333 372.754L393.674 315.171L411.288 299.535ZM461.615 254.859L502.234 300.615C508.522 307.699 511.355 314.939 510.734 322.337C510.176 329.679 506.515 336.352 499.751 342.357C492.667 348.645 485.203 351.677 477.359 351.452C469.514 351.227 462.306 347.413 455.734 340.01L472.007 325.565C474.5 328.373 476.972 330 479.424 330.449C481.819 330.833 484.101 330.062 486.271 328.136C488.249 326.38 489.214 324.382 489.166 322.142C489.118 319.903 488.018 317.571 485.865 315.146L445.247 269.39L461.615 254.859ZM592.55 279.319L573.652 275.384C571.553 278.161 569.291 280.625 566.866 282.778C560.548 288.387 553.438 292.074 545.535 293.84C537.696 295.55 529.89 295.177 522.118 292.72C514.353 290.142 507.553 285.567 501.718 278.994C495.883 272.421 492.174 265.158 490.592 257.206C489.074 249.197 489.628 241.402 492.255 233.821C494.946 226.184 499.45 219.561 505.768 213.952C512.086 208.344 519.164 204.685 527.003 202.975C534.906 201.209 542.679 201.611 550.324 204.181C558.033 206.695 564.804 211.238 570.639 217.811C575.738 223.555 579.231 229.867 581.119 236.75C583.013 243.512 583.275 250.297 581.902 257.106L612.364 261.729L592.55 279.319ZM518.47 264.123C523.738 270.058 529.554 273.396 535.917 274.137C542.288 274.758 548.185 272.66 553.609 267.845C558.97 263.087 561.659 257.504 561.678 251.098C561.76 244.635 559.195 238.468 553.983 232.597C548.715 226.662 542.895 223.384 536.525 222.763C530.162 222.022 524.3 224.031 518.939 228.79C513.515 233.605 510.733 239.212 510.594 245.611C510.519 251.954 513.145 258.124 518.47 264.123ZM634.838 222.438C629.924 226.8 624.813 229.911 619.504 231.772C614.195 233.632 608.972 234.047 603.835 233.016C598.761 231.928 594.206 229.239 590.17 224.949L607.592 209.484C610.056 211.746 612.617 212.896 615.275 212.933C617.876 212.906 620.357 211.845 622.718 209.749C625.143 207.596 626.576 205.354 627.017 203.023C627.401 200.628 626.715 198.441 624.959 196.463C623.486 194.804 621.694 193.942 619.582 193.876C617.534 193.755 615.369 194.079 613.086 194.85C610.868 195.564 607.862 196.806 604.07 198.575C598.541 201.087 593.809 202.891 589.875 203.987C585.942 205.083 581.824 205.201 577.523 204.34C573.222 203.48 569.202 200.944 565.463 196.732C559.912 190.478 557.843 183.585 559.259 176.053C560.617 168.457 564.934 161.43 572.209 154.972C579.612 148.401 587.165 144.891 594.868 144.442C602.515 143.93 609.302 146.691 615.229 152.726L597.52 168.446C595.467 166.39 593.168 165.407 590.624 165.497C588.023 165.524 585.574 166.557 583.276 168.596C581.298 170.352 580.184 172.311 579.935 174.472C579.629 176.57 580.354 178.607 582.11 180.586C584.036 182.756 586.558 183.54 589.677 182.94C592.795 182.34 597.147 180.815 602.733 178.367C608.376 175.983 613.132 174.271 617.002 173.232C620.935 172.136 625.024 171.986 629.269 172.783C633.513 173.579 637.42 175.988 640.989 180.008C644.388 183.837 646.486 188.193 647.284 193.076C648.145 197.903 647.546 202.884 645.488 208.02C643.43 213.157 639.88 217.963 634.838 222.438ZM728.937 137.707L712.568 152.238L648.397 135.093L685.191 176.541L668.822 191.072L609.169 123.874L625.538 109.343L689.88 126.68L652.915 85.0396L669.284 70.5088L728.937 137.707ZM772.097 78.1701L747.017 100.434L753.534 115.873L736.399 131.083L701.06 42.3009L720.013 25.4757L803.98 71.0904L786.654 86.4709L772.097 78.1701ZM756.668 69.2734L726.501 52.0652L740.108 83.9742L756.668 69.2734ZM871.495 11.1566L855.126 25.6875L790.955 8.54189L827.749 49.9905L811.38 64.5213L751.727 -2.67711L768.096 -17.2079L832.438 0.129089L795.473 -41.511L811.842 -56.0418L871.495 11.1566ZM848.883 -88.9234C855.967 -95.2116 863.403 -99.3027 871.192 -101.197C878.982 -103.091 886.578 -102.76 893.982 -100.204C901.393 -97.7683 908.044 -93.2321 913.936 -86.5952C919.771 -80.0221 923.487 -72.88 925.083 -65.1688C926.744 -57.5142 926.14 -49.9037 923.272 -42.3371C920.468 -34.8272 915.556 -27.9565 908.536 -21.7249L883.36 0.623652L823.708 -66.5748L848.883 -88.9234ZM894.907 -34.9574C901.097 -40.4525 904.414 -46.4207 904.857 -52.8621C905.301 -59.3035 902.775 -65.6193 897.28 -71.8094C891.785 -77.9996 885.785 -81.2882 879.28 -81.6751C872.774 -82.0621 866.427 -79.508 860.237 -74.0129L852.483 -67.1299L887.153 -28.0744L894.907 -34.9574ZM963.674 -152.143C967.13 -148.25 969.409 -143.884 970.511 -139.043C971.557 -134.266 971.107 -129.245 969.162 -123.981C967.217 -118.717 963.5 -113.649 958.012 -108.777L947.865 -99.7698L969.279 -75.6473L952.91 -61.1165L893.257 -128.315L919.773 -151.853C925.133 -156.612 930.486 -159.709 935.83 -161.144C941.174 -162.579 946.216 -162.49 950.956 -160.879C955.696 -159.267 959.935 -156.355 963.674 -152.143ZM945.211 -120.691C948.338 -123.467 950.016 -126.269 950.244 -129.096C950.473 -131.923 949.398 -134.677 947.018 -137.357C944.639 -140.038 942.032 -141.432 939.197 -141.54C936.363 -141.648 933.382 -140.314 930.255 -137.539L921.353 -129.636L936.308 -112.788L945.211 -120.691ZM-198.073 1097.21L-138.42 1164.41L-154.789 1178.94L-179.347 1151.27L-204.809 1173.88L-180.251 1201.54L-196.62 1216.07L-256.273 1148.87L-239.904 1134.34L-216.536 1160.67L-191.073 1138.06L-214.442 1111.74L-198.073 1097.21ZM-92.3338 1123.5L-128.828 1110.54L-132.753 1114.02L-110.234 1139.39L-126.603 1153.92L-186.256 1086.72L-158.783 1062.33C-153.486 1057.63 -148.166 1054.56 -142.822 1053.13C-137.414 1051.63 -132.34 1051.69 -127.6 1053.31C-122.917 1054.85 -118.819 1057.61 -115.307 1061.56C-111.341 1066.03 -109.077 1071.15 -108.514 1076.93C-107.887 1082.65 -109.379 1088.42 -112.99 1094.25L-73.859 1107.1L-92.3338 1123.5ZM-143.035 1102.44L-132.888 1093.43C-129.889 1090.77 -128.307 1088.05 -128.142 1085.28C-127.913 1082.45 -128.989 1079.7 -131.368 1077.02C-133.634 1074.47 -136.184 1073.14 -139.019 1073.03C-141.789 1072.86 -144.674 1074.11 -147.674 1076.77L-157.821 1085.78L-143.035 1102.44ZM-25.1982 1063.9L-74.1316 1054.28L-47.7891 1083.95L-64.158 1098.48L-123.811 1031.29L-107.442 1016.76L-81.2695 1046.24L-85.0425 996.871L-65.802 979.791L-62.6073 1035.83L-5.19182 1046.14L-25.1982 1063.9ZM6.01668 916.037L41.8342 1004.39L21.3492 1022.58L-62.139 976.539L-44.7172 961.074L16.9759 997.022L-11.3094 931.417L6.01668 916.037ZM76.3301 891.616C73.1348 890.459 69.8786 890.325 66.5615 891.216C63.2516 891.986 60.0651 893.731 57.0019 896.45C51.7051 901.152 49.0193 906.675 48.9442 913.017C48.8125 919.296 51.3243 925.338 56.4795 931.146C61.9746 937.336 67.9392 940.713 74.3734 941.277C80.8148 941.721 86.971 939.337 92.8421 934.125C96.8626 930.556 99.3384 926.532 100.27 922.054C101.265 917.519 100.701 912.771 98.5783 907.809L77.8061 926.249L67.0992 914.188L102.709 882.577L116.22 897.797C118.633 902.957 119.93 908.596 120.11 914.711C120.354 920.771 119.205 926.868 116.664 933.003C114.123 939.138 110.045 944.699 104.429 949.684C97.7922 955.575 90.5826 959.408 82.8004 961.182C75.0254 962.835 67.3758 962.38 59.8515 959.817C52.3911 957.197 45.7151 952.568 39.8234 945.931C33.9318 939.295 30.1275 932.117 28.4105 924.399C26.7008 916.56 27.1558 908.91 29.7756 901.45C32.3388 893.925 36.9389 887.218 43.5757 881.326C51.6166 874.188 60.1089 870.129 69.0528 869.15C78.0605 868.114 86.5169 870.25 94.422 875.555L76.3301 891.616ZM177.801 884.893C171.483 890.501 164.373 894.189 156.47 895.955C148.632 897.665 140.826 897.291 133.054 894.834C125.289 892.257 118.488 887.681 112.653 881.108C106.818 874.535 103.11 867.273 101.528 859.32C100.009 851.312 100.564 843.517 103.191 835.936C105.882 828.298 110.386 821.675 116.704 816.067C123.021 810.459 130.1 806.8 137.939 805.09C145.841 803.323 153.615 803.725 161.26 806.296C168.968 808.809 175.74 813.353 181.575 819.926C187.41 826.499 191.147 833.793 192.786 841.809C194.368 849.761 193.845 857.528 191.218 865.109C188.591 872.69 184.119 879.284 177.801 884.893ZM164.545 869.96C169.906 865.201 172.595 859.619 172.613 853.212C172.696 846.75 170.131 840.583 164.919 834.712C159.65 828.777 153.831 825.499 147.461 824.878C141.097 824.137 135.235 826.146 129.875 830.904C124.451 835.72 121.669 841.327 121.53 847.726C121.455 854.068 124.08 860.239 129.405 866.237C134.674 872.172 140.49 875.51 146.853 876.252C153.223 876.872 159.121 874.775 164.545 869.96ZM278.737 814.632L259.84 810.697C257.74 813.473 255.478 815.938 253.053 818.091C246.735 823.699 239.625 827.386 231.722 829.153C223.884 830.863 216.078 830.489 208.306 828.032C200.541 825.454 193.74 820.879 187.905 814.306C182.07 807.733 178.362 800.47 176.78 792.518C175.261 784.509 175.816 776.715 178.443 769.134C181.134 761.496 185.638 754.873 191.956 749.265C198.273 743.656 205.352 739.997 213.191 738.288C221.093 736.521 228.867 736.923 236.512 739.493C244.22 742.007 250.992 746.551 256.827 753.124C261.925 758.867 265.419 765.18 267.306 772.062C269.201 778.824 269.462 785.61 268.09 792.419L298.552 797.042L278.737 814.632ZM204.657 799.435C209.926 805.37 215.742 808.708 222.105 809.449C228.475 810.07 234.373 807.973 239.797 803.158C245.158 798.399 247.847 792.817 247.865 786.41C247.948 779.947 245.383 773.78 240.171 767.909C234.902 761.974 229.083 758.697 222.713 758.076C216.349 757.335 210.487 759.343 205.127 764.102C199.703 768.917 196.921 774.525 196.782 780.924C196.707 787.266 199.332 793.437 204.657 799.435ZM252.546 697.19L288.235 737.394C291.804 741.415 295.541 743.632 299.445 744.045C303.35 744.459 307.217 742.966 311.046 739.567C314.875 736.168 316.847 732.477 316.963 728.495C317.079 724.512 315.353 720.511 311.784 716.49L276.094 676.286L292.463 661.755L328.067 701.864C333.393 707.862 336.62 714.069 337.75 720.483C338.879 726.897 338.209 733.083 335.739 739.041C333.333 744.943 329.481 750.244 324.185 754.946C318.888 759.648 313.227 762.848 307.202 764.545C301.185 766.121 295.122 765.911 289.015 763.916C282.851 761.857 277.107 757.828 271.782 751.829L236.177 711.721L252.546 697.19ZM320.326 637.021L379.979 704.219L363.61 718.75L303.957 651.551L320.326 637.021ZM357.364 604.142C364.447 597.854 371.884 593.762 379.673 591.868C387.463 589.974 395.059 590.305 402.463 592.861C409.874 595.297 416.525 599.833 422.417 606.47C428.252 613.043 431.967 620.185 433.564 627.896C435.224 635.551 434.62 643.161 431.752 650.728C428.948 658.238 424.036 665.109 417.017 671.34L391.841 693.689L332.188 626.49L357.364 604.142ZM403.387 658.108C409.577 652.613 412.894 646.644 413.338 640.203C413.782 633.762 411.256 627.446 405.761 621.256C400.266 615.065 394.265 611.777 387.76 611.39C381.255 611.003 374.907 613.557 368.717 619.052L360.964 625.935L395.634 664.991L403.387 658.108ZM519.45 600.948L500.553 597.013C498.453 599.789 496.191 602.254 493.766 604.407C487.448 610.015 480.338 613.703 472.435 615.469C464.597 617.179 456.791 616.805 449.019 614.348C441.253 611.771 434.453 607.195 428.618 600.622C422.783 594.049 419.075 586.787 417.493 578.834C415.974 570.826 416.529 563.031 419.156 555.45C421.846 547.812 426.351 541.189 432.669 535.581C438.986 529.973 446.065 526.314 453.904 524.604C461.806 522.837 469.58 523.239 477.225 525.81C484.933 528.323 491.705 532.867 497.54 539.44C502.638 545.183 506.131 551.496 508.019 558.378C509.914 565.14 510.175 571.926 508.803 578.735L539.265 583.358L519.45 600.948ZM445.37 585.752C450.639 591.686 456.454 595.024 462.818 595.766C469.188 596.386 475.086 594.289 480.51 589.474C485.87 584.715 488.56 579.133 488.578 572.727C488.661 566.264 486.096 560.097 480.884 554.226C475.615 548.291 469.796 545.013 463.426 544.392C457.062 543.651 451.2 545.66 445.84 550.418C440.415 555.234 437.634 560.841 437.495 567.24C437.42 573.582 440.045 579.753 445.37 585.752ZM535.377 446.117L595.03 513.315L578.661 527.846L554.103 500.182L528.641 522.785L553.199 550.45L536.83 564.981L477.177 497.782L493.546 483.251L516.914 509.575L542.377 486.972L519.008 460.648L535.377 446.117ZM645.807 468.24L596.873 458.62L623.216 488.295L606.847 502.826L547.194 435.627L563.563 421.096L589.735 450.579L585.962 401.212L605.203 384.132L608.397 440.174L665.813 450.481L645.807 468.24ZM706.409 294.29L748.544 377.039L728.729 394.629L678.749 359.922L706.904 414.003L687.089 431.593L610.397 379.521L627.915 363.97L681.006 404.303L649.549 344.766L667.545 328.79L722.454 367.508L688.796 309.926L706.409 294.29ZM739.793 264.654C746.877 258.366 754.314 254.275 762.103 252.381C769.892 250.487 777.489 250.818 784.893 253.374C792.304 255.809 798.955 260.345 804.846 266.982C810.681 273.555 814.397 280.697 815.994 288.409C817.654 296.063 817.05 303.674 814.182 311.24C811.378 318.75 806.466 325.621 799.446 331.853L774.271 354.201L714.618 287.003L739.793 264.654ZM785.817 318.62C792.007 313.125 795.324 307.157 795.768 300.715C796.211 294.274 793.686 287.958 788.19 281.768C782.695 275.578 776.695 272.289 770.19 271.902C763.685 271.515 757.337 274.069 751.147 279.565L743.393 286.448L778.063 325.503L785.817 318.62ZM853.912 221.886C858.541 219.26 863.396 218.43 868.477 219.397C873.5 220.301 877.74 222.699 881.196 226.591C886.181 232.207 888.168 238.43 887.157 245.261C886.154 251.972 882.142 258.442 875.122 264.674L843.821 292.461L784.168 225.263L814.417 198.41C821.245 192.349 827.961 189.182 834.566 188.91C841.235 188.581 846.949 191.097 851.707 196.458C855.22 200.414 857.084 204.636 857.301 209.121C857.581 213.551 856.452 217.805 853.912 221.886ZM824.67 237.917L835.391 228.4C838.071 226.021 839.603 223.634 839.987 221.239C840.379 218.723 839.555 216.317 837.515 214.019C835.476 211.722 833.184 210.619 830.64 210.709C828.16 210.743 825.58 211.949 822.899 214.329L812.178 223.846L824.67 237.917ZM860.524 254.013C863.268 251.577 864.836 249.102 865.227 246.586C865.626 243.95 864.777 241.452 862.681 239.09C860.585 236.729 858.144 235.587 855.359 235.663C852.638 235.682 849.905 236.91 847.161 239.346L835.292 249.883L848.463 264.72L860.524 254.013ZM945.88 201.862L896.946 192.241L923.289 221.916L906.92 236.447L847.267 169.248L863.636 154.718L889.809 184.201L886.035 134.833L905.276 117.753L908.471 173.796L965.886 184.102L945.88 201.862ZM930.094 95.7219L965.784 135.926C969.353 139.946 973.09 142.163 976.994 142.577C980.898 142.991 984.765 141.498 988.594 138.099C992.423 134.7 994.395 131.009 994.511 127.027C994.628 123.044 992.901 119.042 989.332 115.022L953.642 74.8179L970.011 60.287L1005.62 100.396C1010.94 106.394 1014.17 112.601 1015.3 119.015C1016.43 125.429 1015.76 131.615 1013.29 137.573C1010.88 143.475 1007.03 148.776 1001.73 153.478C996.436 158.18 990.776 161.38 984.751 163.076C978.733 164.653 972.671 164.443 966.564 162.448C960.4 160.389 954.655 156.36 949.33 150.361L913.725 110.253L930.094 95.7219ZM1101.27 63.9171L1084.9 78.4479L1020.73 61.3023L1057.53 102.751L1041.16 117.282L981.506 50.0833L997.874 35.5525L1062.22 52.8895L1025.25 11.2495L1041.62 -3.28138L1101.27 63.9171ZM1081.5 -15.231L1093.56 -1.63813L1115.48 -21.0975L1126.7 -8.46194L1104.78 10.9975L1117.87 25.739L1142.66 3.73033L1154.3 16.8446L1113.14 53.3841L1053.49 -13.8144L1094.65 -50.3539L1106.29 -37.2397L1081.5 -15.231ZM-9.01769 1307.47C-15.3355 1313.08 -22.4457 1316.77 -30.3484 1318.53C-38.1872 1320.24 -45.9928 1319.87 -53.7652 1317.41C-61.5303 1314.84 -68.3304 1310.26 -74.1654 1303.69C-80.0004 1297.11 -83.709 1289.85 -85.2911 1281.9C-86.8095 1273.89 -86.2551 1266.1 -83.6281 1258.51C-80.9373 1250.88 -76.433 1244.25 -70.1152 1238.65C-63.7974 1233.04 -56.719 1229.38 -48.8802 1227.67C-40.9775 1225.9 -33.2038 1226.3 -25.5592 1228.87C-17.8506 1231.39 -11.0789 1235.93 -5.24389 1242.5C0.5911 1249.08 4.328 1256.37 5.96681 1264.39C7.54897 1272.34 7.02654 1280.11 4.39953 1287.69C1.77252 1295.27 -2.69988 1301.86 -9.01769 1307.47ZM-22.2739 1292.54C-16.9133 1287.78 -14.2239 1282.2 -14.2055 1275.79C-14.1233 1269.33 -16.6881 1263.16 -21.8999 1257.29C-27.1684 1251.36 -32.9879 1248.08 -39.3583 1247.46C-45.7215 1246.72 -51.5834 1248.72 -56.9439 1253.48C-62.3683 1258.3 -65.1499 1263.91 -65.2888 1270.3C-65.3638 1276.65 -62.7388 1282.82 -57.4136 1288.82C-52.1451 1294.75 -46.3293 1298.09 -39.966 1298.83C-33.5956 1299.45 -27.6983 1297.35 -22.2739 1292.54ZM39.0111 1241.04L60.4533 1222.01L71.6701 1234.65L33.859 1268.21L-25.7939 1201.01L-9.42502 1186.48L39.0111 1241.04ZM46.7902 1196.48C40.8986 1189.85 37.0943 1182.67 35.3773 1174.95C33.6037 1167.17 33.9949 1159.58 36.5509 1152.17C39.1141 1144.65 43.6503 1138 50.1596 1132.22C58.1366 1125.14 66.8344 1121.18 76.253 1120.35C85.6716 1119.52 94.5672 1121.89 102.94 1127.47L84.9436 1143.45C81.1109 1141.83 77.2986 1141.39 73.5068 1142.13C69.7788 1142.82 66.3513 1144.55 63.2243 1147.32C58.1829 1151.8 55.6565 1157.18 55.6453 1163.46C55.6341 1169.75 58.2344 1175.83 63.4462 1181.7C68.6581 1187.57 74.3854 1190.87 80.6281 1191.61C86.8709 1192.34 92.513 1190.47 97.5545 1185.99C100.682 1183.22 102.806 1180.02 103.928 1176.4C105.114 1172.72 105.131 1168.89 103.978 1164.89L121.974 1148.91C126.518 1157.89 127.819 1167 125.879 1176.25C123.881 1185.44 118.894 1193.58 110.917 1200.66C104.408 1206.44 97.2941 1210.19 89.5757 1211.9C81.8645 1213.5 74.2787 1212.99 66.8183 1210.37C59.3579 1207.75 52.6818 1203.12 46.7902 1196.48ZM193.554 1126.45L161.596 1118.02L167.804 1149.31L149.234 1165.79L140.435 1112.5L89.1022 1099.02L108.151 1082.11L139.663 1090.42L133.518 1059.59L152.089 1043.1L160.824 1095.94L212.603 1109.54L193.554 1126.45ZM237.268 967.489L296.921 1034.69L280.552 1049.22L244.778 1008.92L265.524 1062.56L252.314 1074.29L201.33 1047.32L237.189 1087.71L220.821 1102.24L161.168 1035.04L180.504 1017.88L240.66 1047.66L218.028 984.569L237.268 967.489ZM312.122 901.041L347.939 989.398L327.454 1007.58L243.966 961.543L261.388 946.078L323.081 982.026L294.796 916.421L312.122 901.041ZM382.045 838.969L417.863 927.326L397.378 945.511L313.89 899.471L331.312 884.006L393.005 919.954L364.719 854.349L382.045 838.969ZM482.809 869.673L446.315 856.712L442.39 860.196L464.908 885.563L448.54 900.094L388.887 832.896L416.36 808.508C421.656 803.806 426.977 800.737 432.321 799.302C437.729 797.81 442.803 797.87 447.543 799.482C452.226 801.03 456.324 803.782 459.836 807.739C463.802 812.206 466.066 817.328 466.629 823.104C467.256 828.823 465.764 834.597 462.153 840.427L501.284 853.273L482.809 869.673ZM432.108 848.614L442.255 839.606C445.254 836.944 446.836 834.227 447.001 831.456C447.23 828.629 446.154 825.875 443.775 823.195C441.509 820.642 438.959 819.312 436.124 819.204C433.353 819.039 430.468 820.288 427.469 822.95L417.322 831.958L432.108 848.614ZM545.254 814.239L508.76 801.279L504.835 804.763L527.354 830.13L510.985 844.661L451.332 777.462L478.805 753.074C484.101 748.372 489.422 745.304 494.766 743.869C500.174 742.377 505.248 742.437 509.988 744.049C514.671 745.597 518.769 748.349 522.281 752.306C526.247 756.773 528.511 761.894 529.074 767.67C529.701 773.389 528.209 779.164 524.598 784.994L563.729 797.839L545.254 814.239ZM494.553 793.18L504.7 784.173C507.699 781.51 509.281 778.794 509.446 776.023C509.675 773.196 508.599 770.442 506.22 767.761C503.954 765.209 501.404 763.878 498.569 763.77C495.798 763.605 492.913 764.854 489.914 767.517L479.767 776.524L494.553 793.18ZM562.118 679.116L573.759 692.231L555.955 708.036L603.966 762.12L587.597 776.651L539.586 722.567L521.781 738.372L510.139 725.258L562.118 679.116ZM627.959 620.668L644.636 686.308L664.351 708.516L647.982 723.047L628.268 700.839L565.068 676.497L583.639 660.012L621.64 676.598L609.58 636.984L627.959 620.668ZM699.732 653.145L728.641 627.482L740.538 640.884L693.058 683.032L682.012 670.588L674.019 603.742L645.302 629.235L633.405 615.833L680.885 573.685L691.932 586.13L699.732 653.145ZM756.382 604.225L777.825 585.191L789.041 597.826L751.23 631.392L691.577 564.193L707.946 549.663L756.382 604.225ZM780.942 484.863L792.584 497.978L765.207 522.281L777.783 536.448L798.268 518.263L809.57 530.994L789.085 549.179L813.218 576.365L796.849 590.896L737.196 523.697L780.942 484.863ZM883.467 514.003L846.973 501.043L843.048 504.527L865.567 529.894L849.198 544.425L789.545 477.226L817.018 452.838C822.315 448.136 827.635 445.068 832.98 443.633C838.388 442.141 843.461 442.201 848.201 443.813C852.885 445.361 856.982 448.113 860.495 452.069C864.46 456.537 866.724 461.658 867.288 467.434C867.915 473.153 866.423 478.928 862.812 484.758L901.942 497.603L883.467 514.003ZM832.766 492.944L842.913 483.937C845.913 481.274 847.495 478.558 847.659 475.787C847.888 472.959 846.813 470.206 844.433 467.525C842.167 464.973 839.617 463.642 836.783 463.534C834.012 463.369 831.127 464.618 828.127 467.281L817.981 476.288L832.766 492.944ZM950.603 454.406L901.67 444.786L928.012 474.46L911.643 488.991L851.99 421.793L868.359 407.262L894.532 436.745L890.759 387.378L909.999 370.298L913.194 426.34L970.609 436.646L950.603 454.406ZM1036.45 398.74L1017.55 394.805C1015.45 397.581 1013.19 400.046 1010.76 402.199C1004.45 407.807 997.336 411.495 989.433 413.261C981.594 414.971 973.789 414.597 966.016 412.14C958.251 409.563 951.451 404.987 945.616 398.414C939.781 391.841 936.073 384.579 934.49 376.626C932.972 368.618 933.526 360.823 936.153 353.242C938.844 345.604 943.349 338.981 949.666 333.373C955.984 327.765 963.062 324.106 970.901 322.396C978.804 320.629 986.578 321.031 994.222 323.602C1001.93 326.115 1008.7 330.659 1014.54 337.232C1019.64 342.975 1023.13 349.288 1025.02 356.17C1026.91 362.932 1027.17 369.718 1025.8 376.527L1056.26 381.15L1036.45 398.74ZM962.368 383.544C967.636 389.478 973.452 392.817 979.815 393.558C986.186 394.178 992.083 392.081 997.508 387.266C1002.87 382.507 1005.56 376.925 1005.58 370.519C1005.66 364.056 1003.09 357.889 997.882 352.018C992.613 346.083 986.794 342.805 980.423 342.184C974.06 341.443 968.198 343.452 962.838 348.21C957.413 353.026 954.632 358.633 954.493 365.032C954.418 371.374 957.043 377.545 962.368 383.544ZM1085.12 313.768L1060.04 336.032L1066.56 351.471L1049.42 366.681L1014.09 277.899L1033.04 261.074L1117.01 306.689L1099.68 322.069L1085.12 313.768ZM1069.69 304.872L1039.53 287.663L1053.13 319.573L1069.69 304.872ZM1108.5 194.087L1120.14 207.202L1092.76 231.505L1105.34 245.672L1125.82 227.487L1137.13 240.218L1116.64 258.403L1140.77 285.589L1124.41 300.12L1064.75 232.921L1108.5 194.087ZM1193.2 118.895L1252.86 186.093L1236.49 200.624L1200.71 160.324L1221.46 213.965L1208.25 225.692L1157.26 198.722L1193.12 239.118L1176.75 253.649L1117.1 186.45L1136.44 169.285L1196.59 199.067L1173.96 135.975L1193.2 118.895ZM84.7582 1359.61L144.411 1426.81L128.042 1441.34L103.484 1413.68L78.0216 1436.28L102.58 1463.94L86.2107 1478.48L26.5578 1411.28L42.9266 1396.75L66.2949 1423.07L91.7576 1400.47L68.3893 1374.14L84.7582 1359.61ZM189.045 1267.04L231.18 1349.78L211.365 1367.37L161.385 1332.67L189.54 1386.75L169.725 1404.34L93.0331 1352.27L110.551 1336.72L163.641 1377.05L132.184 1317.51L150.18 1301.54L205.09 1340.25L171.431 1282.67L189.045 1267.04ZM239.372 1222.36L279.991 1268.11C286.279 1275.2 289.112 1282.44 288.491 1289.84C287.933 1297.18 284.272 1303.85 277.508 1309.86C270.424 1316.14 262.96 1319.18 255.115 1318.95C247.271 1318.73 240.063 1314.91 233.491 1307.51L249.764 1293.06C252.257 1295.87 254.729 1297.5 257.181 1297.95C259.576 1298.33 261.858 1297.56 264.028 1295.64C266.006 1293.88 266.971 1291.88 266.923 1289.64C266.875 1287.4 265.775 1285.07 263.622 1282.65L223.003 1236.89L239.372 1222.36ZM322.339 1207.24C326.968 1204.62 331.823 1203.79 336.903 1204.76C341.927 1205.66 346.167 1208.06 349.622 1211.95C354.608 1217.57 356.595 1223.79 355.584 1230.62C354.58 1237.33 350.569 1243.8 343.549 1250.03L312.247 1277.82L252.594 1210.62L282.843 1183.77C289.671 1177.71 296.388 1174.54 302.993 1174.27C309.662 1173.94 315.375 1176.46 320.134 1181.82C323.646 1185.77 325.511 1189.99 325.727 1194.48C326.008 1198.91 324.878 1203.16 322.339 1207.24ZM293.096 1223.28L303.817 1213.76C306.498 1211.38 308.03 1208.99 308.414 1206.6C308.806 1204.08 307.982 1201.68 305.942 1199.38C303.903 1197.08 301.611 1195.98 299.067 1196.07C296.586 1196.1 294.006 1197.31 291.326 1199.69L280.605 1209.2L293.096 1223.28ZM328.951 1239.37C331.695 1236.94 333.262 1234.46 333.654 1231.95C334.052 1229.31 333.204 1226.81 331.108 1224.45C329.012 1222.09 326.571 1220.95 323.786 1221.02C321.065 1221.04 318.332 1222.27 315.588 1224.7L303.718 1235.24L316.889 1250.08L328.951 1239.37ZM359.44 1115.77L371.081 1128.89L343.704 1153.19L356.281 1167.36L376.766 1149.17L388.067 1161.9L367.582 1180.09L391.716 1207.27L375.347 1221.81L315.694 1154.61L359.44 1115.77ZM416.384 1065.22L428.025 1078.34L410.221 1094.14L458.232 1148.23L441.863 1162.76L393.852 1108.67L376.047 1124.48L364.405 1111.37L416.384 1065.22ZM525.413 1088.59L493.455 1080.16L499.663 1111.45L481.093 1127.93L472.294 1074.64L420.961 1061.16L440.01 1044.25L471.522 1052.56L465.377 1021.73L483.948 1005.25L492.683 1058.08L544.462 1071.68L525.413 1088.59ZM557.832 1037.22L579.274 1018.18L590.491 1030.82L552.68 1064.39L493.027 997.187L509.396 982.656L557.832 1037.22ZM656.357 992.888L637.46 988.953C635.361 991.73 633.099 994.194 630.674 996.347C624.356 1001.96 617.246 1005.64 609.343 1007.41C601.504 1009.12 593.698 1008.75 585.926 1006.29C578.161 1003.71 571.361 999.136 565.526 992.562C559.691 985.989 555.982 978.727 554.4 970.775C552.882 962.766 553.436 954.971 556.063 947.39C558.754 939.753 563.258 933.13 569.576 927.521C575.894 921.913 582.972 918.254 590.811 916.544C598.714 914.778 606.487 915.179 614.132 917.75C621.841 920.264 628.612 924.807 634.447 931.38C639.546 937.123 643.039 943.436 644.927 950.319C646.821 957.08 647.083 963.866 645.71 970.675L676.172 975.298L656.357 992.888ZM582.278 977.692C587.546 983.627 593.362 986.965 599.725 987.706C606.096 988.327 611.993 986.229 617.417 981.414C622.778 976.655 625.467 971.073 625.486 964.667C625.568 958.204 623.003 952.037 617.791 946.166C612.523 940.231 606.703 936.953 600.333 936.332C593.97 935.591 588.108 937.6 582.747 942.358C577.323 947.174 574.541 952.781 574.402 959.18C574.327 965.522 576.952 971.693 582.278 977.692ZM642.095 888.306L654.161 901.899L676.082 882.439L687.299 895.075L665.378 914.534L678.464 929.276L703.257 907.267L714.899 920.381L673.737 956.921L614.084 889.722L655.246 853.183L666.887 866.297L642.095 888.306ZM759.795 880.526L723.301 867.566L719.376 871.05L741.894 896.417L725.526 910.948L665.873 843.749L693.346 819.361C698.642 814.659 703.963 811.591 709.307 810.156C714.715 808.664 719.789 808.724 724.529 810.336C729.212 811.884 733.31 814.636 736.822 818.592C740.788 823.06 743.052 828.181 743.615 833.957C744.242 839.676 742.75 845.451 739.139 851.281L778.27 864.126L759.795 880.526ZM709.094 859.467L719.241 850.46C722.24 847.797 723.822 845.081 723.987 842.31C724.215 839.482 723.14 836.729 720.761 834.048C718.495 831.496 715.945 830.165 713.11 830.057C710.339 829.892 707.454 831.141 704.455 833.804L694.308 842.811L709.094 859.467ZM785.944 737.16L802.621 802.8L822.336 825.008L805.967 839.539L786.253 817.331L723.053 792.989L741.623 776.504L779.625 793.09L767.565 753.476L785.944 737.16ZM912.307 745.14L895.938 759.67L831.766 742.525L868.561 783.973L852.192 798.504L792.539 731.306L808.908 716.775L873.249 734.112L836.285 692.472L852.654 677.941L912.307 745.14ZM880.888 652.877L940.541 720.076L924.172 734.607L864.519 667.408L880.888 652.877ZM957.555 682.379L978.998 663.344L990.214 675.98L952.403 709.545L892.75 642.347L909.119 627.816L957.555 682.379ZM1030.84 519.764L1072.97 602.513L1053.16 620.103L1003.18 585.396L1031.33 639.478L1011.52 657.068L934.827 604.995L952.345 589.444L1005.44 629.777L973.978 570.24L991.975 554.264L1046.88 592.982L1013.23 535.4L1030.84 519.764ZM1131.52 430.39L1173.65 513.139L1153.84 530.729L1103.86 496.022L1132.01 550.104L1112.2 567.694L1035.51 515.621L1053.02 500.07L1106.11 540.403L1074.66 480.866L1092.65 464.891L1147.56 503.609L1113.9 446.026L1131.52 430.39ZM1230.67 441.297L1205.59 463.561L1212.11 479L1194.98 494.21L1159.64 405.428L1178.59 388.603L1262.56 434.218L1245.23 449.598L1230.67 441.297ZM1215.25 432.401L1185.08 415.192L1198.69 447.102L1215.25 432.401ZM1294.87 406.735C1289.95 411.097 1284.84 414.208 1279.53 416.068C1274.22 417.929 1269 418.343 1263.86 417.312C1258.79 416.225 1254.23 413.536 1250.2 409.246L1267.62 393.781C1270.08 396.043 1272.65 397.192 1275.3 397.23C1277.9 397.203 1280.38 396.142 1282.75 394.046C1285.17 391.893 1286.6 389.651 1287.04 387.32C1287.43 384.925 1286.74 382.738 1284.99 380.76C1283.51 379.101 1281.72 378.238 1279.61 378.173C1277.56 378.051 1275.4 378.376 1273.11 379.147C1270.9 379.861 1267.89 381.103 1264.1 382.872C1258.57 385.384 1253.84 387.188 1249.9 388.284C1245.97 389.38 1241.85 389.497 1237.55 388.637C1233.25 387.777 1229.23 385.241 1225.49 381.029C1219.94 374.775 1217.87 367.882 1219.29 360.35C1220.65 352.754 1224.96 345.727 1232.24 339.269C1239.64 332.697 1247.19 329.187 1254.9 328.739C1262.54 328.227 1269.33 330.988 1275.26 337.022L1257.55 352.743C1255.49 350.686 1253.2 349.703 1250.65 349.794C1248.05 349.82 1245.6 350.853 1243.3 352.893C1241.33 354.649 1240.21 356.608 1239.96 358.769C1239.66 360.866 1240.38 362.904 1242.14 364.883C1244.06 367.052 1246.59 367.837 1249.7 367.237C1252.82 366.636 1257.18 365.112 1262.76 362.664C1268.4 360.279 1273.16 358.568 1277.03 357.528C1280.96 356.433 1285.05 356.283 1289.3 357.079C1293.54 357.876 1297.45 360.284 1301.02 364.305C1304.42 368.134 1306.51 372.49 1307.31 377.373C1308.17 382.199 1307.57 387.181 1305.52 392.317C1303.46 397.454 1299.91 402.26 1294.87 406.735ZM1338.94 304.793C1343.57 302.167 1348.43 301.338 1353.51 302.305C1358.53 303.208 1362.77 305.606 1366.23 309.499C1371.21 315.115 1373.2 321.338 1372.19 328.169C1371.18 334.879 1367.17 341.35 1360.15 347.582L1328.85 375.369L1269.2 308.17L1299.45 281.318C1306.27 275.256 1312.99 272.09 1319.6 271.818C1326.26 271.489 1331.98 274.005 1336.74 279.365C1340.25 283.322 1342.11 287.543 1342.33 292.029C1342.61 296.458 1341.48 300.713 1338.94 304.793ZM1309.7 320.825L1320.42 311.308C1323.1 308.929 1324.63 306.541 1325.02 304.146C1325.41 301.631 1324.58 299.225 1322.55 296.927C1320.51 294.63 1318.21 293.526 1315.67 293.617C1313.19 293.651 1310.61 294.857 1307.93 297.236L1297.21 306.754L1309.7 320.825ZM1345.55 336.921C1348.3 334.485 1349.87 332.009 1350.26 329.494C1350.66 326.858 1349.81 324.359 1347.71 321.998C1345.61 319.637 1343.17 318.494 1340.39 318.571C1337.67 318.59 1334.94 319.818 1332.19 322.254L1320.32 332.791L1333.49 347.628L1345.55 336.921Z" fill="white"/>
</g>
<defs>
<clipPath id="clip0_95_47">
<rect x="0.974487" y="79.7509" width="1027" height="708" rx="67" transform="rotate(-4.4 0.974487 79.7509)" fill="white"/>
</clipPath>
</defs>
</svg>
