<svg width="1035" height="759" viewBox="0 0 1035 759" fill="none" xmlns="http://www.w3.org/2000/svg">
<rect x="0.237915" y="0.150513" width="1027" height="708" rx="67" fill="#212125"/>
<g clip-path="url(#clip0_101_4)">
<path d="M292.356 293.058H282.854V76.4029C282.854 70.1052 277.749 65 271.451 65H111.811C105.513 65 100.408 70.1052 100.408 76.4029V293.058H90.9053C87.7567 293.058 85.2039 295.611 85.2039 298.759V308.262H298.058V298.759C298.058 295.611 295.505 293.058 292.356 293.058ZM146.019 101.109C146.019 97.9605 148.572 95.4077 151.721 95.4077H170.726C173.874 95.4077 176.427 97.9605 176.427 101.109V120.114C176.427 123.263 173.874 125.815 170.726 125.815H151.721C148.572 125.815 146.019 123.263 146.019 120.114V101.109ZM146.019 146.721C146.019 143.572 148.572 141.019 151.721 141.019H170.726C173.874 141.019 176.427 143.572 176.427 146.721V165.726C176.427 168.874 173.874 171.427 170.726 171.427H151.721C148.572 171.427 146.019 168.874 146.019 165.726V146.721ZM170.726 217.039H151.721C148.572 217.039 146.019 214.486 146.019 211.337V192.332C146.019 189.184 148.572 186.631 151.721 186.631H170.726C173.874 186.631 176.427 189.184 176.427 192.332V211.337C176.427 214.486 173.874 217.039 170.726 217.039ZM206.835 293.058H176.427V253.148C176.427 249.999 178.98 247.446 182.128 247.446H201.133C204.282 247.446 206.835 249.999 206.835 253.148V293.058ZM237.242 211.337C237.242 214.486 234.69 217.039 231.541 217.039H212.536C209.387 217.039 206.835 214.486 206.835 211.337V192.332C206.835 189.184 209.387 186.631 212.536 186.631H231.541C234.69 186.631 237.242 189.184 237.242 192.332V211.337ZM237.242 165.726C237.242 168.874 234.69 171.427 231.541 171.427H212.536C209.387 171.427 206.835 168.874 206.835 165.726V146.721C206.835 143.572 209.387 141.019 212.536 141.019H231.541C234.69 141.019 237.242 143.572 237.242 146.721V165.726ZM237.242 120.114C237.242 123.263 234.69 125.815 231.541 125.815H212.536C209.387 125.815 206.835 123.263 206.835 120.114V101.109C206.835 97.9605 209.387 95.4077 212.536 95.4077H231.541C234.69 95.4077 237.242 97.9605 237.242 101.109V120.114Z" fill="white"/>
</g>
<g clip-path="url(#clip1_101_4)">
<path d="M507.234 233.383C511.046 231.74 515.43 231.74 519.243 233.383L625.993 279.135C632.665 281.999 636.382 289.147 634.905 296.201C633.475 303.301 627.232 307.972 619.559 308.401V312.213C619.559 318.551 614.889 323.651 608.122 323.651H417.497C411.606 323.651 406.059 318.551 406.059 312.213V308.401C399.249 307.972 393.005 303.301 391.549 296.201C390.093 289.147 393.825 281.999 400.479 279.135L507.234 233.383ZM513.238 293.151C521.673 293.151 528.488 286.336 528.488 277.901C528.488 269.48 521.673 262.651 513.238 262.651C504.803 262.651 497.988 269.48 497.988 277.901C497.988 286.336 504.803 293.151 513.238 293.151ZM451.809 430.401H470.872V338.901H501.372V430.401H524.676V338.901H555.176V430.401H574.238V338.901H604.738V432.45C605.024 432.593 605.31 432.354 605.596 432.974L628.471 448.224C634.047 451.941 636.525 458.899 634.571 465.333C632.617 471.766 626.708 476.151 619.988 476.151H406.059C399.769 476.151 393.839 471.766 391.892 465.333C389.944 458.899 392.437 451.941 398.029 448.224L420.904 432.974C421.176 432.354 421.457 432.593 421.309 432.45V338.901H451.809V430.401Z" fill="white"/>
</g>
<path d="M316.914 543.284C316.914 551.054 310.429 557.14 303.08 557.14H289.247L289.549 626.246C289.549 627.454 289.463 628.576 289.333 629.742V636.734C289.333 646.274 281.595 654 272.042 654H265.125C264.649 654 264.174 653.612 263.698 653.957C263.093 653.612 262.488 654 261.883 654H237.458C227.905 654 220.167 646.274 220.167 636.734V598.75C220.167 591.11 213.985 584.938 206.333 584.938H178.667C171.015 584.938 164.833 591.11 164.833 598.75V636.734C164.833 646.274 157.095 654 147.542 654H123.377C122.728 654 122.08 653.957 121.431 653.914C120.913 653.957 120.394 654 119.875 654H112.958C103.409 654 95.6667 646.274 95.6667 636.734V588.391C95.6667 588.002 95.6796 587.571 95.7056 587.182V557.14H81.8549C74.0607 557.14 68 551.054 68 543.284C68 539.399 69.2986 535.946 72.3272 532.925L183.163 436.46C186.189 433.433 189.647 433 192.673 433C195.699 433 199.157 433.865 201.794 436.028L312.158 532.925C315.617 535.946 317.389 539.399 316.914 543.284Z" fill="white"/>
<path d="M783.6 464.562C783.6 452.654 793.275 443 805.2 443H848.4C860.325 443 870 452.654 870 464.562V529.25H888V496.906C888 490.932 892.815 486.125 898.8 486.125C904.785 486.125 909.6 490.932 909.6 496.906V529.25H920.4C932.325 529.25 942 538.908 942 550.812V651.438C942 663.342 932.325 673 920.4 673H805.2C793.275 673 783.6 663.342 783.6 651.438V464.562ZM812.4 493.312C812.4 497.266 815.64 500.5 819.6 500.5H834C837.96 500.5 841.2 497.266 841.2 493.312V478.938C841.2 474.966 837.96 471.75 834 471.75H819.6C815.64 471.75 812.4 474.966 812.4 478.938V493.312ZM819.6 514.875C815.64 514.875 812.4 518.109 812.4 522.062V536.438C812.4 540.391 815.64 543.625 819.6 543.625H834C837.96 543.625 841.2 540.391 841.2 536.438V522.062C841.2 518.109 837.96 514.875 834 514.875H819.6ZM812.4 579.562C812.4 583.516 815.64 586.75 819.6 586.75H834C837.96 586.75 841.2 583.516 841.2 579.562V565.188C841.2 561.234 837.96 558 834 558H819.6C815.64 558 812.4 561.234 812.4 565.188V579.562ZM891.6 558C887.64 558 884.4 561.234 884.4 565.188V579.562C884.4 583.516 887.64 586.75 891.6 586.75H906C909.96 586.75 913.2 583.516 913.2 579.562V565.188C913.2 561.234 909.96 558 906 558H891.6ZM884.4 622.688C884.4 626.641 887.64 629.875 891.6 629.875H906C909.96 629.875 913.2 626.641 913.2 622.688V608.312C913.2 604.359 909.96 601.125 906 601.125H891.6C887.64 601.125 884.4 604.359 884.4 608.312V622.688ZM754.8 514.875C754.8 517.57 754.35 519.816 753.9 522.062C762.9 528.352 769.2 539.133 769.2 550.812C769.2 571.027 753 586.75 733.2 586.75H726V658.625C726 666.711 719.25 673 711.6 673C703.5 673 697.2 666.711 697.2 658.625V586.75H690C669.75 586.75 654 571.027 654 550.812C654 539.133 659.85 528.352 668.85 522.062C668.4 519.816 668.4 517.57 668.4 514.875C668.4 491.066 687.3 471.75 711.6 471.75C735.45 471.75 754.8 491.066 754.8 514.875Z" fill="white"/>
<g clip-path="url(#clip2_101_4)">
<path d="M957.207 185.005C957.207 193.671 949.985 200.459 941.801 200.459H926.395L926.732 277.536C926.78 294.626 912.963 308.492 895.921 308.492H741.671C724.653 308.492 710.855 294.675 710.855 277.68V200.459H695.43C686.75 200.459 680 193.671 680 185.005C680 180.672 681.446 176.821 684.819 173.451L808.253 65.8591C811.623 62.4824 815.474 62 818.844 62C822.214 62 826.066 62.9648 829.002 65.3767L880.274 110.48V92.8114C880.274 84.3046 887.159 77.4057 895.68 77.4057H911.086C919.607 77.4057 926.492 84.3046 926.492 92.8114V151.064L951.911 173.451C955.762 176.821 957.736 180.672 957.207 185.005ZM799.394 154.434C792.991 154.434 787.84 159.586 787.84 165.989V204.503C787.84 210.906 792.991 216.057 799.394 216.057H837.909C844.312 216.057 849.463 210.906 849.463 204.503V165.989C849.463 159.586 844.312 154.434 837.909 154.434H799.394Z" fill="white"/>
</g>
<defs>
<clipPath id="clip0_101_4">
<rect width="243.262" height="243.262" fill="white" transform="translate(70 65)"/>
</clipPath>
<clipPath id="clip1_101_4">
<rect width="244" height="244" fill="white" transform="translate(391.238 232.151)"/>
</clipPath>
<clipPath id="clip2_101_4">
<rect width="277.303" height="246.492" fill="white" transform="translate(680 62)"/>
</clipPath>
</defs>
</svg>
