<svg width="1083" height="831" viewBox="0 0 1083 831" fill="none" xmlns="http://www.w3.org/2000/svg">
<rect x="51.9507" y="-4.80212" width="1027" height="708" rx="67" transform="rotate(4.4 51.9507 -4.80212)" fill="#212125"/>
<g clip-path="url(#clip0_101_4)">
<path d="M320.736 309.653L311.262 308.924L327.884 92.9074C328.367 86.6283 323.668 81.1465 317.389 80.6633L158.219 68.4159C151.94 67.9327 146.458 72.6312 145.975 78.9103L129.354 294.927L119.879 294.198C116.74 293.956 113.999 296.306 113.757 299.445L113.028 308.919L325.255 325.249L325.984 315.775C326.225 312.635 323.876 309.894 320.736 309.653ZM189.557 107.043C189.798 103.904 192.54 101.554 195.679 101.796L214.628 103.254C217.767 103.495 220.116 106.237 219.875 109.376L218.417 128.325C218.175 131.464 215.434 133.813 212.295 133.572L193.346 132.114C190.207 131.872 187.857 129.131 188.099 125.992L189.557 107.043ZM186.058 152.52C186.299 149.381 189.04 147.031 192.18 147.273L211.128 148.731C214.268 148.973 216.617 151.714 216.376 154.853L214.918 173.802C214.676 176.941 211.935 179.291 208.796 179.049L189.847 177.591C186.707 177.349 184.358 174.608 184.6 171.469L186.058 152.52ZM205.296 224.526L186.347 223.068C183.208 222.827 180.859 220.085 181.1 216.946L182.558 197.997C182.8 194.858 185.541 192.509 188.68 192.75L207.629 194.208C210.768 194.45 213.118 197.191 212.876 200.33L211.418 219.279C211.177 222.418 208.436 224.768 205.296 224.526ZM235.467 303.092L205.149 300.759L208.211 260.966C208.452 257.827 211.193 255.478 214.333 255.719L233.282 257.177C236.421 257.419 238.77 260.16 238.529 263.299L235.467 303.092ZM272.054 223.945C271.813 227.084 269.072 229.433 265.932 229.192L246.984 227.734C243.844 227.492 241.495 224.751 241.736 221.612L243.194 202.663C243.436 199.524 246.177 197.174 249.316 197.416L268.265 198.874C271.405 199.115 273.754 201.857 273.513 204.996L272.054 223.945ZM275.554 178.468C275.312 181.607 272.571 183.956 269.432 183.715L250.483 182.257C247.344 182.015 244.994 179.274 245.236 176.135L246.694 157.186C246.935 154.047 249.676 151.697 252.816 151.939L271.765 153.397C274.904 153.638 277.253 156.379 277.012 159.519L275.554 178.468ZM279.053 132.99C278.811 136.13 276.07 138.479 272.931 138.238L253.982 136.78C250.843 136.538 248.493 133.797 248.735 130.658L250.193 111.709C250.435 108.569 253.176 106.22 256.315 106.462L275.264 107.92C278.403 108.161 280.753 110.902 280.511 114.042L279.053 132.99Z" fill="white"/>
</g>
<g clip-path="url(#clip1_101_4)">
<path d="M539.559 266.64C543.486 265.293 547.857 265.629 551.532 267.561L654.458 321.367C660.89 324.735 664.048 332.147 662.034 339.066C660.064 346.037 653.481 350.214 645.798 350.053L645.506 353.854C645.019 360.174 639.971 364.9 633.224 364.381L443.161 349.756C437.288 349.304 432.148 343.794 432.635 337.475L432.927 333.674C426.17 332.724 420.303 327.588 419.396 320.396C418.486 313.252 422.755 306.411 429.608 304.066L539.559 266.64ZM540.96 326.691C549.371 327.338 556.688 321.066 557.335 312.656C557.981 304.26 551.71 296.928 543.3 296.281C534.89 295.634 527.571 301.92 526.925 310.316C526.278 318.727 532.55 326.044 540.96 326.691ZM469.183 458.824L488.189 460.286L495.209 369.056L525.619 371.396L518.599 462.626L541.834 464.414L548.854 373.184L579.264 375.524L572.244 466.754L591.251 468.217L598.271 376.986L628.681 379.326L621.504 472.6C621.778 472.764 622.081 472.549 622.319 473.188L643.956 490.148C649.231 494.282 651.168 501.41 648.726 507.674C646.284 513.939 640.056 517.857 633.356 517.342L420.058 500.929C413.786 500.447 408.21 495.62 406.762 489.056C405.314 482.492 408.333 475.746 414.194 472.469L438.171 459.019C438.49 458.422 438.752 458.681 438.615 458.527L445.792 365.254L476.202 367.594L469.183 458.824Z" fill="white"/>
</g>
<g clip-path="url(#clip2_101_4)">
<path d="M326.024 561.026C325.428 568.772 318.496 574.343 311.169 573.779L297.376 572.718L292.376 641.643C292.283 642.848 292.111 643.961 291.892 645.113L291.356 652.085C290.624 661.596 282.316 668.706 272.791 667.973L265.894 667.442C265.42 667.406 264.976 666.982 264.475 667.29C263.898 666.899 263.265 667.24 262.662 667.193L238.309 665.32C228.784 664.587 221.661 656.289 222.393 646.778L225.307 608.906C225.893 601.288 220.203 594.66 212.574 594.073L184.989 591.95C177.36 591.363 170.723 597.043 170.137 604.661L167.223 642.533C166.491 652.044 158.183 659.154 148.658 658.421L124.564 656.567C123.917 656.518 123.274 656.425 122.631 656.332C122.11 656.335 121.59 656.338 121.072 656.299L114.176 655.768C104.655 655.035 97.5282 646.738 98.26 637.227L101.969 589.025C101.999 588.638 102.045 588.209 102.1 587.823L104.405 557.87L90.5954 556.807C82.8242 556.209 77.2482 549.676 77.8443 541.929C78.1423 538.056 79.702 534.713 82.9535 531.932L200.863 444.255C204.112 441.469 207.594 441.303 210.611 441.535C213.628 441.767 217.01 442.895 219.473 445.253L322.078 550.332C325.294 553.61 326.796 557.189 326.024 561.026Z" fill="white"/>
</g>
<g clip-path="url(#clip3_101_4)">
<path d="M797.375 518.34C798.288 506.466 808.675 497.583 820.565 498.498L863.638 501.812C875.528 502.727 884.434 513.095 883.52 524.968L878.557 589.465L896.504 590.846L898.986 558.598C899.444 552.641 904.614 548.218 910.581 548.677C916.548 549.136 920.98 554.298 920.522 560.255L918.041 592.503L928.809 593.332C940.699 594.247 949.604 604.619 948.691 616.488L940.971 716.816C940.058 728.686 929.67 737.573 917.78 736.658L802.92 727.82C791.03 726.905 782.125 716.533 783.038 704.664L797.375 518.34ZM823.884 549.215C823.581 553.156 826.563 556.63 830.511 556.933L844.869 558.038C848.817 558.342 852.296 555.366 852.599 551.424L853.702 537.092C854.007 533.132 851.023 529.677 847.075 529.373L832.717 528.268C828.769 527.964 825.292 530.923 824.987 534.882L823.884 549.215ZM829.409 571.266C825.46 570.962 821.982 573.938 821.678 577.88L820.576 592.213C820.272 596.154 823.255 599.627 827.203 599.931L841.561 601.036C845.509 601.34 848.987 598.364 849.291 594.422L850.394 580.089C850.697 576.148 847.715 572.675 843.766 572.371L829.409 571.266ZM817.267 635.211C816.964 639.152 819.946 642.625 823.894 642.929L838.252 644.034C842.2 644.338 845.679 641.361 845.982 637.42L847.085 623.087C847.388 619.146 844.406 615.672 840.458 615.369L826.1 614.264C822.152 613.96 818.673 616.936 818.37 620.878L817.267 635.211ZM897.888 619.788C893.94 619.484 890.461 622.46 890.158 626.402L889.055 640.734C888.752 644.676 891.734 648.149 895.682 648.453L910.04 649.558C913.988 649.862 917.467 646.885 917.77 642.944L918.873 628.611C919.176 624.67 916.194 621.196 912.246 620.892L897.888 619.788ZM885.746 683.732C885.443 687.674 888.425 691.147 892.374 691.451L906.731 692.556C910.68 692.859 914.158 689.883 914.462 685.942L915.564 671.609C915.868 667.668 912.885 664.194 908.937 663.89L894.579 662.786C890.631 662.482 887.153 665.458 886.849 669.4L885.746 683.732ZM764.8 566.295C764.593 568.982 763.972 571.187 763.351 573.392C771.842 580.353 777.296 591.586 776.4 603.231C774.849 623.386 757.491 637.82 737.749 636.301L730.57 635.748L725.056 707.411C724.436 715.474 717.223 721.226 709.596 720.639C701.52 720.018 695.721 713.264 696.341 705.202L701.855 633.539L694.676 632.986C674.486 631.433 659.989 614.548 661.54 594.393C662.436 582.748 669.096 572.447 678.552 566.867C678.275 564.593 678.448 562.353 678.654 559.666C680.481 535.928 700.807 518.118 725.035 519.982C748.815 521.812 766.626 542.556 764.8 566.295Z" fill="white"/>
</g>
<g clip-path="url(#clip4_101_4)">
<path d="M991.917 252.925C991.252 261.566 983.531 267.78 975.371 267.152L960.011 265.97L954.434 342.845C953.171 359.889 938.33 372.654 921.338 371.346L767.543 359.512C750.575 358.207 737.878 343.372 739.181 326.427L745.106 249.434L729.726 248.25C721.072 247.584 714.863 240.298 715.527 231.658C715.86 227.338 717.597 223.609 721.219 220.508L852.543 122.703C856.162 119.595 860.039 119.409 863.399 119.668C866.759 119.926 870.525 121.184 873.268 123.814L920.929 172.718L922.285 155.101C922.937 146.619 930.331 140.269 938.827 140.923L954.187 142.105C962.683 142.758 969.018 150.165 968.366 158.647L963.896 216.728L987.523 240.999C991.105 244.654 992.778 248.646 991.917 252.925ZM836.915 210.337C830.531 209.846 825 214.587 824.509 220.971L821.554 259.372C821.063 265.756 825.803 271.288 832.188 271.779L870.588 274.734C876.973 275.225 882.504 270.484 882.995 264.1L885.95 225.699C886.441 219.315 881.7 213.784 875.316 213.292L836.915 210.337Z" fill="white"/>
</g>
<defs>
<clipPath id="clip0_101_4">
<rect width="243.262" height="243.262" fill="white" transform="translate(116.532 65.2083) rotate(4.4)"/>
</clipPath>
<clipPath id="clip1_101_4">
<rect width="244" height="244" fill="white" transform="translate(423.999 256.511) rotate(4.4)"/>
</clipPath>
<clipPath id="clip2_101_4">
<rect width="249" height="221" fill="white" transform="translate(86.3052 431.97) rotate(4.4)"/>
</clipPath>
<clipPath id="clip3_101_4">
<rect width="288" height="230" fill="white" transform="translate(669.811 486.898) rotate(4.4)"/>
</clipPath>
<clipPath id="clip4_101_4">
<rect width="277.303" height="246.492" fill="white" transform="translate(724.964 109.016) rotate(4.4)"/>
</clipPath>
</defs>
</svg>
