<svg width="1079" height="785" viewBox="0 0 1079 785" fill="none" xmlns="http://www.w3.org/2000/svg">
<g clip-path="url(#clip0_94_36)">
<rect y="78.7905" width="1027" height="708" rx="67" transform="rotate(-4.4 0 78.7905)" fill="#212125"/>
<path d="M159.577 348.522C161.667 352.203 166.372 353.515 170.07 351.416L337.404 256.443C344.809 252.241 354.186 254.827 358.389 262.232C362.592 269.637 360.005 279.014 352.6 283.217L185.266 378.19C166.783 388.68 143.298 382.208 132.804 363.718L53.0263 223.157C48.8309 215.765 51.4232 206.368 58.8152 202.172C66.2072 197.977 75.6044 200.569 79.7999 207.961L159.577 348.522ZM247.302 231.587C245.04 239.784 236.59 244.58 228.393 242.319L190.775 231.977L174.579 290.561C172.318 298.758 163.867 303.554 155.67 301.293C147.465 299.036 142.668 290.586 144.938 282.384L165.199 208.938C167.46 200.741 175.911 195.945 184.108 198.206L221.725 208.548L240.816 139.472C243.073 131.266 251.523 126.47 259.725 128.74C267.922 131.001 272.718 139.451 270.457 147.649L247.302 231.587Z" fill="white"/>
<g clip-path="url(#clip1_94_36)">
<path d="M880.407 66.155C811.863 40.1092 735.201 74.553 709.155 143.097C683.109 211.642 717.553 288.304 786.097 314.35C854.642 340.396 931.304 305.952 957.35 237.407C983.396 168.863 948.952 92.2008 880.407 66.155ZM748.285 157.966L747.756 157.765C743.356 156.093 741.282 150.861 743.407 146.493C764.494 103.103 814.053 80.9167 860.512 94.1323C865.019 95.412 867.375 100.451 865.655 104.979C864.117 109.027 859.828 111.241 855.792 110.102C817.195 99.219 776.024 117.636 758.454 153.731C756.58 157.568 752.187 159.449 748.285 157.966ZM815.735 236.353C790.033 226.586 777.119 197.825 786.716 172.569C796.313 147.314 825.234 133.95 850.936 143.716C876.637 153.482 889.552 182.243 879.789 207.936C870.026 233.628 841.427 246.115 815.735 236.353ZM839.147 174.74C830.567 171.48 821.019 175.729 817.74 184.358C814.462 192.987 818.778 202.504 827.358 205.765C835.938 209.025 845.495 204.751 848.765 196.147C852.034 187.542 847.727 178.001 839.147 174.74Z" fill="white"/>
</g>
<g clip-path="url(#clip2_94_36)">
<path d="M900.548 414.998C830.921 393.899 760.648 435.874 738.242 501.811L722.908 552.413C720.947 558.884 724.6 565.675 730.609 567.496C736.618 569.317 744.302 565.961 746.263 559.49L761.597 508.888C778.509 453.08 837.652 421.544 893.441 438.45C949.249 455.363 980.917 514.418 964.005 570.226L948.671 620.828C946.71 627.299 950.338 634.083 956.809 636.044C963.281 638.005 970.064 634.377 972.025 627.905L987.493 576.866C1005.31 510.016 970.174 436.098 900.548 414.998ZM816.092 525.402L808.307 523.043C791.112 517.832 772.935 527.571 767.711 544.809L758.311 575.827C753.089 593.061 762.821 611.257 779.997 616.462L787.782 618.821C796.374 621.425 805.466 616.562 808.077 607.945L826.936 545.715C829.553 537.078 824.704 528.012 816.092 525.402ZM917.296 556.071L909.511 553.712C900.918 551.108 891.829 555.961 889.217 564.583L870.358 626.814C867.748 635.426 872.61 644.522 881.202 647.126L888.986 649.49C906.181 654.701 924.357 644.963 929.581 627.724L938.981 596.706C944.204 579.472 934.471 561.276 917.296 556.071Z" fill="white"/>
</g>
<g clip-path="url(#clip3_94_36)">
<path d="M526.854 235.351C440.168 242.021 375.229 317.748 381.895 404.392C388.562 491.035 464.322 555.936 551.008 549.266C637.695 542.596 702.634 466.868 695.967 380.225C689.3 293.582 613.54 228.68 526.854 235.351ZM608.388 461.387C605.729 461.592 604.019 460.896 601.438 459.63C560.094 438.874 514.045 441.398 469.36 454.195C466.939 455.018 463.788 456.279 461.952 456.421C455.809 456.893 451.572 452.317 451.177 447.191C450.676 440.672 454.3 437.274 458.971 435.896C509.949 420.45 563.027 417.384 610.317 440.93C614.37 443.101 616.82 445.141 617.263 450.9C617.706 456.66 613.517 460.993 608.388 461.387V461.387ZM622.227 418.559C618.934 418.812 616.606 417.527 614.234 416.5C572.856 396.128 513.116 391.239 461.718 409.518C458.742 410.575 457.159 411.524 454.31 411.744C447.535 412.265 441.602 407.183 441.081 400.411C440.56 393.639 443.507 388.892 449.888 386.554C467.111 380.263 484.812 375.209 511.153 373.182C552.248 370.02 592.735 377.155 625.447 393.355C630.81 395.998 633.138 399.766 633.561 405.272C634.024 412.112 629.129 418.028 622.227 418.559V418.559ZM638.146 368.822C634.853 369.075 632.763 368.408 629.787 366.982C582.633 343.553 501.529 343.3 450.472 361.871C448.242 362.68 445.47 363.912 442.431 364.145C434.072 364.789 427.175 358.762 426.528 350.344C425.865 341.737 430.809 336.454 436.382 334.37C458.169 326.137 482.879 321.116 510.043 319.025C556.268 315.469 605.448 321.361 642.432 339.27C647.59 341.738 651.122 345.414 651.701 352.945C652.364 361.552 645.871 368.228 638.146 368.822V368.822Z" fill="white"/>
</g>
<g clip-path="url(#clip4_94_36)">
<path d="M330.617 675.918C326.299 695.023 304.21 706.312 281.671 701.217C259.132 696.122 244.047 676.431 248.278 657.714C252.596 638.609 274.597 627.709 297.136 632.804C302.014 633.906 306.44 635.78 310.5 638.051L324.742 575.044L206.611 582.841L186.268 672.834C181.569 691.817 159.863 703.183 136.554 697.914C113.245 692.645 98.928 673.136 103.249 654.022C107.567 634.916 129.568 624.017 152.107 629.112C156.985 630.214 161.411 632.088 165.466 634.358L188.076 534.333C189.344 528.724 195.03 523.801 200.751 523.326L347.982 513.657C349.572 513.639 351.886 513.862 353.053 514.126C360.69 515.852 365.477 523.452 363.765 531.088L330.617 675.918Z" fill="white"/>
</g>
</g>
<defs>
<clipPath id="clip0_94_36">
<rect y="78.7905" width="1027" height="708" rx="67" transform="rotate(-4.4 0 78.7905)" fill="white"/>
</clipPath>
<clipPath id="clip1_94_36">
<rect width="265.509" height="265.509" fill="white" transform="translate(756.31 19) rotate(20.806)"/>
</clipPath>
<clipPath id="clip2_94_36">
<rect width="260.305" height="260.305" fill="white" transform="translate(780.707 361.682) rotate(16.859)"/>
</clipPath>
<clipPath id="clip3_94_36">
<rect width="315" height="325" fill="white" transform="translate(369.428 242.371) rotate(-4.4)"/>
</clipPath>
<clipPath id="clip4_94_36">
<rect width="227" height="227" fill="white" transform="translate(145.478 467.204) rotate(12.7374)"/>
</clipPath>
</defs>
</svg>
