<svg width="1028" height="709" viewBox="0 0 1028 709" fill="none" xmlns="http://www.w3.org/2000/svg">
<g clip-path="url(#clip0_94_36)">
<rect x="0.645142" y="0.351929" width="1027" height="708" rx="67" fill="#212125"/>
<path d="M139.059 281.531C140.86 285.362 145.45 287.031 149.298 285.222L323.426 203.366C331.131 199.744 340.282 203.043 343.904 210.748C347.527 218.453 344.228 227.605 336.523 231.227L162.395 313.082C143.163 322.123 120.243 313.869 111.198 294.628L42.4396 148.361C38.8236 140.669 42.1292 131.498 49.8213 127.882C57.5134 124.266 66.684 127.572 70.3 135.264L139.059 281.531ZM235.495 171.671C232.612 179.67 223.819 183.804 215.819 180.921L179.106 167.723L158.463 224.892C155.579 232.891 146.786 237.025 138.786 234.142C130.778 231.262 126.644 222.469 129.537 214.465L155.373 142.79C158.256 134.79 167.05 130.657 175.049 133.54L211.762 146.738L236.096 79.3295C238.976 71.3213 247.769 67.1876 255.773 70.0798C263.772 72.9633 267.906 81.7568 265.022 89.7563L235.495 171.671Z" fill="white"/>
<g clip-path="url(#clip1_94_36)">
<path d="M879.427 55.2977C813.083 24.07 734.004 52.5308 702.777 118.875C671.549 185.219 700.01 264.298 766.354 295.526C832.698 326.753 911.777 298.293 943.004 231.948C974.232 165.604 945.771 86.5254 879.427 55.2977ZM740.65 136.702L740.139 136.461C735.879 134.456 734.213 129.08 736.667 124.889C761.021 83.244 812.136 64.9252 857.444 81.6662C861.839 83.2879 863.802 88.4933 861.74 92.8756C859.896 96.7933 855.449 98.6723 851.513 97.2265C813.865 83.4146 771.402 98.6191 751.114 133.259C748.951 136.941 744.427 138.48 740.65 136.702ZM801.888 220.032C777.011 208.323 766.342 178.655 777.848 154.21C789.354 129.765 819.215 118.66 844.092 130.369C868.969 142.078 879.638 171.746 867.933 196.613C856.228 221.48 826.755 231.737 801.888 220.032ZM829.958 160.397C821.653 156.488 811.807 159.993 807.876 168.345C803.945 176.696 807.519 186.517 815.823 190.426C824.128 194.335 833.985 190.807 837.905 182.479C841.825 174.151 838.262 164.306 829.958 160.397Z" fill="white"/>
</g>
<g clip-path="url(#clip2_94_36)">
<path d="M872.745 404.658C804.943 378.279 731.656 414.739 704.258 478.763L685.087 528.039C682.635 534.341 685.756 541.392 691.608 543.669C697.459 545.945 705.378 543.189 707.83 536.887L727.001 487.611C748.145 433.265 809.533 406.359 863.86 427.496C918.206 448.64 945.25 509.95 924.107 564.297L904.935 613.573C902.484 619.875 905.581 626.917 911.883 629.369C918.184 631.82 925.226 628.723 927.678 622.421L947.016 572.719C969.906 507.432 940.547 431.037 872.745 404.658ZM780.068 508.257L772.487 505.308C755.742 498.793 736.872 507.108 730.341 523.895L718.59 554.101C712.06 570.883 720.368 589.772 737.094 596.28L744.675 599.229C753.042 602.484 762.48 598.333 765.745 589.942L789.322 529.342C792.594 520.932 788.454 511.52 780.068 508.257ZM878.621 546.6L871.04 543.651C862.672 540.395 853.238 544.537 849.971 552.933L826.394 613.533C823.132 621.92 827.281 631.362 835.648 634.618L843.227 637.572C859.972 644.086 878.842 635.771 885.373 618.984L897.125 588.779C903.654 571.996 895.346 553.107 878.621 546.6Z" fill="white"/>
</g>
<g clip-path="url(#clip3_94_36)">
<path d="M526.012 197.334C439.326 190.664 363.566 255.566 356.899 342.209C350.232 428.852 415.172 504.58 501.858 511.25C588.544 517.92 664.304 453.019 670.971 366.375C677.638 279.732 612.699 204.004 526.012 197.334ZM572.006 433.184C569.347 432.979 567.764 432.03 565.406 430.384C527.725 403.547 481.832 398.997 435.715 404.807C433.197 405.25 429.89 406.014 428.053 405.873C421.911 405.4 418.424 400.23 418.818 395.103C419.32 388.585 423.421 385.781 428.248 385.133C480.989 377.668 533.911 382.759 577.043 413.263C580.715 416.028 582.824 418.419 582.381 424.178C581.938 429.937 577.135 433.579 572.006 433.184ZM592.234 392.977C588.942 392.723 586.837 391.097 584.65 389.719C546.877 363.257 488.587 349.286 434.998 359.487C431.896 360.076 430.186 360.772 427.337 360.553C420.561 360.031 415.476 354.101 415.997 347.329C416.518 340.557 420.157 336.317 426.82 334.984C444.803 331.401 463.069 329.114 489.41 331.141C530.505 334.303 569.424 347.548 599.272 368.562C604.168 371.994 605.892 376.074 605.468 381.58C604.879 388.411 599.136 393.508 592.234 392.977ZM615.575 346.261C612.282 346.007 610.319 345.028 607.596 343.164C564.581 312.797 484.471 300.139 431.174 310.68C428.846 311.138 425.919 311.931 422.879 311.698C414.521 311.054 408.627 304.043 409.275 295.626C409.937 287.019 415.631 282.555 421.456 281.348C444.247 276.544 469.434 275.362 496.599 277.452C542.823 281.009 590.523 294.357 624.332 317.712C629.052 320.941 631.979 325.113 631.4 332.644C630.737 341.252 623.3 346.855 615.575 346.261Z" fill="white"/>
</g>
<g clip-path="url(#clip4_94_36)">
<path d="M284.477 621.084C278.705 639.802 255.816 649.363 233.734 642.554C211.652 635.745 198.122 614.954 203.777 596.617C209.548 577.899 232.32 568.719 254.402 575.528C259.181 577.002 263.451 579.21 267.324 581.785L286.358 520.057L167.977 518.768L140.79 606.935C134.648 625.501 112.135 635.169 89.2985 628.127C66.4624 621.086 53.684 600.536 59.4584 581.809C65.2301 563.091 88.0017 553.912 110.084 560.721C114.863 562.194 119.132 564.402 123.001 566.976L153.219 468.981C154.913 463.486 160.96 459.013 166.7 458.978L314.239 460.633C315.826 460.738 318.116 461.137 319.26 461.49C326.742 463.797 330.931 471.742 328.638 479.224L284.477 621.084Z" fill="white"/>
</g>
</g>
<defs>
<clipPath id="clip0_94_36">
<rect x="0.645142" y="0.351929" width="1027" height="708" rx="67" fill="white"/>
</clipPath>
<clipPath id="clip1_94_36">
<rect width="265.509" height="265.509" fill="white" transform="translate(759.313 -1.23895) rotate(25.206)"/>
</clipPath>
<clipPath id="clip2_94_36">
<rect width="260.305" height="260.305" fill="white" transform="translate(757.348 342.305) rotate(21.259)"/>
</clipPath>
<clipPath id="clip3_94_36">
<rect width="315" height="325" fill="white" transform="translate(369.366 180.188) rotate(4.4)"/>
</clipPath>
<clipPath id="clip4_94_36">
<rect width="227" height="227" fill="white" transform="translate(115.896 398.782) rotate(17.1374)"/>
</clipPath>
</defs>
</svg>
